<svg xmlns="http://www.w3.org/2000/svg" xmlns:xlink="http://www.w3.org/1999/xlink" xmlns:inkscape="http://www.inkscape.org/namespaces/inkscape" version="1.1" width="300" height="268.89" viewBox="0 0 300 268.89">
<defs>
<clipPath id="clip_1">
<path transform="matrix(1,0,0,-1,0,268.88703)" d="M0 0H300V268.89H0Z"/>
</clipPath>
<path id="font_2_1" d="M.47399903 .40820313C.44198609 .40219117 .42999269 .3781891 .42999269 .3591919 .42999269 .33518983 .44898988 .3271942 .46299745 .3271942 .49299623 .3271942 .5139923 .3531952 .5139923 .380188 .5139923 .4223938 .46598817 .44140626 .42399598 .44140626 .36299134 .44140626 .32899476 .38119508 .31999208 .36219789 .29699708 .4373932 .23498535 .44140626 .21699524 .44140626 .114990238 .44140626 .06098938 .31021119 .06098938 .28822328 .06098938 .28422547 .06498718 .27923585 .07199097 .27923585 .07998657 .27923585 .08198547 .28523255 .083999637 .2892151 .117996219 .40019227 .18499756 .42140199 .21398926 .42140199 .25898744 .42140199 .2679901 .37919618 .2679901 .3551941 .2679901 .33319093 .2619934 .31021119 .25 .26223756L.21598816 .12535095C.20098877 .06535339 .17199707 .010223389 .11898804 .010223389 .11399841 .010223389 .08898926 .010223389 .067993167 .023330689 .10398865 .03036499 .11199951 .06036377 .11199951 .07235718 .11199951 .09236145 .09700012 .10435486 .07798767 .10435486 .053985597 .10435486 .027999878 .083358768 .027999878 .051361085 .027999878 .009231567 .07499695-.009765625 .117996219-.009765625 .1659851-.009765625 .19999695 .028366089 .22099304 .069366458 .23699951 .010223389 .2869873-.009765625 .32398988-.009765625 .42599488-.009765625 .47999574 .12135315 .47999574 .1433258 .47999574 .14833069 .47599793 .15232849 .46998597 .15232849 .46099855 .15232849 .45999146 .14732361 .45700074 .139328 .42999269 .051361085 .37199403 .010223389 .32699586 .010223389 .2919922 .010223389 .272995 .036361696 .272995 .07736206 .272995 .099365238 .2769928 .115356449 .29299928 .18130493L.32798768 .3171997C.34298707 .37719728 .3769989 .42140199 .4229889 .42140199 .4249878 .42140199 .45298768 .42140199 .47399903 .40820313Z"/>
<path id="font_3_17828" d="M.70703127 .2890625V.046875H.84765627V.2890625H.70703127M.89453127 .046875C.89453127 .015625 .8958333-.014322917 .8984375-.04296875L.84765627-.06640625V.0234375H.5234375V-.05078125L.47265626-.0703125C.4752604 .013020833 .4765625 .12630208 .4765625 .26953126 .4765625 .4127604 .4752604 .52213546 .47265626 .59765627L.5234375 .56640627H.66015627C.66015627 .68359377 .6588542 .765625 .65625 .8125L.73828127 .7734375 .70703127 .74609377V.56640627H.84375L.8671875 .6015625 .92578127 .55859377 .89453127 .53515627V.046875M.5234375 .54296877V.3125H.66015627V.54296877H.5234375M.70703127 .54296877V.3125H.84765627V.54296877H.70703127M.5234375 .2890625V.046875H.66015627V.2890625H.5234375M.30078126 .17578125C.30078126 .05078125 .30208335-.033854169 .3046875-.078125L.25-.10546875C.25260417-.00390625 .25390626 .084635417 .25390626 .16015625 .17578125 .13151042 .12630208 .111979167 .10546875 .1015625L.08203125 .07421875 .0390625 .140625C.109375 .15364583 .18098958 .171875 .25390626 .1953125V.359375H.140625L.109375 .33984376 .0703125 .390625C.091145839 .40104167 .10872396 .42578126 .123046878 .46484376 .1373698 .50390627 .15494792 .55598959 .17578125 .62109377 .14713542 .62109377 .118489589 .6171875 .08984375 .609375L.0546875 .64453127H.18359375C.19401042 .68359377 .20182292 .7161458 .20703125 .7421875 .21223958 .7682292 .21614583 .7942708 .21875 .8203125L.296875 .7734375C.27864585 .7734375 .2578125 .7317708 .234375 .6484375H.34375L.390625 .6953125 .45703126 .625H.2265625L.140625 .3828125H.25390626C.25390626 .45572917 .25260417 .51953127 .25 .57421877L.33203126 .53125 .30078126 .5078125V.3828125H.3515625L.3984375 .4296875 .45703126 .359375H.30078126V.20703125L.44140626 .24609375 .4453125 .234375 .30078126 .17578125Z"/>
<path id="font_2_2" d="M.2630005-.11172485C.23599243-.14982605 .19699097-.18411255 .147995-.18411255 .13598633-.18411255 .08799744-.18209839 .07299805-.13572693 .07598877-.13671875 .08099365-.13671875 .08299255-.13671875 .11299133-.13671875 .1329956-.11073303 .1329956-.08772278 .1329956-.06472778 .11399841-.056732179 .09899902-.056732179 .08299255-.056732179 .04798889-.068725589 .04798889-.11772156 .04798889-.16899109 .09098816-.20410156 .147995-.20410156 .24798584-.20410156 .34899903-.11172485 .3769989-.00077819827L.47499085 .38868714C.47599793 .39367677 .47799684 .39967347 .47799684 .4056549 .47799684 .4206543 .46598817 .43066407 .45098878 .43066407 .44198609 .43066407 .42099 .426651 .41299439 .39666749L.33898927 .10308838C.33399964 .085113529 .33399964 .08312988 .32598878 .072143558 .30599977 .04423523 .272995 .010223389 .22499085 .010223389 .16899109 .010223389 .1639862 .06524658 .1639862 .09225464 .1639862 .14929199 .19099427 .22631836 .21798706 .2983551 .22898865 .32736207 .23498535 .34136964 .23498535 .3613739 .23498535 .4033966 .20498657 .44140626 .1559906 .44140626 .06399536 .44140626 .026992798 .29634095 .026992798 .28834535 .026992798 .28434754 .0309906 .27934266 .037994386 .27934266 .04699707 .27934266 .04798889 .28334046 .051986696 .29734803 .07598877 .38137818 .11399841 .42140199 .15299988 .42140199 .1619873 .42140199 .1789856 .42140199 .1789856 .38838197 .1789856 .36238099 .16799927 .33335877 .15299988 .29534913 .10398865 .16429138 .10398865 .13127136 .10398865 .10726929 .10398865 .01222229 .17199707-.009765625 .22200012-.009765625 .25099183-.009765625 .2869873-.00077819827 .32199098 .036239625L.32299806 .035232545C.30799867-.023757935 .2979889-.06272888 .2630005-.11172485Z"/>
<path id="font_2_3" d="M.1269989 .0814209C.16999817 .13038635 .20498657 .1613617 .25498963 .20631409 .31498719 .25828553 .34098817 .28326417 .35499574 .2982483 .4249878 .36721803 .45999146 .42539979 .45999146 .4333954 .45999146 .44140626 .45199586 .44140626 .44999696 .44140626 .44299317 .44140626 .44099427 .4373932 .43598939 .43040467 .41099549 .3874054 .3869934 .36621095 .36099244 .36621095 .33999635 .36621095 .32899476 .3753357 .30999757 .3993988 .2889862 .4243927 .27198792 .44140626 .24299622 .44140626 .16999817 .44140626 .12599182 .35020448 .12599182 .32922364 .12599182 .32621766 .1269989 .32022096 .13598633 .32022096 .14399719 .32022096 .14498902 .32421876 .147995 .33122254 .16499329 .37127687 .21299744 .37838746 .23199463 .37838746 .25299073 .37838746 .272995 .37127687 .2939911 .36219789 .33198548 .34620667 .34799195 .34620667 .35798646 .34620667 .36499024 .34620667 .36898805 .34620667 .37399293 .3471985 .34098817 .3082428 .2869873 .26026917 .24198914 .21931458L.14099121 .12638855C.07998657 .06440735 .042999269 .0052337648 .042999269-.0017700195 .042999269-.0077667238 .04798889-.009765625 .053985597-.009765625 .05999756-.009765625 .06098938-.008773804 .067993167 .0032196046 .083999637 .02822876 .115997318 .06542969 .15299988 .06542969 .17399597 .06542969 .18399048 .05831909 .20399475 .033233644 .22299195 .011230469 .23999024-.009765625 .27198792-.009765625 .36999513-.009765625 .42599488 .11740112 .42599488 .14038086 .42599488 .14437866 .4249878 .15037537 .4149933 .15037537 .40699769 .15037537 .4059906 .14637757 .40299989 .13638306 .3809967 .077423099 .32199098 .053237916 .2829895 .053237916 .2619934 .053237916 .24198914 .06034851 .22099304 .06942749 .18099976 .0854187 .16999817 .0854187 .15699768 .0854187 .14698792 .0854187 .13598633 .0854187 .1269989 .0814209Z"/>
<path id="font_4_1" d="M.34098817-.23803711C.34098817-.23303223 .33799745-.23002625 .33198548-.22303772 .20298767-.105026248 .1639862 .07498169 .1639862 .24996948 .1639862 .40498353 .19400025 .59298709 .33499146 .72698977 .33898927 .73098757 .34098817 .73399356 .34098817 .7389984 .34098817 .74598696 .33599855 .75 .32899476 .75 .31698609 .75 .22698975 .6779785 .17298889 .568985 .125 .47297669 .100997928 .36997987 .100997928 .25097657 .100997928 .17897034 .10998535 .064971927 .16499329-.053024293 .22399903-.17602539 .31698609-.24902344 .32899476-.24902344 .33599855-.24902344 .34098817-.24502564 .34098817-.23803711Z"/>
<path id="font_5_2" d="M.38198854 .3803711C.36299134 .41638185 .33198548 .4423828 .2869873 .4423828 .17098999 .4423828 .041992189 .30433656 .041992189 .1512909 .041992189 .041259767 .11199951-.0107421879 .1789856-.0107421879 .24398804-.0107421879 .29699708 .043258668 .31298829 .06227112 .32398988 .007247925 .37399293-.0107421879 .4059906-.0107421879 .43499757-.0107421879 .45999146 .002243042 .48199464 .044265748 .5 .07727051 .5139923 .13928223 .5139923 .14329529 .5139923 .14828491 .5109863 .1552887 .5009918 .1552887 .4889984 .1552887 .48799134 .15029907 .48399354 .13128662 .46199037 .044265748 .43998719 .014251709 .40899659 .014251709 .38398744 .014251709 .37799073 .038253786 .37799073 .060272218 .37799073 .07926941 .3829956 .09927368 .3919983 .1342926L.4169922 .23731995C.42399598 .2623291 .44198609 .33735658 .44599916 .35235597 .44999696 .36636354 .45599366 .3903656 .45599366 .39337159 .45599366 .40937806 .44299317 .42237855 .4249878 .42237855 .4119873 .42237855 .3869934 .41438294 .38198854 .3803711M.31698609 .122283939C.31199647 .103271488 .31199647 .10227966 .29599 .08326721 .2599945 .040252687 .21899414 .014251709 .18199158 .014251709 .1329956 .014251709 .115997318 .06526184 .115997318 .10827637 .115997318 .15730286 .14498902 .27233888 .16899109 .32034303 .20098877 .3803711 .24699402 .41737367 .2869873 .41737367 .35398866 .41737367 .36898805 .33735658 .36898805 .33035279 .36898805 .3253479 .36698915 .3193512 .3659973 .31533814L.31698609 .122283939Z"/>
<path id="font_5_1" d="M.18199158 .015991211C.18199158-.017044068 .18199158-.09921265 .10798645-.17036438 .101989749-.17636109 .101989749-.17736817 .101989749-.18136597 .101989749-.18836975 .10899353-.19335938 .114990238-.19335938 .12599182-.19335938 .20698548-.115249637 .20698548 .0019989014 .20698548 .06399536 .18499756 .10798645 .14199829 .10798645 .10798645 .10798645 .08799744 .08198547 .08799744 .053985597 .08799744 .025985718 .10798645 0 .14199829 0 .15699768 0 .17199707 .004989624 .18199158 .015991211Z"/>
<path id="font_4_3" d="M.47299195 .31976319C.47299195 .38682557 .46998597 .47288514 .43499757 .5479431 .3909912 .64201357 .31498719 .6660156 .25698854 .6660156 .19699097 .6660156 .12098694 .64201357 .07699585 .5459442 .04499817 .47688294 .039993287 .39582826 .039993287 .31976319 .039993287 .25471498 .041992189 .15765381 .084991458 .07858276 .13198853-.0064697267 .20999146-.022460938 .2559967-.022460938 .32099916-.022460938 .394989 .0055389406 .43699647 .097595218 .46699525 .1646576 .47299195 .23971558 .47299195 .31976319M.25698854 .002532959C.22698975 .002532959 .15499878 .016540528 .13598633 .12962342 .12599182 .18867493 .12599182 .2747345 .12599182 .33177186 .12599182 .39982606 .12599182 .47888185 .13798523 .53393557 .1579895 .6230011 .22200012 .64100649 .2559967 .64100649 .2939911 .64100649 .35699464 .62098696 .37599183 .5279236 .3869934 .47288514 .3869934 .39482118 .3869934 .33177186 .3869934 .2697296 .3869934 .18566895 .3769989 .12661743 .35598756 .012542725 .28199769 .002532959 .25698854 .002532959Z"/>
<path id="font_4_2" d="M.2979889 .25097657C.2979889 .3329773 .28599549 .4429779 .23399353 .5539856 .1749878 .6769867 .08198547 .75 .069992069 .75 .05999756 .75 .057998659 .74198916 .057998659 .7389984 .057998659 .73399356 .05999756 .73098757 .066986087 .72398379 .125 .6719818 .23498535 .5359802 .23498535 .25097657 .23498535 .10797119 .20899964-.091033939 .06399536-.22602844 .06199646-.22903443 .057998659-.23303223 .057998659-.23803711 .057998659-.24102783 .05999756-.24902344 .069992069-.24902344 .08198547-.24902344 .17199707-.17703247 .22599793-.06802368 .27398683 .02796936 .2979889 .13098145 .2979889 .25097657Z"/>
<path id="font_5_3" d="M.23899842 .6603241C.24299622 .67433169 .24299622 .67633059 .24299622 .68032839 .24299622 .68933108 .23699951 .69433596 .22799683 .69433596 .21398926 .69433596 .12599182 .6863251 .10598755 .6843262 .09599304 .68333438 .084991458 .6823273 .084991458 .665329 .084991458 .6523285 .09599304 .6523285 .11199951 .6523285 .15899658 .6523285 .15899658 .6453247 .15899658 .6363373 .15899658 .6303406 .15899658 .6283264 .1519928 .6013336L.09899902 .3903656C.084991458 .3343506 .07199097 .28334046 .06098938 .23631287 .053985597 .21131897 .04699707 .18130493 .04699707 .14929199 .04699707 .06326294 .09498596-.0107421879 .18099976-.0107421879 .2979889-.0107421879 .42599488 .13027954 .42599488 .28033448 .42599488 .38237 .36299134 .4423828 .28799439 .4423828 .23699951 .4423828 .19299317 .40737916 .16999817 .38536073L.23899842 .6603241M.1559906 .32835389C.18399048 .36836244 .23498535 .41737367 .28599549 .41737367 .33299256 .41737367 .35198976 .37036134 .35198976 .323349 .35198976 .27833558 .32398988 .15429688 .29299928 .10127258 .2559967 .037261964 .21199036 .014251709 .18099976 .014251709 .1309967 .014251709 .11099243 .06427002 .11099243 .11528015 .11099243 .15029907 .117996219 .17730713 .14099121 .2683258L.1559906 .32835389Z"/>
<path id="font_5_4" d="M.4019928 .38200379C.3639984 .38101197 .34399415 .352005 .34399415 .3270111 .34399415 .29800416 .36999513 .29101563 .38198854 .29101563 .4019928 .29101563 .43798829 .30801393 .43798829 .355011 .43798829 .40827943 .3849945 .4423828 .31599427 .4423828 .17999268 .4423828 .042999269 .30400086 .042999269 .16012573 .042999269 .06021118 .10998535-.0107421879 .21099854-.0107421879 .36099244-.0107421879 .44499208 .093185428 .44499208 .106170658 .44499208 .11216736 .43798829 .120162967 .43099977 .120162967 .42599488 .120162967 .4249878 .119155887 .41600038 .108169559 .35598756 .034225465 .2649994 .014251709 .21299744 .014251709 .15699768 .014251709 .11999512 .051223756 .11999512 .12315369 .11999512 .16612244 .13899231 .2650299 .1789856 .32901 .20199585 .3650055 .2539978 .41737367 .31698609 .41737367 .33599855 .41737367 .37799073 .41333009 .4019928 .38200379Z"/>
<path id="font_3_5283" d="M.52734377 .1171875C.52734377 .059895833 .5286458 .0026041668 .53125-.0546875L.46484376-.08203125C.4674479-.0013020834 .46875 .071614589 .46875 .13671875V.36328126H.1640625C.13020833 .36328126 .098958339 .359375 .0703125 .3515625L.03515625 .38671876H.46875V.71484377H.25C.21614583 .71484377 .18489583 .7109375 .15625 .703125L.12109375 .73828127H.7578125L.8125 .79296877 .890625 .71484377H.52734377V.38671876H.8125L.87109377 .4453125 .953125 .36328126H.52734377V.1171875M.7421875 .67578127 .82421877 .61328127C.80338546 .61328127 .77473959 .58984377 .73828127 .54296877 .69921877 .49609376 .65755209 .4518229 .61328127 .41015626L.6015625 .41796876C.6692708 .50911459 .7161458 .59505209 .7421875 .67578127M.203125 .65625C.27864585 .6015625 .32291667 .5644531 .3359375 .5449219 .34895835 .5253906 .35546876 .5078125 .35546876 .4921875 .35546876 .484375 .35351563 .47460938 .34960938 .46289063 .34570313 .45117188 .33658854 .44010417 .32226563 .4296875 .30794273 .41927085 .29427085 .4375 .28125 .484375 .26822917 .5286458 .23828125 .5833333 .19140625 .6484375L.203125 .65625Z"/>
<path id="font_3_19858" d="M.4140625 .18359375V.01171875H.578125V.18359375H.4140625M.38671876 .55859377C.4075521 .61848959 .421875 .6744792 .4296875 .7265625H.1796875C.140625 .7265625 .106770839 .72265627 .078125 .71484377L.04296875 .75H.82421877L.88671877 .80859377 .95703127 .7265625H.46875L.52734377 .6953125 .48828126 .68359377C.45703126 .63932296 .4309896 .59765627 .41015626 .55859377H.79296877L.8203125 .59765627 .8828125 .55078127 .85546877 .5234375C.85546877 .2890625 .8567708 .09375 .859375-.0625L.80078127-.08984375V-.01171875H.1953125V-.06640625L.13671875-.09375C.13932292-.0026041668 .140625 .11393229 .140625 .25585938 .140625 .39778648 .13932292 .50911459 .13671875 .58984377L.1953125 .55859377H.38671876M.1953125 .53515627V.01171875H.36328126V.53515627H.1953125M.62890627 .53515627V.01171875H.80078127V.53515627H.62890627M.4140625 .53515627V.38671876H.578125V.53515627H.4140625M.4140625 .36328126V.20703125H.578125V.36328126H.4140625Z"/>
</defs>
<g clip-path="url(#clip_1)">
<path transform="matrix(.1,0,0,-.1,0,268.88703)" stroke-width="5" stroke-linecap="round" stroke-linejoin="round" fill="none" stroke="#000000" d="M2649.02 129.699H326.41"/>
<path transform="matrix(.1,0,0,-.1,0,268.88703)" d="M2724.02 129.699 2649.02 149.797V109.605L2724.02 129.699Z"/>
<path transform="matrix(.1,0,0,-.1,0,268.88703)" stroke-width="5" stroke-linecap="round" stroke-linejoin="round" fill="none" stroke="#000000" d="M2724.02 129.699 2649.02 149.797V109.605L2724.02 129.699Z"/>
<path transform="matrix(.1,0,0,-.1,0,268.88703)" stroke-width="5" stroke-linecap="round" stroke-linejoin="round" fill="none" stroke="#000000" d="M1463.77 925.855 326.41 129.699"/>
<path transform="matrix(.1,0,0,-.1,0,268.88703)" d="M1525.21 968.863 1452.25 942.32 1475.3 909.391 1525.21 968.863Z"/>
<path transform="matrix(.1,0,0,-.1,0,268.88703)" stroke-width="5" stroke-linecap="round" stroke-linejoin="round" fill="none" stroke="#000000" d="M1525.21 968.863 1452.25 942.32 1475.3 909.391 1525.21 968.863Z"/>
<path transform="matrix(.1,0,0,-.1,0,268.88703)" stroke-width="5" stroke-linecap="round" stroke-linejoin="round" fill="none" stroke="#000000" d="M326.41 2452.32V129.699"/>
<path transform="matrix(.1,0,0,-.1,0,268.88703)" d="M326.41 2527.32 306.313 2452.32H346.504L326.41 2527.32Z"/>
<path transform="matrix(.1,0,0,-.1,0,268.88703)" stroke-width="5" stroke-linecap="round" stroke-linejoin="round" fill="none" stroke="#000000" d="M326.41 2527.32 306.313 2452.32H346.504L326.41 2527.32Z"/>
<path transform="matrix(.1,0,0,-.1,0,268.88703)" d="M1696.48 129.699 1353.96 848.984 326.41 1499.77 1696.48 129.699Z" fill="#e6e6e6" fill-opacity=".5"/>
<path transform="matrix(.1,0,0,-.1,0,268.88703)" stroke-width="8" stroke-linecap="round" stroke-linejoin="round" fill="none" stroke="#000000" d="M1696.48 129.699 1353.96 848.984 326.41 1499.77 1696.48 129.699Z"/>
<path transform="matrix(.1,0,0,-.1,0,268.88703)" stroke-width="30" stroke-linecap="round" stroke-linejoin="round" fill="none" stroke="#000000" d="M1696.48 129.699V129.699"/>
<path transform="matrix(.1,0,0,-.1,0,268.88703)" stroke-width="30" stroke-linecap="round" stroke-linejoin="round" fill="none" stroke="#000000" d="M1353.96 848.984V848.984"/>
<path transform="matrix(.1,0,0,-.1,0,268.88703)" stroke-width="30" stroke-linecap="round" stroke-linejoin="round" fill="none" stroke="#000000" d="M326.41 1499.77V1499.77"/>
<path transform="matrix(.1,0,0,-.1,0,268.88703)" stroke-width="5" stroke-linecap="round" stroke-dasharray="39.1447,39.1447" stroke-linejoin="round" fill="none" stroke="#7f7f7f" d="M326.41 129.699H1696.48"/>
<path transform="matrix(.1,0,0,-.1,0,268.88703)" stroke-width="5" stroke-linecap="round" stroke-dasharray="40.4608,40.4608" stroke-linejoin="round" fill="none" stroke="#7f7f7f" d="M326.41 129.699 1353.96 848.984"/>
<path transform="matrix(.1,0,0,-.1,0,268.88703)" stroke-width="5" stroke-linecap="round" stroke-dasharray="39.1447,39.1447" stroke-linejoin="round" fill="none" stroke="#7f7f7f" d="M326.41 129.699V1499.77"/>
</g>
<use data-text="x" xlink:href="#font_2_1" transform="matrix(11.9552,0,0,-11.9552,275.999,260.19)"/>
<use data-text="&#x8f74;" xlink:href="#font_3_17828" transform="matrix(11.9552,0,0,-11.9552,286.549,260.19)"/>
<use data-text="y" xlink:href="#font_2_2" transform="matrix(11.9552,0,0,-11.9552,155.065,167.13202)"/>
<use data-text="&#x8f74;" xlink:href="#font_3_17828" transform="matrix(11.9552,0,0,-11.9552,165.099,167.13202)"/>
<use data-text="z" xlink:href="#font_2_3" transform="matrix(11.9552,0,0,-11.9552,21.729,11.298016)"/>
<use data-text="&#x8f74;" xlink:href="#font_3_17828" transform="matrix(11.9552,0,0,-11.9552,31.597,11.298016)"/>
<use data-text="(" xlink:href="#font_4_1" transform="matrix(9,0,0,-9,154.863,265.437)"/>
<use data-text="a" xlink:href="#font_5_2" transform="matrix(9,0,0,-9,158.461,265.437)"/>
<use data-text="," xlink:href="#font_5_1" transform="matrix(9,0,0,-9,163.357,265.437)"/>
<use data-text="0" xlink:href="#font_4_3" transform="matrix(9,0,0,-9,167.472,265.437)"/>
<use data-text="," xlink:href="#font_5_1" transform="matrix(9,0,0,-9,172.097,265.437)"/>
<use data-text="0" xlink:href="#font_4_3" transform="matrix(9,0,0,-9,176.20801,265.437)"/>
<use data-text=")" xlink:href="#font_4_2" transform="matrix(9,0,0,-9,180.825,265.437)"/>
<use data-text="(" xlink:href="#font_4_1" transform="matrix(9,0,0,-9,138.16501,186.23902)"/>
<use data-text="0" xlink:href="#font_4_3" transform="matrix(9,0,0,-9,141.75601,186.23902)"/>
<use data-text="," xlink:href="#font_5_1" transform="matrix(9,0,0,-9,146.387,186.23902)"/>
<use data-text="b" xlink:href="#font_5_3" transform="matrix(9,0,0,-9,150.491,186.23902)"/>
<use data-text="," xlink:href="#font_5_1" transform="matrix(9,0,0,-9,154.451,186.23902)"/>
<use data-text="0" xlink:href="#font_4_3" transform="matrix(9,0,0,-9,158.573,186.23902)"/>
<use data-text=")" xlink:href="#font_4_2" transform="matrix(9,0,0,-9,163.19,186.23902)"/>
<use data-text="(" xlink:href="#font_4_1" transform="matrix(9,0,0,-9,1.1989975,121.16101)"/>
<use data-text="0" xlink:href="#font_4_3" transform="matrix(9,0,0,-9,4.790001,121.16101)"/>
<use data-text="," xlink:href="#font_5_1" transform="matrix(9,0,0,-9,9.420998,121.16101)"/>
<use data-text="0" xlink:href="#font_4_3" transform="matrix(9,0,0,-9,13.532997,121.16101)"/>
<use data-text="," xlink:href="#font_5_1" transform="matrix(9,0,0,-9,18.156998,121.16101)"/>
<use data-text="c" xlink:href="#font_5_4" transform="matrix(9,0,0,-9,22.260998,121.16101)"/>
<use data-text=")" xlink:href="#font_4_2" transform="matrix(9,0,0,-9,26.272999,121.16101)"/>
<use data-text="&#x5e73;" xlink:href="#font_3_5283" transform="matrix(10,0,0,-10,104.844,171.807)"/>
<use data-text="&#x9762;" xlink:href="#font_3_19858" transform="matrix(10,0,0,-10,114.844,171.807)"/>
</svg>
