<svg xmlns="http://www.w3.org/2000/svg" xmlns:xlink="http://www.w3.org/1999/xlink" xmlns:inkscape="http://www.inkscape.org/namespaces/inkscape" version="1.1" width="300" height="279.69" viewBox="0 0 300 279.69">
<defs>
<clipPath id="clip_1">
<path transform="matrix(1,0,0,-1,0,279.693)" d="M0 0H300V279.69H0Z"/>
</clipPath>
<path id="font_2_1" d="M.47399903 .40820313C.44198609 .40219117 .42999269 .3781891 .42999269 .3591919 .42999269 .33518983 .44898988 .3271942 .46299745 .3271942 .49299623 .3271942 .5139923 .3531952 .5139923 .380188 .5139923 .4223938 .46598817 .44140626 .42399598 .44140626 .36299134 .44140626 .32899476 .38119508 .31999208 .36219789 .29699708 .4373932 .23498535 .44140626 .21699524 .44140626 .114990238 .44140626 .06098938 .31021119 .06098938 .28822328 .06098938 .28422547 .06498718 .27923585 .07199097 .27923585 .07998657 .27923585 .08198547 .28523255 .083999637 .2892151 .117996219 .40019227 .18499756 .42140199 .21398926 .42140199 .25898744 .42140199 .2679901 .37919618 .2679901 .3551941 .2679901 .33319093 .2619934 .31021119 .25 .26223756L.21598816 .12535095C.20098877 .06535339 .17199707 .010223389 .11898804 .010223389 .11399841 .010223389 .08898926 .010223389 .067993167 .023330689 .10398865 .03036499 .11199951 .06036377 .11199951 .07235718 .11199951 .09236145 .09700012 .10435486 .07798767 .10435486 .053985597 .10435486 .027999878 .083358768 .027999878 .051361085 .027999878 .009231567 .07499695-.009765625 .117996219-.009765625 .1659851-.009765625 .19999695 .028366089 .22099304 .069366458 .23699951 .010223389 .2869873-.009765625 .32398988-.009765625 .42599488-.009765625 .47999574 .12135315 .47999574 .1433258 .47999574 .14833069 .47599793 .15232849 .46998597 .15232849 .46099855 .15232849 .45999146 .14732361 .45700074 .139328 .42999269 .051361085 .37199403 .010223389 .32699586 .010223389 .2919922 .010223389 .272995 .036361696 .272995 .07736206 .272995 .099365238 .2769928 .115356449 .29299928 .18130493L.32798768 .3171997C.34298707 .37719728 .3769989 .42140199 .4229889 .42140199 .4249878 .42140199 .45298768 .42140199 .47399903 .40820313Z"/>
<path id="font_3_17828" d="M.70703127 .2890625V.046875H.84765627V.2890625H.70703127M.89453127 .046875C.89453127 .015625 .8958333-.014322917 .8984375-.04296875L.84765627-.06640625V.0234375H.5234375V-.05078125L.47265626-.0703125C.4752604 .013020833 .4765625 .12630208 .4765625 .26953126 .4765625 .4127604 .4752604 .52213546 .47265626 .59765627L.5234375 .56640627H.66015627C.66015627 .68359377 .6588542 .765625 .65625 .8125L.73828127 .7734375 .70703127 .74609377V.56640627H.84375L.8671875 .6015625 .92578127 .55859377 .89453127 .53515627V.046875M.5234375 .54296877V.3125H.66015627V.54296877H.5234375M.70703127 .54296877V.3125H.84765627V.54296877H.70703127M.5234375 .2890625V.046875H.66015627V.2890625H.5234375M.30078126 .17578125C.30078126 .05078125 .30208335-.033854169 .3046875-.078125L.25-.10546875C.25260417-.00390625 .25390626 .084635417 .25390626 .16015625 .17578125 .13151042 .12630208 .111979167 .10546875 .1015625L.08203125 .07421875 .0390625 .140625C.109375 .15364583 .18098958 .171875 .25390626 .1953125V.359375H.140625L.109375 .33984376 .0703125 .390625C.091145839 .40104167 .10872396 .42578126 .123046878 .46484376 .1373698 .50390627 .15494792 .55598959 .17578125 .62109377 .14713542 .62109377 .118489589 .6171875 .08984375 .609375L.0546875 .64453127H.18359375C.19401042 .68359377 .20182292 .7161458 .20703125 .7421875 .21223958 .7682292 .21614583 .7942708 .21875 .8203125L.296875 .7734375C.27864585 .7734375 .2578125 .7317708 .234375 .6484375H.34375L.390625 .6953125 .45703126 .625H.2265625L.140625 .3828125H.25390626C.25390626 .45572917 .25260417 .51953127 .25 .57421877L.33203126 .53125 .30078126 .5078125V.3828125H.3515625L.3984375 .4296875 .45703126 .359375H.30078126V.20703125L.44140626 .24609375 .4453125 .234375 .30078126 .17578125Z"/>
<path id="font_2_2" d="M.2630005-.11172485C.23599243-.14982605 .19699097-.18411255 .147995-.18411255 .13598633-.18411255 .08799744-.18209839 .07299805-.13572693 .07598877-.13671875 .08099365-.13671875 .08299255-.13671875 .11299133-.13671875 .1329956-.11073303 .1329956-.08772278 .1329956-.06472778 .11399841-.056732179 .09899902-.056732179 .08299255-.056732179 .04798889-.068725589 .04798889-.11772156 .04798889-.16899109 .09098816-.20410156 .147995-.20410156 .24798584-.20410156 .34899903-.11172485 .3769989-.00077819827L.47499085 .38868714C.47599793 .39367677 .47799684 .39967347 .47799684 .4056549 .47799684 .4206543 .46598817 .43066407 .45098878 .43066407 .44198609 .43066407 .42099 .426651 .41299439 .39666749L.33898927 .10308838C.33399964 .085113529 .33399964 .08312988 .32598878 .072143558 .30599977 .04423523 .272995 .010223389 .22499085 .010223389 .16899109 .010223389 .1639862 .06524658 .1639862 .09225464 .1639862 .14929199 .19099427 .22631836 .21798706 .2983551 .22898865 .32736207 .23498535 .34136964 .23498535 .3613739 .23498535 .4033966 .20498657 .44140626 .1559906 .44140626 .06399536 .44140626 .026992798 .29634095 .026992798 .28834535 .026992798 .28434754 .0309906 .27934266 .037994386 .27934266 .04699707 .27934266 .04798889 .28334046 .051986696 .29734803 .07598877 .38137818 .11399841 .42140199 .15299988 .42140199 .1619873 .42140199 .1789856 .42140199 .1789856 .38838197 .1789856 .36238099 .16799927 .33335877 .15299988 .29534913 .10398865 .16429138 .10398865 .13127136 .10398865 .10726929 .10398865 .01222229 .17199707-.009765625 .22200012-.009765625 .25099183-.009765625 .2869873-.00077819827 .32199098 .036239625L.32299806 .035232545C.30799867-.023757935 .2979889-.06272888 .2630005-.11172485Z"/>
<path id="font_2_3" d="M.1269989 .0814209C.16999817 .13038635 .20498657 .1613617 .25498963 .20631409 .31498719 .25828553 .34098817 .28326417 .35499574 .2982483 .4249878 .36721803 .45999146 .42539979 .45999146 .4333954 .45999146 .44140626 .45199586 .44140626 .44999696 .44140626 .44299317 .44140626 .44099427 .4373932 .43598939 .43040467 .41099549 .3874054 .3869934 .36621095 .36099244 .36621095 .33999635 .36621095 .32899476 .3753357 .30999757 .3993988 .2889862 .4243927 .27198792 .44140626 .24299622 .44140626 .16999817 .44140626 .12599182 .35020448 .12599182 .32922364 .12599182 .32621766 .1269989 .32022096 .13598633 .32022096 .14399719 .32022096 .14498902 .32421876 .147995 .33122254 .16499329 .37127687 .21299744 .37838746 .23199463 .37838746 .25299073 .37838746 .272995 .37127687 .2939911 .36219789 .33198548 .34620667 .34799195 .34620667 .35798646 .34620667 .36499024 .34620667 .36898805 .34620667 .37399293 .3471985 .34098817 .3082428 .2869873 .26026917 .24198914 .21931458L.14099121 .12638855C.07998657 .06440735 .042999269 .0052337648 .042999269-.0017700195 .042999269-.0077667238 .04798889-.009765625 .053985597-.009765625 .05999756-.009765625 .06098938-.008773804 .067993167 .0032196046 .083999637 .02822876 .115997318 .06542969 .15299988 .06542969 .17399597 .06542969 .18399048 .05831909 .20399475 .033233644 .22299195 .011230469 .23999024-.009765625 .27198792-.009765625 .36999513-.009765625 .42599488 .11740112 .42599488 .14038086 .42599488 .14437866 .4249878 .15037537 .4149933 .15037537 .40699769 .15037537 .4059906 .14637757 .40299989 .13638306 .3809967 .077423099 .32199098 .053237916 .2829895 .053237916 .2619934 .053237916 .24198914 .06034851 .22099304 .06942749 .18099976 .0854187 .16999817 .0854187 .15699768 .0854187 .14698792 .0854187 .13598633 .0854187 .1269989 .0814209Z"/>
<path id="font_4_8" d="M.08799744 .059265138C.084991458 .044265748 .07899475 .021255494 .07899475 .01625061 .07899475-.0017547608 .09298706-.0107421879 .10798645-.0107421879 .11999512-.0107421879 .13798523-.002746582 .14498902 .01725769 .1459961 .019256592 .1579895 .06626892 .1639862 .091278079L.18598938 .18130493C.19198609 .2033081 .19799805 .22531128 .20298767 .24832154 .20698548 .26531983 .21499634 .29434205 .21598816 .29833985 .23098755 .3293457 .28399659 .42037965 .3789978 .42037965 .42399598 .42037965 .43299867 .38336183 .43299867 .35035707 .43299867 .3253479 .42599488 .29733277 .41799928 .26733399L.3899994 .1512909 .36999513 .07527161C.3659973 .055267335 .35699464 .021255494 .35699464 .01625061 .35699464-.0017547608 .37098695-.0107421879 .38598634-.0107421879 .4169922-.0107421879 .4229889 .014251709 .43099977 .04626465 .44499208 .10227966 .48199464 .24832154 .4909973 .28733827 .49398805 .30033876 .5469971 .42037965 .6559906 .42037965 .69898989 .42037965 .70999148 .3863678 .70999148 .35035707 .70999148 .29333497 .66799929 .17930603 .647995 .12628174 .6389923 .10227966 .6349945 .091278079 .6349945 .0712738 .6349945 .024261475 .66999819-.0107421879 .71699526-.0107421879 .8109894-.0107421879 .84799197 .13528443 .84799197 .14329529 .84799197 .1532898 .83898928 .1532898 .83599856 .1532898 .82598879 .1532898 .82598879 .15029907 .82099917 .13528443 .80599978 .08227539 .7739868 .011245728 .71899417 .011245728 .70199587 .011245728 .69499209 .021255494 .69499209 .044265748 .69499209 .0692749 .70399478 .09327698 .71299746 .11528015 .7319946 .16729737 .7739868 .27833558 .7739868 .3353424 .7739868 .4003601 .73399356 .4423828 .6589966 .4423828 .58399966 .4423828 .5329895 .3983612 .49598695 .34535218 .49499513 .35835267 .49198915 .3923645 .46398927 .41636659 .43899537 .43737794 .40699769 .4423828 .38198854 .4423828 .2919922 .4423828 .24299622 .37835694 .22599793 .35534669 .22099304 .41236878 .1789856 .4423828 .13398743 .4423828 .08799744 .4423828 .068984989 .4033661 .05999756 .38536073 .041992189 .35035707 .0289917 .29133607 .0289917 .28833009 .0289917 .27833558 .038986207 .27833558 .040985109 .27833558 .050994874 .27833558 .051986696 .2793274 .057998659 .30133058 .07499695 .37236024 .09498596 .42037965 .1309967 .42037965 .14698792 .42037965 .1619873 .41236878 .1619873 .37435914 .1619873 .35334779 .15899658 .3423462 .1459961 .29032899L.08799744 .059265138Z"/>
<path id="font_4_2" d="M.37298585 .37835694C.35499574 .41537477 .32598878 .4423828 .2809906 .4423828 .1639862 .4423828 .039993287 .29533387 .039993287 .14929199 .039993287 .055267335 .09498596-.0107421879 .17298889-.0107421879 .19299317-.0107421879 .24299622-.0067443849 .30299378 .06427002 .31098939 .022247315 .34599305-.0107421879 .3939972-.0107421879 .42900086-.0107421879 .45199586 .012252808 .46798707 .044265748 .4850006 .08027649 .49798585 .14129639 .49798585 .14329529 .49798585 .1532898 .4889984 .1532898 .48599244 .1532898 .47599793 .1532898 .47499085 .14929199 .47200013 .13528443 .45498658 .07026672 .43699647 .011245728 .3959961 .011245728 .36898805 .011245728 .3659973 .037261964 .3659973 .057266237 .3659973 .07926941 .36799623 .08728027 .3789978 .13128662 .3899994 .17329407 .3919983 .18330384 .40098573 .22131348L.43699647 .36135865C.44400025 .38935853 .44400025 .39135743 .44400025 .39537049 .44400025 .41236878 .43199159 .42237855 .4149933 .42237855 .3909912 .42237855 .37599183 .4003601 .37298585 .37835694M.30799867 .119277957C.30299378 .10127258 .30299378 .09927368 .28799439 .08227539 .24398804 .027252198 .20298767 .011245728 .1749878 .011245728 .125 .011245728 .11099243 .06626892 .11099243 .105285648 .11099243 .1552887 .14299011 .27833558 .1659851 .32434083 .19699097 .38336183 .24198914 .42037965 .28199769 .42037965 .34700013 .42037965 .36099244 .3383484 .36099244 .33235169 .36099244 .32633973 .35899354 .32034303 .35798646 .31533814L.30799867 .119277957Z"/>
<path id="font_4_10" d="M.20599365 .3996582H.2999878C.31999208 .3996582 .32998658 .3996582 .32998658 .41966249 .32998658 .43066407 .31999208 .43066407 .3019867 .43066407H.21398926C.25 .5724945 .25498963 .59246829 .25498963 .59846499 .25498963 .61546328 .24299622 .62545779 .22599793 .62545779 .22299195 .62545779 .19499207 .62446597 .18598938 .58947756L.14698792 .43066407H.052993776C.032989503 .43066407 .022994996 .43066407 .022994996 .4116516 .022994996 .3996582 .0309906 .3996582 .050994874 .3996582H.13899231C.066986087 .11608887 .06298828 .099121097 .06298828 .08114624 .06298828 .02722168 .100997928-.0107421879 .15499878-.0107421879 .25698854-.0107421879 .31399537 .13505554 .31399537 .14305115 .31399537 .1530304 .30599977 .1530304 .3019867 .1530304 .29299928 .1530304 .2919922 .15003968 .2869873 .13905335 .24398804 .035217287 .19099427 .011245728 .15699768 .011245728 .13598633 .011245728 .12599182 .024230957 .12599182 .057174684 .12599182 .08114624 .12799073 .088134769 .13198853 .10510254L.20599365 .3996582Z"/>
<path id="font_4_6" d="M.2869873 .68333438C.2869873 .6843262 .2869873 .69433596 .27398683 .69433596 .25099183 .69433596 .17799378 .6863251 .1519928 .6843262 .14399719 .68333438 .1329956 .6823273 .1329956 .6643219 .1329956 .6523285 .14199829 .6523285 .15699768 .6523285 .20498657 .6523285 .20698548 .6453247 .20698548 .6353302L.20399475 .6153412 .05899048 .039260866C.054992677 .025253296 .054992677 .023254395 .054992677 .01725769 .054992677-.0057525637 .07499695-.0107421879 .083999637-.0107421879 .099990848-.0107421879 .115997318 .0012512207 .12098694 .015258789L.13999939 .091278079 .1619873 .18130493C.16799927 .2033081 .17399597 .22531128 .1789856 .24832154 .18099976 .25431825 .18899536 .28733827 .18998719 .29333497 .19299317 .30233766 .22399903 .35835267 .2579956 .38536073 .27999879 .4013672 .31098939 .42037965 .35398866 .42037965 .39698792 .42037965 .4079895 .3863678 .4079895 .35035707 .4079895 .29634095 .36999513 .18730164 .34599305 .12628174 .33799745 .103271488 .33299256 .091278079 .33299256 .0712738 .33299256 .024261475 .36799623-.0107421879 .4149933-.0107421879 .5089874-.0107421879 .54599 .13528443 .54599 .14329529 .54599 .1532898 .5369873 .1532898 .5339966 .1532898 .5239868 .1532898 .5239868 .15029907 .5189972 .13528443 .5039978 .08227539 .47200013 .011245728 .4169922 .011245728 .3999939 .011245728 .3929901 .021255494 .3929901 .044265748 .3929901 .0692749 .4019928 .09327698 .41099549 .11528015 .4269867 .15829468 .47200013 .2773285 .47200013 .3353424 .47200013 .4003601 .43199159 .4423828 .35699464 .4423828 .2939911 .4423828 .24598694 .41137696 .20899964 .36535646L.2869873 .68333438Z"/>
<path id="font_4_3" d="M.23899842 .68333438C.23899842 .6843262 .23899842 .69433596 .22599793 .69433596 .20298767 .69433596 .12998963 .6863251 .10398865 .6843262 .09599304 .68333438 .084991458 .6823273 .084991458 .6643219 .084991458 .6523285 .09399414 .6523285 .10899353 .6523285 .15699768 .6523285 .15899658 .6453247 .15899658 .6353302 .15899658 .6283264 .1499939 .5943451 .14498902 .573349L.06298828 .24731446C.050994874 .1973114 .04699707 .18130493 .04699707 .14628601 .04699707 .05126953 .099990848-.0107421879 .17399597-.0107421879 .2919922-.0107421879 .4149933 .1382904 .4149933 .28233338 .4149933 .37335206 .3619995 .4423828 .28199769 .4423828 .23599243 .4423828 .19499207 .41337586 .16499329 .38235475L.23899842 .68333438M.14498902 .30534364C.15098572 .3273468 .15098572 .3293457 .1599884 .3403473 .20899964 .405365 .2539978 .42037965 .27999879 .42037965 .31599427 .42037965 .34298707 .3903656 .34298707 .32633973 .34298707 .26733399 .30999757 .15229798 .2919922 .11428833 .25898744 .04725647 .21299744 .011245728 .17399597 .011245728 .13999939 .011245728 .10699463 .038253786 .10699463 .11227417 .10699463 .13128662 .10699463 .15029907 .12298584 .21331787L.14498902 .30534364Z"/>
<path id="font_4_5" d="M.36698915 .3996582H.45298768C.47299195 .3996582 .48298646 .3996582 .48298646 .41966249 .48298646 .43066407 .47299195 .43066407 .45599366 .43066407H.37298585L.3939972 .5449524C.397995 .5660095 .4119873 .6370239 .41799928 .6490326 .4269867 .66804507 .44400025 .68307498 .46499635 .68307498 .46899415 .68307498 .49499513 .68307498 .5139923 .66503909 .46998597 .661026 .45999146 .6260376 .45999146 .6110382 .45999146 .58802798 .47799684 .57603457 .49699403 .57603457 .522995 .57603457 .5519867 .5980377 .5519867 .6360321 .5519867 .6820679 .5059967 .7050781 .46499635 .7050781 .43099977 .7050781 .36799623 .68707278 .33799745 .58802798 .33198548 .56700137 .32899476 .5569763 .30499269 .43066407H.23599243C.21699524 .43066407 .20599365 .43066407 .20599365 .4116516 .20599365 .3996582 .21499634 .3996582 .23399353 .3996582H.2999878L.22499085 .0048828127C.20698548-.09207153 .18998719-.18309021 .13798523-.18309021 .13398743-.18309021 .10899353-.18309021 .08999634-.16506958 .13598633-.1620636 .14498902-.12606812 .14498902-.111068729 .14498902-.08807373 .1269989-.07606506 .10798645-.07606506 .08198547-.07606506 .052993776-.09806824 .052993776-.13606262 .052993776-.18109131 .09700012-.20507813 .13798523-.20507813 .19299317-.20507813 .23298645-.14607239 .25099183-.108062747 .2829895-.04508972 .30599977 .07583618 .30699159 .082839969L.36698915 .3996582Z"/>
<path id="font_4_9" d="M.08799744 .059265138C.084991458 .044265748 .07899475 .021255494 .07899475 .01625061 .07899475-.0017547608 .09298706-.0107421879 .10798645-.0107421879 .11999512-.0107421879 .13798523-.002746582 .14498902 .01725769 .1459961 .019256592 .1579895 .06626892 .1639862 .091278079L.18598938 .18130493C.19198609 .2033081 .19799805 .22531128 .20298767 .24832154 .20698548 .26531983 .21499634 .29434205 .21598816 .29833985 .23098755 .3293457 .28399659 .42037965 .3789978 .42037965 .42399598 .42037965 .43299867 .38336183 .43299867 .35035707 .43299867 .28833009 .38398744 .16029358 .36799623 .11727905 .35899354 .0942688 .35798646 .08227539 .35798646 .0712738 .35798646 .024261475 .3929901-.0107421879 .43998719-.0107421879 .5339966-.0107421879 .57099917 .13528443 .57099917 .14329529 .57099917 .1532898 .56199648 .1532898 .5589905 .1532898 .548996 .1532898 .548996 .15029907 .5439911 .13528443 .5239868 .06726074 .4909973 .011245728 .44198609 .011245728 .4249878 .011245728 .41799928 .021255494 .41799928 .044265748 .41799928 .0692749 .4269867 .09327698 .43598939 .11528015 .45498658 .16830445 .49699403 .27833558 .49699403 .3353424 .49699403 .40237428 .45399476 .4423828 .38198854 .4423828 .2919922 .4423828 .24299622 .37835694 .22599793 .35534669 .22099304 .41137696 .17999268 .4423828 .13398743 .4423828 .08799744 .4423828 .068984989 .4033661 .05899048 .38536073 .042999269 .35134889 .0289917 .29232789 .0289917 .28833009 .0289917 .27833558 .038986207 .27833558 .040985109 .27833558 .050994874 .27833558 .051986696 .2793274 .057998659 .30133058 .07499695 .37236024 .09498596 .42037965 .1309967 .42037965 .15098572 .42037965 .1619873 .4073639 .1619873 .37435914 .1619873 .35334779 .15899658 .3423462 .1459961 .29032899L.08799744 .059265138Z"/>
<path id="font_5_1" d="M.33499146 .63612368C.33499146 .6630554 .33299256 .6640625 .30499269 .6640625 .24099732 .6014404 .1499939 .6004486 .10899353 .6004486V.5644531C.1329956 .5644531 .19898987 .5644531 .2539978 .592453V.08203125C.2539978 .04899597 .2539978 .035995485 .1539917 .035995485H.115997318V0C.13398743 .0009918213 .25698854 .0039978029 .2939911 .0039978029 .32499696 .0039978029 .45098878 .0009918213 .47299195 0V.035995485H.43499757C.33499146 .035995485 .33499146 .04899597 .33499146 .08203125V.63612368Z"/>
<path id="font_5_2" d="M.5049896 .18203736H.47099305C.46798707 .16001892 .45799256 .100997928 .44499208 .09098816 .43699647 .084991458 .3600006 .084991458 .34599305 .084991458H.1619873C.2669983 .17803955 .3019867 .20603943 .3619995 .25306703 .43598939 .312088 .5049896 .374115 .5049896 .46914674 .5049896 .5900879 .39898683 .6640625 .2709961 .6640625 .14698792 .6640625 .06298828 .57710269 .06298828 .4851532 .06298828 .43414308 .10598755 .42915345 .115997318 .42915345 .13999939 .42915345 .16899109 .44615174 .16899109 .48214723 .16899109 .5001526 .1619873 .53515627 .10998535 .53515627 .14099121 .6060791 .20899964 .62805178 .2559967 .62805178 .35598756 .62805178 .4079895 .5501404 .4079895 .46914674 .4079895 .38212586 .34599305 .3130951 .31399537 .27708436L.07299805 .038986207C.06298828 .02999878 .06298828 .027999878 .06298828 0H.47499085L.5049896 .18203736Z"/>
<path id="font_4_4" d="M.18699646 .23144531C.21598816 .23144531 .2899933 .23344422 .33999635 .2544403 .4099884 .28442384 .4149933 .34339906 .4149933 .35740663 .4149933 .40138246 .3769989 .4423828 .30799867 .4423828 .19699097 .4423828 .04598999 .34539796 .04598999 .17037964 .04598999 .06829834 .10499573-.0107421879 .20298767-.0107421879 .34599305-.0107421879 .42999269 .095321658 .42999269 .10733032 .42999269 .113342288 .42399598 .12034607 .41799928 .12034607 .41299439 .12034607 .41099549 .11834717 .40499879 .1103363 .32598878 .011245728 .21699524 .011245728 .20498657 .011245728 .1269989 .011245728 .117996219 .095321658 .117996219 .12734986 .117996219 .13935852 .11898804 .17037964 .13398743 .23144531H.18699646M.13999939 .25343324C.1789856 .40538026 .28199769 .42037965 .30799867 .42037965 .35499574 .42037965 .38198854 .39138795 .38198854 .35740663 .38198854 .25343324 .22200012 .25343324 .18099976 .25343324H.13999939Z"/>
<path id="font_4_1" d="M.30299378 .3157959H.47299195C.61499026 .3157959 .7539978 .41973878 .7539978 .53167727 .7539978 .6086273 .6879883 .6826172 .5569916 .6826172H.23298645C.21398926 .6826172 .20298767 .6826172 .20298767 .66360476 .20298767 .6516113 .21199036 .6516113 .23199463 .6516113 .24499512 .6516113 .2630005 .65060427 .2749939 .6496124 .29100038 .6476135 .29699708 .64460757 .29699708 .6336212 .29699708 .6296234 .29599 .62661746 .29299928 .614624L.15899658 .07795715C.14898682 .038986207 .14698792 .0309906 .067993167 .0309906 .050994874 .0309906 .039993287 .0309906 .039993287 .011993408 .039993287 0 .051986696 0 .054992677 0 .08299255 0 .1539917 .0029907227 .18199158 .0029907227 .20298767 .0029907227 .22499085 .0019989014 .24598694 .0019989014 .2679901 .0019989014 .2899933 0 .31098939 0 .31799317 0 .33099366 0 .33099366 .019989014 .33099366 .0309906 .32199098 .0309906 .30299378 .0309906 .2659912 .0309906 .23799134 .0309906 .23799134 .048980714 .23799134 .054977418 .23999024 .05996704 .24099732 .065963748L.30299378 .3157959M.375 .6136322C.38398744 .64860537 .38598634 .6516113 .42900086 .6516113H.5249939C.60798647 .6516113 .6609955 .62461856 .6609955 .55566409 .6609955 .5166931 .6409912 .43074037 .60198977 .39476014 .5519867 .34977723 .49198915 .34179688 .44799806 .34179688H.30699159L.375 .6136322Z"/>
<path id="font_4_7" d="M.28399659 .6252594C.28399659 .6452637 .269989 .6612549 .24699402 .6612549 .21998596 .6612549 .19299317 .6352539 .19299317 .6082611 .19299317 .5892639 .20698548 .5722656 .23098755 .5722656 .2539978 .5722656 .28399659 .5952606 .28399659 .6252594M.20799256 .24932862C.21998596 .27833558 .21998596 .28033448 .22999573 .30734254 .23799134 .3273468 .24299622 .34135438 .24299622 .36035157 .24299622 .405365 .21099854 .4423828 .16099549 .4423828 .066986087 .4423828 .0289917 .29733277 .0289917 .28833009 .0289917 .27833558 .038986207 .27833558 .040985109 .27833558 .050994874 .27833558 .051986696 .28033448 .056991579 .29634095 .083999637 .3903656 .12399292 .42037965 .1579895 .42037965 .1659851 .42037965 .18299866 .42037965 .18299866 .3883667 .18299866 .36735536 .17599488 .346344 .17199707 .3363495 .1639862 .31033326 .11898804 .19430542 .102996829 .1512909 .09298706 .12528992 .07998657 .0922699 .07998657 .0712738 .07998657 .024261475 .11399841-.0107421879 .1619873-.0107421879 .2559967-.0107421879 .29299928 .1342926 .29299928 .14329529 .29299928 .1532898 .28399659 .1532898 .2809906 .1532898 .2709961 .1532898 .2709961 .15029907 .2659912 .13528443 .24798584 .072265628 .21499634 .011245728 .1639862 .011245728 .14698792 .011245728 .13999939 .021255494 .13999939 .044265748 .13999939 .0692749 .1459961 .08326721 .16899109 .14428711L.20799256 .24932862Z"/>
<path id="font_3_1236" d="M.41015626 .80859377 .421875 .8203125C.5052083 .7786458 .54752609 .74609377 .5488281 .72265627 .5501302 .69921877 .5449219 .6822917 .5332031 .671875 .5214844 .6614583 .51432296 .65625 .51171877 .65625 .50130209 .65625 .4921875 .66796877 .484375 .69140627 .47135417 .72526046 .4466146 .76432296 .41015626 .80859377M.05859375 .6484375H.79296877L.85546877 .7109375 .94140627 .625H.18359375C.15234375 .625 .122395839 .62109377 .09375 .61328127L.05859375 .6484375M.3359375 .6015625 .40625 .5390625 .3671875 .52734377C.25260417 .4231771 .15494792 .35546876 .07421875 .32421876L.0703125 .3359375C.13541667 .38020835 .19270833 .4283854 .2421875 .48046876 .29166667 .53255209 .32291667 .5729167 .3359375 .6015625M.59765627 .57421877 .60546877 .58984377C.69661459 .54817709 .7623698 .51432296 .8027344 .48828126 .84309896 .4622396 .86328127 .4361979 .86328127 .41015626 .86328127 .40234376 .86002609 .390625 .8535156 .375 .8470052 .359375 .8411458 .3515625 .8359375 .3515625 .828125 .3515625 .81901046 .3606771 .80859377 .37890626 .78776046 .41015626 .7623698 .44010417 .7324219 .46875 .70247396 .49739585 .65755209 .53255209 .59765627 .57421877M.7109375 .40625 .671875 .38671876C.6223958 .2747396 .57161459 .19140625 .51953127 .13671875 .63151046 .03515625 .77734377-.01171875 .95703127-.00390625V-.015625C.91536459-.033854169 .89192709-.055989583 .88671877-.08203125 .71223959-.055989583 .5807292 .0052083337 .4921875 .1015625 .3828125 .010416667 .24088542-.0546875 .06640625-.09375L.0625-.078125C.22395833-.028645834 .35677085 .04296875 .4609375 .13671875 .40625 .21484375 .359375 .31640626 .3203125 .44140626L.3359375 .4453125C.3828125 .33333335 .43489585 .2421875 .4921875 .171875 .546875 .2421875 .58984377 .33854167 .62109377 .4609375L.7109375 .40625Z"/>
<path id="font_3_13551" d="M.609375 .53125C.609375 .49479167 .6119792 .4466146 .6171875 .38671876L.80078127 .40625 .8515625 .46484376 .9296875 .3984375 .62109377 .3671875C.62890627 .28645835 .64192709 .22265625 .66015627 .17578125 .71744796 .22786458 .7630208 .2825521 .796875 .33984376L.8671875 .26953126 .83203127 .265625C.78255209 .21875 .73307296 .171875 .68359377 .125 .73046877 .059895833 .78515627 .014322917 .84765627-.01171875L.90234377 .17578125 .91796877 .171875C.91276046 .111979167 .9095052 .0625 .9082031 .0234375 .90690109-.015625 .91276046-.046875 .92578127-.0703125 .92838546-.075520839 .9296875-.079427089 .9296875-.08203125 .9296875-.092447917 .9160156-.095703128 .8886719-.091796878 .8613281-.087890628 .8248698-.072265628 .7792969-.044921876 .73372396-.017578125 .6875 .026041666 .640625 .0859375 .59375 .0546875 .54622396 .028645834 .49804688 .0078125 .44986979-.013020833 .3893229-.033854169 .31640626-.0546875L.3125-.0390625C.42447917 .0026041668 .52473959 .059895833 .61328127 .1328125 .58984377 .203125 .57421877 .27864585 .56640627 .359375L.40625 .33984376 .375 .32421876 .33203126 .35546876 .5625 .37890626C.5598958 .4153646 .5572917 .46484376 .5546875 .52734377L.44140626 .51953127 .41796876 .50390627 .3828125 .53515627 .5546875 .546875C.5520833 .6380208 .5494792 .7291667 .546875 .8203125L.63671877 .77734377 .60546877 .75C.60546877 .6953125 .6067708 .62890627 .609375 .55078127L.77734377 .56640627 .828125 .625 .90625 .5546875 .609375 .53125M.66796877 .75390627 .671875 .765625C.7526042 .7447917 .796875 .72721359 .8046875 .7128906 .8125 .6985677 .81640627 .68619796 .81640627 .67578127 .81640627 .66276046 .81380209 .64973959 .80859377 .63671877 .80338546 .62369796 .79817709 .6171875 .79296877 .6171875 .78776046 .6171875 .77994796 .6276042 .76953127 .6484375 .75130209 .6770833 .71744796 .71223959 .66796877 .75390627M.23828125 .8046875 .31640626 .75390627C.2955729 .74609377 .2734375 .72005209 .25 .67578127 .2265625 .62890627 .18359375 .5625 .12109375 .4765625L.28125 .4921875C.3125 .5442708 .3372396 .5963542 .35546876 .6484375L.42578126 .59765627C.4075521 .58723959 .3763021 .5494792 .33203126 .484375 .2877604 .41927085 .23046875 .34114585 .16015625 .25 .19661458 .25520835 .27734376 .26953126 .40234376 .29296876V.27734376C.33203126 .2591146 .27734376 .24283855 .23828125 .22851563 .19921875 .2141927 .16015625 .19401042 .12109375 .16796875L.07421875 .25C.102864589 .2578125 .1360677 .28580729 .17382813 .33398438 .21158855 .38216148 .24479167 .4296875 .2734375 .4765625 .24479167 .47135417 .21484375 .46419273 .18359375 .45507813 .15234375 .44596354 .123697917 .4296875 .09765625 .40625L.0546875 .48046876C.083333339 .4856771 .11653646 .52278646 .15429688 .5917969 .1920573 .6608073 .22005208 .7317708 .23828125 .8046875M.05078125 .05859375C.123697917 .069010417 .18229167 .078125 .2265625 .0859375 .27083335 .09375 .3424479 .108072917 .44140626 .12890625L.4453125 .11328125C.328125 .079427089 .24283855 .052734376 .18945313 .033203126 .1360677 .013671875 .102864589-.0026041668 .08984375-.015625L.05078125 .05859375Z"/>
</defs>
<g clip-path="url(#clip_1)">
<path transform="matrix(.1,0,0,-.1,0,279.693)" stroke-width="5" stroke-linecap="round" stroke-linejoin="round" fill="none" stroke="#000000" d="M2562.01 122.316H124.07"/>
<path transform="matrix(.1,0,0,-.1,0,279.693)" d="M2637.01 122.316 2562.01 142.414V102.223L2637.01 122.316Z"/>
<path transform="matrix(.1,0,0,-.1,0,279.693)" stroke-width="5" stroke-linecap="round" stroke-linejoin="round" fill="none" stroke="#000000" d="M2637.01 122.316 2562.01 142.414V102.223L2637.01 122.316Z"/>
<path transform="matrix(.1,0,0,-.1,0,279.693)" stroke-width="5" stroke-linecap="round" stroke-linejoin="round" fill="none" stroke="#000000" d="M1319.1 958.836 124.07 122.316"/>
<path transform="matrix(.1,0,0,-.1,0,279.693)" d="M1380.54 1001.84 1307.57 975.301 1330.62 942.371 1380.54 1001.84Z"/>
<path transform="matrix(.1,0,0,-.1,0,279.693)" stroke-width="5" stroke-linecap="round" stroke-linejoin="round" fill="none" stroke="#000000" d="M1380.54 1001.84 1307.57 975.301 1330.62 942.371 1380.54 1001.84Z"/>
<path transform="matrix(.1,0,0,-.1,0,279.693)" stroke-width="5" stroke-linecap="round" stroke-linejoin="round" fill="none" stroke="#000000" d="M124.07 2560.25V122.316"/>
<path transform="matrix(.1,0,0,-.1,0,279.693)" d="M124.07 2635.25 103.977 2560.25H144.168L124.07 2635.25Z"/>
<path transform="matrix(.1,0,0,-.1,0,279.693)" stroke-width="5" stroke-linecap="round" stroke-linejoin="round" fill="none" stroke="#000000" d="M124.07 2635.25 103.977 2560.25H144.168L124.07 2635.25Z"/>
<path transform="matrix(.1,0,0,-.1,0,279.693)" d="M124.07 122.316H2278.02L2996 624.906H842.055L124.07 122.316" fill="#d9d9ff" fill-opacity=".5"/>
<path transform="matrix(.1,0,0,-.1,0,279.693)" stroke-width="8" stroke-linecap="round" stroke-linejoin="round" fill="none" stroke="#0000ff" d="M124.07 122.316H2278.02L2996 624.906H842.055L124.07 122.316Z"/>
<path transform="matrix(.1,0,0,-.1,0,279.693)" d="M124.07 122.316H2278.02V1558.28H124.07V122.316" fill="#ffd9d9" fill-opacity=".5"/>
<path transform="matrix(.1,0,0,-.1,0,279.693)" stroke-width="8" stroke-linecap="round" stroke-linejoin="round" fill="none" stroke="#ff0000" d="M124.07 122.316H2278.02V1558.28H124.07V122.316Z"/>
<path transform="matrix(.1,0,0,-.1,0,279.693)" stroke-width="12" stroke-linecap="round" stroke-linejoin="round" fill="none" stroke="#000000" d="M124.07 122.316H2278.02"/>
<path transform="matrix(.1,0,0,-.1,0,279.693)" stroke-width="12" stroke-linecap="round" stroke-linejoin="round" fill="none" stroke="#0000ff" d="M1560.04 1055.19V373.609"/>
<path transform="matrix(.1,0,0,-.1,0,279.693)" d="M1560.04 1235.19 1511.8 1055.19H1608.27L1560.04 1235.19Z" fill="#0000ff"/>
<path transform="matrix(.1,0,0,-.1,0,279.693)" stroke-width="12" stroke-linecap="round" stroke-linejoin="round" fill="none" stroke="#0000ff" d="M1560.04 1235.19 1511.8 1055.19H1608.27L1560.04 1235.19Z"/>
<path transform="matrix(.1,0,0,-.1,0,279.693)" stroke-width="12" stroke-linecap="round" stroke-linejoin="round" fill="none" stroke="#ff0000" d="M1484.37 1038.63 1201.04 840.301"/>
<path transform="matrix(.1,0,0,-.1,0,279.693)" d="M1631.83 1141.85 1456.71 1078.14 1512.03 999.117 1631.83 1141.85Z" fill="#ff0000"/>
<path transform="matrix(.1,0,0,-.1,0,279.693)" stroke-width="12" stroke-linecap="round" stroke-linejoin="round" fill="none" stroke="#ff0000" d="M1631.83 1141.85 1456.71 1078.14 1512.03 999.117 1631.83 1141.85Z"/>
<path transform="matrix(.1,0,0,-.1,0,279.693)" stroke-width="8" stroke-linecap="round" stroke-linejoin="round" fill="none" stroke="#000000" d="M1432.41 927.07C1394.32 942.867 1352.55 951.586 1308.74 951.586 1130.3 951.586 985.648 806.934 985.648 628.496 985.648 450.055 1130.3 305.402 1308.74 305.402 1487.18 305.402 1631.83 450.055 1631.83 628.496 1631.83 743.664 1571.57 844.762 1480.86 901.973"/>
</g>
<use data-text="x" xlink:href="#font_2_1" transform="matrix(11.9552,0,0,-11.9552,267.298,271.735)"/>
<use data-text="&#x8f74;" xlink:href="#font_3_17828" transform="matrix(11.9552,0,0,-11.9552,277.847,271.735)"/>
<use data-text="y" xlink:href="#font_2_2" transform="matrix(11.9552,0,0,-11.9552,140.597,174.64)"/>
<use data-text="&#x8f74;" xlink:href="#font_3_17828" transform="matrix(11.9552,0,0,-11.9552,150.631,174.64)"/>
<use data-text="z" xlink:href="#font_2_3" transform="matrix(11.9552,0,0,-11.9552,1.4950028,11.309998)"/>
<use data-text="&#x8f74;" xlink:href="#font_3_17828" transform="matrix(11.9552,0,0,-11.9552,11.363003,11.308998)"/>
<use data-text="m" xlink:href="#font_4_8" transform="matrix(10,0,0,-10,159.05301,158.674)"/>
<use data-text="a" xlink:href="#font_4_2" transform="matrix(10,0,0,-10,167.83301,158.674)"/>
<use data-text="t" xlink:href="#font_4_10" transform="matrix(10,0,0,-10,173.113,158.674)"/>
<use data-text="h" xlink:href="#font_4_6" transform="matrix(10,0,0,-10,176.72299,158.674)"/>
<use data-text="b" xlink:href="#font_4_3" transform="matrix(10,0,0,-10,182.483,158.674)"/>
<use data-text="f" xlink:href="#font_4_5" transform="matrix(10,0,0,-10,186.77301,158.674)"/>
<use data-text="n" xlink:href="#font_4_9" transform="matrix(10,0,0,-10,192.733,158.674)"/>
<use data-text="1" xlink:href="#font_5_1" transform="matrix(7,0,0,-7,198.758,160.174)"/>
<use data-text="m" xlink:href="#font_4_8" transform="matrix(10,0,0,-10,141.088,160.514)"/>
<use data-text="a" xlink:href="#font_4_2" transform="matrix(10,0,0,-10,149.868,160.514)"/>
<use data-text="t" xlink:href="#font_4_10" transform="matrix(10,0,0,-10,155.148,160.514)"/>
<use data-text="h" xlink:href="#font_4_6" transform="matrix(10,0,0,-10,158.758,160.514)"/>
<use data-text="b" xlink:href="#font_4_3" transform="matrix(10,0,0,-10,164.518,160.514)"/>
<use data-text="f" xlink:href="#font_4_5" transform="matrix(10,0,0,-10,168.808,160.514)"/>
<use data-text="n" xlink:href="#font_4_9" transform="matrix(10,0,0,-10,174.768,160.514)"/>
<use data-text="2" xlink:href="#font_5_2" transform="matrix(7,0,0,-7,180.793,162.014)"/>
<use data-text="t" xlink:href="#font_4_10" transform="matrix(10,0,0,-10,139.19699,182.04999)"/>
<use data-text="h" xlink:href="#font_4_6" transform="matrix(10,0,0,-10,142.807,182.04999)"/>
<use data-text="e" xlink:href="#font_4_4" transform="matrix(10,0,0,-10,148.567,182.04999)"/>
<use data-text="t" xlink:href="#font_4_10" transform="matrix(10,0,0,-10,153.21701,182.04999)"/>
<use data-text="a" xlink:href="#font_4_2" transform="matrix(10,0,0,-10,156.827,182.04999)"/>
<use data-text="P" xlink:href="#font_4_1" transform="matrix(10,0,0,-10,237.881,232.43399)"/>
<use data-text="i" xlink:href="#font_4_7" transform="matrix(10,0,0,-10,245.681,232.43399)"/>
<use data-text="1" xlink:href="#font_5_1" transform="matrix(7,0,0,-7,249.136,233.93399)"/>
<use data-text="P" xlink:href="#font_4_1" transform="matrix(10,0,0,-10,184.03299,162.431)"/>
<use data-text="i" xlink:href="#font_4_7" transform="matrix(10,0,0,-10,191.833,162.431)"/>
<use data-text="2" xlink:href="#font_5_2" transform="matrix(7,0,0,-7,195.28699,163.931)"/>
<use data-text="&#x4ea4;" xlink:href="#font_3_1236" transform="matrix(9,0,0,-9,111.104007,277.614)"/>
<use data-text="&#x7ebf;" xlink:href="#font_3_13551" transform="matrix(9,0,0,-9,120.104007,277.614)"/>
</svg>
