<svg xmlns="http://www.w3.org/2000/svg" xmlns:xlink="http://www.w3.org/1999/xlink" xmlns:inkscape="http://www.inkscape.org/namespaces/inkscape" version="1.1" width="300" height="283.19" viewBox="0 0 300 283.19">
<defs>
<clipPath id="clip_1">
<path transform="matrix(1,0,0,-1,0,283.193)" d="M0 0H300V283.19H0Z"/>
</clipPath>
<path id="font_2_1" d="M.47399903 .40820313C.44198609 .40219117 .42999269 .3781891 .42999269 .3591919 .42999269 .33518983 .44898988 .3271942 .46299745 .3271942 .49299623 .3271942 .5139923 .3531952 .5139923 .380188 .5139923 .4223938 .46598817 .44140626 .42399598 .44140626 .36299134 .44140626 .32899476 .38119508 .31999208 .36219789 .29699708 .4373932 .23498535 .44140626 .21699524 .44140626 .114990238 .44140626 .06098938 .31021119 .06098938 .28822328 .06098938 .28422547 .06498718 .27923585 .07199097 .27923585 .07998657 .27923585 .08198547 .28523255 .083999637 .2892151 .117996219 .40019227 .18499756 .42140199 .21398926 .42140199 .25898744 .42140199 .2679901 .37919618 .2679901 .3551941 .2679901 .33319093 .2619934 .31021119 .25 .26223756L.21598816 .12535095C.20098877 .06535339 .17199707 .010223389 .11898804 .010223389 .11399841 .010223389 .08898926 .010223389 .067993167 .023330689 .10398865 .03036499 .11199951 .06036377 .11199951 .07235718 .11199951 .09236145 .09700012 .10435486 .07798767 .10435486 .053985597 .10435486 .027999878 .083358768 .027999878 .051361085 .027999878 .009231567 .07499695-.009765625 .117996219-.009765625 .1659851-.009765625 .19999695 .028366089 .22099304 .069366458 .23699951 .010223389 .2869873-.009765625 .32398988-.009765625 .42599488-.009765625 .47999574 .12135315 .47999574 .1433258 .47999574 .14833069 .47599793 .15232849 .46998597 .15232849 .46099855 .15232849 .45999146 .14732361 .45700074 .139328 .42999269 .051361085 .37199403 .010223389 .32699586 .010223389 .2919922 .010223389 .272995 .036361696 .272995 .07736206 .272995 .099365238 .2769928 .115356449 .29299928 .18130493L.32798768 .3171997C.34298707 .37719728 .3769989 .42140199 .4229889 .42140199 .4249878 .42140199 .45298768 .42140199 .47399903 .40820313Z"/>
<path id="font_3_17828" d="M.70703127 .2890625V.046875H.84765627V.2890625H.70703127M.89453127 .046875C.89453127 .015625 .8958333-.014322917 .8984375-.04296875L.84765627-.06640625V.0234375H.5234375V-.05078125L.47265626-.0703125C.4752604 .013020833 .4765625 .12630208 .4765625 .26953126 .4765625 .4127604 .4752604 .52213546 .47265626 .59765627L.5234375 .56640627H.66015627C.66015627 .68359377 .6588542 .765625 .65625 .8125L.73828127 .7734375 .70703127 .74609377V.56640627H.84375L.8671875 .6015625 .92578127 .55859377 .89453127 .53515627V.046875M.5234375 .54296877V.3125H.66015627V.54296877H.5234375M.70703127 .54296877V.3125H.84765627V.54296877H.70703127M.5234375 .2890625V.046875H.66015627V.2890625H.5234375M.30078126 .17578125C.30078126 .05078125 .30208335-.033854169 .3046875-.078125L.25-.10546875C.25260417-.00390625 .25390626 .084635417 .25390626 .16015625 .17578125 .13151042 .12630208 .111979167 .10546875 .1015625L.08203125 .07421875 .0390625 .140625C.109375 .15364583 .18098958 .171875 .25390626 .1953125V.359375H.140625L.109375 .33984376 .0703125 .390625C.091145839 .40104167 .10872396 .42578126 .123046878 .46484376 .1373698 .50390627 .15494792 .55598959 .17578125 .62109377 .14713542 .62109377 .118489589 .6171875 .08984375 .609375L.0546875 .64453127H.18359375C.19401042 .68359377 .20182292 .7161458 .20703125 .7421875 .21223958 .7682292 .21614583 .7942708 .21875 .8203125L.296875 .7734375C.27864585 .7734375 .2578125 .7317708 .234375 .6484375H.34375L.390625 .6953125 .45703126 .625H.2265625L.140625 .3828125H.25390626C.25390626 .45572917 .25260417 .51953127 .25 .57421877L.33203126 .53125 .30078126 .5078125V.3828125H.3515625L.3984375 .4296875 .45703126 .359375H.30078126V.20703125L.44140626 .24609375 .4453125 .234375 .30078126 .17578125Z"/>
<path id="font_2_2" d="M.2630005-.11172485C.23599243-.14982605 .19699097-.18411255 .147995-.18411255 .13598633-.18411255 .08799744-.18209839 .07299805-.13572693 .07598877-.13671875 .08099365-.13671875 .08299255-.13671875 .11299133-.13671875 .1329956-.11073303 .1329956-.08772278 .1329956-.06472778 .11399841-.056732179 .09899902-.056732179 .08299255-.056732179 .04798889-.068725589 .04798889-.11772156 .04798889-.16899109 .09098816-.20410156 .147995-.20410156 .24798584-.20410156 .34899903-.11172485 .3769989-.00077819827L.47499085 .38868714C.47599793 .39367677 .47799684 .39967347 .47799684 .4056549 .47799684 .4206543 .46598817 .43066407 .45098878 .43066407 .44198609 .43066407 .42099 .426651 .41299439 .39666749L.33898927 .10308838C.33399964 .085113529 .33399964 .08312988 .32598878 .072143558 .30599977 .04423523 .272995 .010223389 .22499085 .010223389 .16899109 .010223389 .1639862 .06524658 .1639862 .09225464 .1639862 .14929199 .19099427 .22631836 .21798706 .2983551 .22898865 .32736207 .23498535 .34136964 .23498535 .3613739 .23498535 .4033966 .20498657 .44140626 .1559906 .44140626 .06399536 .44140626 .026992798 .29634095 .026992798 .28834535 .026992798 .28434754 .0309906 .27934266 .037994386 .27934266 .04699707 .27934266 .04798889 .28334046 .051986696 .29734803 .07598877 .38137818 .11399841 .42140199 .15299988 .42140199 .1619873 .42140199 .1789856 .42140199 .1789856 .38838197 .1789856 .36238099 .16799927 .33335877 .15299988 .29534913 .10398865 .16429138 .10398865 .13127136 .10398865 .10726929 .10398865 .01222229 .17199707-.009765625 .22200012-.009765625 .25099183-.009765625 .2869873-.00077819827 .32199098 .036239625L.32299806 .035232545C.30799867-.023757935 .2979889-.06272888 .2630005-.11172485Z"/>
<path id="font_2_3" d="M.1269989 .0814209C.16999817 .13038635 .20498657 .1613617 .25498963 .20631409 .31498719 .25828553 .34098817 .28326417 .35499574 .2982483 .4249878 .36721803 .45999146 .42539979 .45999146 .4333954 .45999146 .44140626 .45199586 .44140626 .44999696 .44140626 .44299317 .44140626 .44099427 .4373932 .43598939 .43040467 .41099549 .3874054 .3869934 .36621095 .36099244 .36621095 .33999635 .36621095 .32899476 .3753357 .30999757 .3993988 .2889862 .4243927 .27198792 .44140626 .24299622 .44140626 .16999817 .44140626 .12599182 .35020448 .12599182 .32922364 .12599182 .32621766 .1269989 .32022096 .13598633 .32022096 .14399719 .32022096 .14498902 .32421876 .147995 .33122254 .16499329 .37127687 .21299744 .37838746 .23199463 .37838746 .25299073 .37838746 .272995 .37127687 .2939911 .36219789 .33198548 .34620667 .34799195 .34620667 .35798646 .34620667 .36499024 .34620667 .36898805 .34620667 .37399293 .3471985 .34098817 .3082428 .2869873 .26026917 .24198914 .21931458L.14099121 .12638855C.07998657 .06440735 .042999269 .0052337648 .042999269-.0017700195 .042999269-.0077667238 .04798889-.009765625 .053985597-.009765625 .05999756-.009765625 .06098938-.008773804 .067993167 .0032196046 .083999637 .02822876 .115997318 .06542969 .15299988 .06542969 .17399597 .06542969 .18399048 .05831909 .20399475 .033233644 .22299195 .011230469 .23999024-.009765625 .27198792-.009765625 .36999513-.009765625 .42599488 .11740112 .42599488 .14038086 .42599488 .14437866 .4249878 .15037537 .4149933 .15037537 .40699769 .15037537 .4059906 .14637757 .40299989 .13638306 .3809967 .077423099 .32199098 .053237916 .2829895 .053237916 .2619934 .053237916 .24198914 .06034851 .22099304 .06942749 .18099976 .0854187 .16999817 .0854187 .15699768 .0854187 .14698792 .0854187 .13598633 .0854187 .1269989 .0814209Z"/>
<path id="font_4_1" d="M.9259949 .6056366C.93499758 .6416168 .93699648 .6516113 1.0119934 .6516113 1.0349884 .6516113 1.0439911 .6516113 1.0439911 .6716156 1.0439911 .6826172 1.0339966 .6826172 1.0169983 .6826172H.8849945C.85899356 .6826172 .8580017 .6826172 .84599307 .66360476L.48098756 .093948367 .40299989 .65960696C.3999939 .6826172 .397995 .6826172 .37199403 .6826172H.23498535C.21598816 .6826172 .20498657 .6826172 .20498657 .66360476 .20498657 .6516113 .21398926 .6516113 .23399353 .6516113 .24699402 .6516113 .2649994 .65060427 .2769928 .6496124 .29299928 .6476135 .29899598 .64460757 .29899598 .6336212 .29899598 .6296234 .2979889 .62661746 .29499818 .614624L.16799927 .10594177C.1579895 .065963748 .14099121 .033996583 .05999756 .0309906 .054992677 .0309906 .041992189 .02999878 .041992189 .011993408 .041992189 .0029907227 .04798889 0 .055999757 0 .08799744 0 .12298584 .0029907227 .1559906 .0029907227 .18998719 .0029907227 .22599793 0 .25898744 0 .2639923 0 .2769928 0 .2769928 .019989014 .2769928 .0309906 .2659912 .0309906 .25898744 .0309906 .20199585 .03199768 .19099427 .051986696 .19099427 .07496643 .19099427 .081954959 .19198609 .08695984 .19499207 .09794617L.33099366 .64260867H.33198548L.41799928 .022994996C.41999818 .010986328 .42099 0 .43299867 0 .44400025 0 .44999696 .010986328 .45498658 .017990113L.85899356 .65060427H.8600006L.71699526 .07795715C.70700076 .038986207 .7049866 .0309906 .6259918 .0309906 .60899356 .0309906 .59799197 .0309906 .59799197 .011993408 .59799197 0 .6100006 0 .61299136 0 .6409912 0 .70899966 .0029907227 .7369995 .0029907227 .7779999 .0029907227 .82099917 0 .8619995 0 .8679962 0 .8809967 0 .8809967 .019989014 .8809967 .0309906 .871994 .0309906 .8529968 .0309906 .81599429 .0309906 .7879944 .0309906 .7879944 .048980714 .7879944 .052978517 .7879944 .054977418 .79299929 .07296753L.9259949 .6056366Z"/>
<path id="font_5_1" d="M.5159912 .31925965C.5159912 .42918397 .5029907 .50813296 .45700074 .5780945 .42599488 .62405398 .3639984 .6640625 .28399659 .6640625 .051986696 .6640625 .051986696 .39120484 .051986696 .31925965 .051986696 .2472992 .051986696-.01953125 .28399659-.01953125 .5159912-.01953125 .5159912 .2472992 .5159912 .31925965M.28399659 .008468628C.23799134 .008468628 .1769867 .035446168 .15699768 .117385867 .14299011 .17634583 .14299011 .25830079 .14299011 .33224488 .14299011 .40519715 .14299011 .4811554 .1579895 .53611758 .1789856 .6150665 .24299622 .63604739 .28399659 .63604739 .33799745 .63604739 .3899994 .6030731 .4079895 .545105 .42399598 .4911499 .4249878 .41918946 .4249878 .33224488 .4249878 .25830079 .4249878 .18434143 .4119873 .12138367 .3919983 .030441285 .32398988 .008468628 .28399659 .008468628Z"/>
<path id="font_3_8965" d="M.59375 .6015625C.59375 .7135417 .59244796 .78776046 .58984377 .82421877L.68359377 .77734377 .64453127 .73828127V.6015625H.796875L.83984377 .64453127 .90234377 .578125H.64453127V.3671875H.8515625L.8984375 .4140625 .96484377 .34375H.59765627L.66015627 .30078126C.63671877 .2903646 .6119792 .265625 .5859375 .2265625 .5598958 .1875 .5 .118489589 .40625 .01953125L.81640627 .046875C.78255209 .09375 .74609377 .13932292 .70703127 .18359375L.71484377 .1953125C.76171877 .16145833 .7988281 .13411458 .8261719 .11328125 .8535156 .092447917 .87565109 .072265628 .8925781 .052734376 .9095052 .033203126 .91796877 .015625 .91796877 0 .91796877-.015625 .91276046-.03125 .90234377-.046875 .89192709-.0625 .8854167-.0703125 .8828125-.0703125 .875-.0703125 .86848959-.0625 .86328127-.046875 .85286459-.020833334 .8411458 .00390625 .828125 .02734375 .6822917 .01171875 .57161459-.0052083337 .49609376-.0234375 .4205729-.041666669 .37760417-.057291669 .3671875-.0703125L.328125 .01953125C.36197917 .01953125 .40690104 .05859375 .46289063 .13671875 .5188802 .21484375 .5572917 .28385417 .578125 .34375H.43359376C.3997396 .34375 .3684896 .33984376 .33984376 .33203126L.3046875 .3671875H.59375V.578125H.5078125C.47395835 .578125 .44270835 .57421877 .4140625 .56640627L.37890626 .6015625H.59375M.37109376 .6484375C.26953126 .37239585 .2141927 .21809896 .20507813 .18554688 .19596355 .1529948 .1920573 .11328125 .19335938 .06640625 .19466146 .01953125 .19661458-.013020833 .19921875-.03125 .19921875-.041666669 .19270833-.046875 .1796875-.046875 .16927083-.046875 .15625-.044270833 .140625-.0390625 .125-.033854169 .1171875-.022135416 .1171875-.00390625 .1171875 .009114583 .12109375 .028645834 .12890625 .0546875 .13671875 .080729167 .140625 .1015625 .140625 .1171875 .140625 .13541667 .13476563 .14973958 .123046878 .16015625 .111328128 .17057292 .0859375 .18098958 .046875 .19140625V.20703125C.09375 .20182292 .123046878 .1998698 .13476563 .20117188 .14648438 .20247396 .1595052 .2141927 .17382813 .23632813 .18815105 .25846354 .24869792 .3971354 .35546876 .65234377L.37109376 .6484375M.05078125 .5625C.14192708 .515625 .1875 .47721354 .1875 .44726563 .1875 .41731773 .18033855 .3971354 .16601563 .38671876 .1516927 .3763021 .13932292 .3893229 .12890625 .42578126 .115885417 .4596354 .087239589 .50130209 .04296875 .55078127L.05078125 .5625M.140625 .7890625C.21354167 .7526042 .25325523 .72526046 .25976563 .70703127 .26627604 .68880209 .26953126 .67578127 .26953126 .66796877 .26953126 .65494796 .26497398 .6432292 .25585938 .6328125 .2467448 .6223958 .23958333 .6171875 .234375 .6171875 .2265625 .6171875 .21875 .6302083 .2109375 .65625 .19791667 .6901042 .171875 .73046877 .1328125 .77734377L.140625 .7890625Z"/>
<path id="font_3_2625" d="M.38671876 .4140625V.2109375H.60546877V.4140625H.38671876M.640625 .015625C.6927083 .013020833 .734375 .011067708 .765625 .009765625 .796875 .008463542 .81119796 .026041666 .80859377 .0625V.60546877H.19921875V-.06640625L.140625-.09375C.14322917-.018229166 .14453125 .04296875 .14453125 .08984375V.5078125C.14453125 .5625 .14322917 .61588546 .140625 .66796877L.203125 .62890627H.37109376C.40234376 .72005209 .41927085 .7838542 .421875 .8203125L.5078125 .77734377C.4765625 .75911459 .44010417 .70963546 .3984375 .62890627H.80078127L.828125 .671875 .89453127 .62109377 .86328127 .59375V.0390625C.86848959-.026041666 .83984377-.069010417 .77734377-.08984375 .77473959-.045572919 .7291667-.016927084 .640625-.00390625V.015625M.66015627 .23828125C.66015627 .21744792 .6614583 .18619792 .6640625 .14453125L.60546877 .12109375V.1875H.38671876V.12890625L.328125 .10546875C.33072917 .17057292 .33203126 .23697917 .33203126 .3046875 .33203126 .37239585 .33072917 .4283854 .328125 .47265626L.38671876 .4375H.6015625L.62890627 .4765625 .69140627 .42578126 .66015627 .3984375V.23828125Z"/>
<path id="font_3_18431" d="M.265625 .375V.29296876H.47265626V.375H.265625M.5234375 .375V.29296876H.72265627V.375H.5234375M.265625 .26953126V.19140625H.47265626V.26953126H.265625M.5234375 .26953126V.19140625H.72265627V.26953126H.5234375M.7734375 .36328126C.7734375 .26171876 .77473959 .19401042 .77734377 .16015625L.72265627 .13671875V.16796875H.5234375V.08203125H.734375L.7890625 .12890625 .8515625 .05859375H.5234375V-.03515625H.82421877L.8828125 .01953125 .94921877-.05859375H.18359375C.14973958-.05859375 .118489589-.0625 .08984375-.0703125L.0546875-.03515625H.47265626V.05859375H.26953126C.23567708 .05859375 .20442708 .0546875 .17578125 .046875L.140625 .08203125H.47265626V.16796875H.265625V.14453125L.2109375 .125C.21354167 .17708333 .21484375 .22851563 .21484375 .27929688 .21484375 .33007813 .21354167 .38020835 .2109375 .4296875L.265625 .3984375H.71875L.7421875 .4296875 .80078127 .38671876 .7734375 .36328126M.27734376 .75V.68359377H.7109375V.75H.27734376M.27734376 .66015627V.58984377H.7109375V.66015627H.27734376M.76171877 .7421875C.76171877 .6458333 .7630208 .58203127 .765625 .55078127L.7109375 .52734377V.56640627H.27734376V.53125L.22265625 .5078125C.22526042 .5494792 .2265625 .60221359 .2265625 .6660156 .2265625 .7298177 .22526042 .77473959 .22265625 .80078127L.28125 .7734375H.703125L.7265625 .80859377 .7890625 .765625 .76171877 .7421875M.0390625 .48828126H.83984377L.89453127 .5390625 .9609375 .46484376H.1484375C.12760417 .46484376 .102864589 .4609375 .07421875 .453125L.0390625 .48828126Z"/>
<path id="font_4_6" d="M.08799744 .059265138C.084991458 .044265748 .07899475 .021255494 .07899475 .01625061 .07899475-.0017547608 .09298706-.0107421879 .10798645-.0107421879 .11999512-.0107421879 .13798523-.002746582 .14498902 .01725769 .1459961 .019256592 .1579895 .06626892 .1639862 .091278079L.18598938 .18130493C.19198609 .2033081 .19799805 .22531128 .20298767 .24832154 .20698548 .26531983 .21499634 .29434205 .21598816 .29833985 .23098755 .3293457 .28399659 .42037965 .3789978 .42037965 .42399598 .42037965 .43299867 .38336183 .43299867 .35035707 .43299867 .3253479 .42599488 .29733277 .41799928 .26733399L.3899994 .1512909 .36999513 .07527161C.3659973 .055267335 .35699464 .021255494 .35699464 .01625061 .35699464-.0017547608 .37098695-.0107421879 .38598634-.0107421879 .4169922-.0107421879 .4229889 .014251709 .43099977 .04626465 .44499208 .10227966 .48199464 .24832154 .4909973 .28733827 .49398805 .30033876 .5469971 .42037965 .6559906 .42037965 .69898989 .42037965 .70999148 .3863678 .70999148 .35035707 .70999148 .29333497 .66799929 .17930603 .647995 .12628174 .6389923 .10227966 .6349945 .091278079 .6349945 .0712738 .6349945 .024261475 .66999819-.0107421879 .71699526-.0107421879 .8109894-.0107421879 .84799197 .13528443 .84799197 .14329529 .84799197 .1532898 .83898928 .1532898 .83599856 .1532898 .82598879 .1532898 .82598879 .15029907 .82099917 .13528443 .80599978 .08227539 .7739868 .011245728 .71899417 .011245728 .70199587 .011245728 .69499209 .021255494 .69499209 .044265748 .69499209 .0692749 .70399478 .09327698 .71299746 .11528015 .7319946 .16729737 .7739868 .27833558 .7739868 .3353424 .7739868 .4003601 .73399356 .4423828 .6589966 .4423828 .58399966 .4423828 .5329895 .3983612 .49598695 .34535218 .49499513 .35835267 .49198915 .3923645 .46398927 .41636659 .43899537 .43737794 .40699769 .4423828 .38198854 .4423828 .2919922 .4423828 .24299622 .37835694 .22599793 .35534669 .22099304 .41236878 .1789856 .4423828 .13398743 .4423828 .08799744 .4423828 .068984989 .4033661 .05999756 .38536073 .041992189 .35035707 .0289917 .29133607 .0289917 .28833009 .0289917 .27833558 .038986207 .27833558 .040985109 .27833558 .050994874 .27833558 .051986696 .2793274 .057998659 .30133058 .07499695 .37236024 .09498596 .42037965 .1309967 .42037965 .14698792 .42037965 .1619873 .41236878 .1619873 .37435914 .1619873 .35334779 .15899658 .3423462 .1459961 .29032899L.08799744 .059265138Z"/>
<path id="font_4_2" d="M.37298585 .37835694C.35499574 .41537477 .32598878 .4423828 .2809906 .4423828 .1639862 .4423828 .039993287 .29533387 .039993287 .14929199 .039993287 .055267335 .09498596-.0107421879 .17298889-.0107421879 .19299317-.0107421879 .24299622-.0067443849 .30299378 .06427002 .31098939 .022247315 .34599305-.0107421879 .3939972-.0107421879 .42900086-.0107421879 .45199586 .012252808 .46798707 .044265748 .4850006 .08027649 .49798585 .14129639 .49798585 .14329529 .49798585 .1532898 .4889984 .1532898 .48599244 .1532898 .47599793 .1532898 .47499085 .14929199 .47200013 .13528443 .45498658 .07026672 .43699647 .011245728 .3959961 .011245728 .36898805 .011245728 .3659973 .037261964 .3659973 .057266237 .3659973 .07926941 .36799623 .08728027 .3789978 .13128662 .3899994 .17329407 .3919983 .18330384 .40098573 .22131348L.43699647 .36135865C.44400025 .38935853 .44400025 .39135743 .44400025 .39537049 .44400025 .41236878 .43199159 .42237855 .4149933 .42237855 .3909912 .42237855 .37599183 .4003601 .37298585 .37835694M.30799867 .119277957C.30299378 .10127258 .30299378 .09927368 .28799439 .08227539 .24398804 .027252198 .20298767 .011245728 .1749878 .011245728 .125 .011245728 .11099243 .06626892 .11099243 .105285648 .11099243 .1552887 .14299011 .27833558 .1659851 .32434083 .19699097 .38336183 .24198914 .42037965 .28199769 .42037965 .34700013 .42037965 .36099244 .3383484 .36099244 .33235169 .36099244 .32633973 .35899354 .32034303 .35798646 .31533814L.30799867 .119277957Z"/>
<path id="font_4_8" d="M.20599365 .3996582H.2999878C.31999208 .3996582 .32998658 .3996582 .32998658 .41966249 .32998658 .43066407 .31999208 .43066407 .3019867 .43066407H.21398926C.25 .5724945 .25498963 .59246829 .25498963 .59846499 .25498963 .61546328 .24299622 .62545779 .22599793 .62545779 .22299195 .62545779 .19499207 .62446597 .18598938 .58947756L.14698792 .43066407H.052993776C.032989503 .43066407 .022994996 .43066407 .022994996 .4116516 .022994996 .3996582 .0309906 .3996582 .050994874 .3996582H.13899231C.066986087 .11608887 .06298828 .099121097 .06298828 .08114624 .06298828 .02722168 .100997928-.0107421879 .15499878-.0107421879 .25698854-.0107421879 .31399537 .13505554 .31399537 .14305115 .31399537 .1530304 .30599977 .1530304 .3019867 .1530304 .29299928 .1530304 .2919922 .15003968 .2869873 .13905335 .24398804 .035217287 .19099427 .011245728 .15699768 .011245728 .13598633 .011245728 .12599182 .024230957 .12599182 .057174684 .12599182 .08114624 .12799073 .088134769 .13198853 .10510254L.20599365 .3996582Z"/>
<path id="font_4_5" d="M.2869873 .68333438C.2869873 .6843262 .2869873 .69433596 .27398683 .69433596 .25099183 .69433596 .17799378 .6863251 .1519928 .6843262 .14399719 .68333438 .1329956 .6823273 .1329956 .6643219 .1329956 .6523285 .14199829 .6523285 .15699768 .6523285 .20498657 .6523285 .20698548 .6453247 .20698548 .6353302L.20399475 .6153412 .05899048 .039260866C.054992677 .025253296 .054992677 .023254395 .054992677 .01725769 .054992677-.0057525637 .07499695-.0107421879 .083999637-.0107421879 .099990848-.0107421879 .115997318 .0012512207 .12098694 .015258789L.13999939 .091278079 .1619873 .18130493C.16799927 .2033081 .17399597 .22531128 .1789856 .24832154 .18099976 .25431825 .18899536 .28733827 .18998719 .29333497 .19299317 .30233766 .22399903 .35835267 .2579956 .38536073 .27999879 .4013672 .31098939 .42037965 .35398866 .42037965 .39698792 .42037965 .4079895 .3863678 .4079895 .35035707 .4079895 .29634095 .36999513 .18730164 .34599305 .12628174 .33799745 .103271488 .33299256 .091278079 .33299256 .0712738 .33299256 .024261475 .36799623-.0107421879 .4149933-.0107421879 .5089874-.0107421879 .54599 .13528443 .54599 .14329529 .54599 .1532898 .5369873 .1532898 .5339966 .1532898 .5239868 .1532898 .5239868 .15029907 .5189972 .13528443 .5039978 .08227539 .47200013 .011245728 .4169922 .011245728 .3999939 .011245728 .3929901 .021255494 .3929901 .044265748 .3929901 .0692749 .4019928 .09327698 .41099549 .11528015 .4269867 .15829468 .47200013 .2773285 .47200013 .3353424 .47200013 .4003601 .43199159 .4423828 .35699464 .4423828 .2939911 .4423828 .24598694 .41137696 .20899964 .36535646L.2869873 .68333438Z"/>
<path id="font_4_3" d="M.23899842 .68333438C.23899842 .6843262 .23899842 .69433596 .22599793 .69433596 .20298767 .69433596 .12998963 .6863251 .10398865 .6843262 .09599304 .68333438 .084991458 .6823273 .084991458 .6643219 .084991458 .6523285 .09399414 .6523285 .10899353 .6523285 .15699768 .6523285 .15899658 .6453247 .15899658 .6353302 .15899658 .6283264 .1499939 .5943451 .14498902 .573349L.06298828 .24731446C.050994874 .1973114 .04699707 .18130493 .04699707 .14628601 .04699707 .05126953 .099990848-.0107421879 .17399597-.0107421879 .2919922-.0107421879 .4149933 .1382904 .4149933 .28233338 .4149933 .37335206 .3619995 .4423828 .28199769 .4423828 .23599243 .4423828 .19499207 .41337586 .16499329 .38235475L.23899842 .68333438M.14498902 .30534364C.15098572 .3273468 .15098572 .3293457 .1599884 .3403473 .20899964 .405365 .2539978 .42037965 .27999879 .42037965 .31599427 .42037965 .34298707 .3903656 .34298707 .32633973 .34298707 .26733399 .30999757 .15229798 .2919922 .11428833 .25898744 .04725647 .21299744 .011245728 .17399597 .011245728 .13999939 .011245728 .10699463 .038253786 .10699463 .11227417 .10699463 .13128662 .10699463 .15029907 .12298584 .21331787L.14498902 .30534364Z"/>
<path id="font_4_4" d="M.36698915 .3996582H.45298768C.47299195 .3996582 .48298646 .3996582 .48298646 .41966249 .48298646 .43066407 .47299195 .43066407 .45599366 .43066407H.37298585L.3939972 .5449524C.397995 .5660095 .4119873 .6370239 .41799928 .6490326 .4269867 .66804507 .44400025 .68307498 .46499635 .68307498 .46899415 .68307498 .49499513 .68307498 .5139923 .66503909 .46998597 .661026 .45999146 .6260376 .45999146 .6110382 .45999146 .58802798 .47799684 .57603457 .49699403 .57603457 .522995 .57603457 .5519867 .5980377 .5519867 .6360321 .5519867 .6820679 .5059967 .7050781 .46499635 .7050781 .43099977 .7050781 .36799623 .68707278 .33799745 .58802798 .33198548 .56700137 .32899476 .5569763 .30499269 .43066407H.23599243C.21699524 .43066407 .20599365 .43066407 .20599365 .4116516 .20599365 .3996582 .21499634 .3996582 .23399353 .3996582H.2999878L.22499085 .0048828127C.20698548-.09207153 .18998719-.18309021 .13798523-.18309021 .13398743-.18309021 .10899353-.18309021 .08999634-.16506958 .13598633-.1620636 .14498902-.12606812 .14498902-.111068729 .14498902-.08807373 .1269989-.07606506 .10798645-.07606506 .08198547-.07606506 .052993776-.09806824 .052993776-.13606262 .052993776-.18109131 .09700012-.20507813 .13798523-.20507813 .19299317-.20507813 .23298645-.14607239 .25099183-.108062747 .2829895-.04508972 .30599977 .07583618 .30699159 .082839969L.36698915 .3996582Z"/>
<path id="font_4_7" d="M.08799744 .059265138C.084991458 .044265748 .07899475 .021255494 .07899475 .01625061 .07899475-.0017547608 .09298706-.0107421879 .10798645-.0107421879 .11999512-.0107421879 .13798523-.002746582 .14498902 .01725769 .1459961 .019256592 .1579895 .06626892 .1639862 .091278079L.18598938 .18130493C.19198609 .2033081 .19799805 .22531128 .20298767 .24832154 .20698548 .26531983 .21499634 .29434205 .21598816 .29833985 .23098755 .3293457 .28399659 .42037965 .3789978 .42037965 .42399598 .42037965 .43299867 .38336183 .43299867 .35035707 .43299867 .28833009 .38398744 .16029358 .36799623 .11727905 .35899354 .0942688 .35798646 .08227539 .35798646 .0712738 .35798646 .024261475 .3929901-.0107421879 .43998719-.0107421879 .5339966-.0107421879 .57099917 .13528443 .57099917 .14329529 .57099917 .1532898 .56199648 .1532898 .5589905 .1532898 .548996 .1532898 .548996 .15029907 .5439911 .13528443 .5239868 .06726074 .4909973 .011245728 .44198609 .011245728 .4249878 .011245728 .41799928 .021255494 .41799928 .044265748 .41799928 .0692749 .4269867 .09327698 .43598939 .11528015 .45498658 .16830445 .49699403 .27833558 .49699403 .3353424 .49699403 .40237428 .45399476 .4423828 .38198854 .4423828 .2919922 .4423828 .24299622 .37835694 .22599793 .35534669 .22099304 .41137696 .17999268 .4423828 .13398743 .4423828 .08799744 .4423828 .068984989 .4033661 .05899048 .38536073 .042999269 .35134889 .0289917 .29232789 .0289917 .28833009 .0289917 .27833558 .038986207 .27833558 .040985109 .27833558 .050994874 .27833558 .051986696 .2793274 .057998659 .30133058 .07499695 .37236024 .09498596 .42037965 .1309967 .42037965 .15098572 .42037965 .1619873 .4073639 .1619873 .37435914 .1619873 .35334779 .15899658 .3423462 .1459961 .29032899L.08799744 .059265138Z"/>
<path id="font_3_5283" d="M.52734377 .1171875C.52734377 .059895833 .5286458 .0026041668 .53125-.0546875L.46484376-.08203125C.4674479-.0013020834 .46875 .071614589 .46875 .13671875V.36328126H.1640625C.13020833 .36328126 .098958339 .359375 .0703125 .3515625L.03515625 .38671876H.46875V.71484377H.25C.21614583 .71484377 .18489583 .7109375 .15625 .703125L.12109375 .73828127H.7578125L.8125 .79296877 .890625 .71484377H.52734377V.38671876H.8125L.87109377 .4453125 .953125 .36328126H.52734377V.1171875M.7421875 .67578127 .82421877 .61328127C.80338546 .61328127 .77473959 .58984377 .73828127 .54296877 .69921877 .49609376 .65755209 .4518229 .61328127 .41015626L.6015625 .41796876C.6692708 .50911459 .7161458 .59505209 .7421875 .67578127M.203125 .65625C.27864585 .6015625 .32291667 .5644531 .3359375 .5449219 .34895835 .5253906 .35546876 .5078125 .35546876 .4921875 .35546876 .484375 .35351563 .47460938 .34960938 .46289063 .34570313 .45117188 .33658854 .44010417 .32226563 .4296875 .30794273 .41927085 .29427085 .4375 .28125 .484375 .26822917 .5286458 .23828125 .5833333 .19140625 .6484375L.203125 .65625Z"/>
<path id="font_3_19858" d="M.4140625 .18359375V.01171875H.578125V.18359375H.4140625M.38671876 .55859377C.4075521 .61848959 .421875 .6744792 .4296875 .7265625H.1796875C.140625 .7265625 .106770839 .72265627 .078125 .71484377L.04296875 .75H.82421877L.88671877 .80859377 .95703127 .7265625H.46875L.52734377 .6953125 .48828126 .68359377C.45703126 .63932296 .4309896 .59765627 .41015626 .55859377H.79296877L.8203125 .59765627 .8828125 .55078127 .85546877 .5234375C.85546877 .2890625 .8567708 .09375 .859375-.0625L.80078127-.08984375V-.01171875H.1953125V-.06640625L.13671875-.09375C.13932292-.0026041668 .140625 .11393229 .140625 .25585938 .140625 .39778648 .13932292 .50911459 .13671875 .58984377L.1953125 .55859377H.38671876M.1953125 .53515627V.01171875H.36328126V.53515627H.1953125M.62890627 .53515627V.01171875H.80078127V.53515627H.62890627M.4140625 .53515627V.38671876H.578125V.53515627H.4140625M.4140625 .36328126V.20703125H.578125V.36328126H.4140625Z"/>
</defs>
<g clip-path="url(#clip_1)">
<path transform="matrix(.1,0,0,-.1,0,283.193)" stroke-width="5" stroke-linecap="round" stroke-linejoin="round" fill="none" stroke="#000000" d="M2649.02 70.293H124.07"/>
<path transform="matrix(.1,0,0,-.1,0,283.193)" d="M2724.02 70.293 2649.02 90.3906V50.1992L2724.02 70.293Z"/>
<path transform="matrix(.1,0,0,-.1,0,283.193)" stroke-width="5" stroke-linecap="round" stroke-linejoin="round" fill="none" stroke="#000000" d="M2724.02 70.293 2649.02 90.3906V50.1992L2724.02 70.293Z"/>
<path transform="matrix(.1,0,0,-.1,0,283.193)" stroke-width="5" stroke-linecap="round" stroke-linejoin="round" fill="none" stroke="#000000" d="M1362.61 937.27 124.07 70.293"/>
<path transform="matrix(.1,0,0,-.1,0,283.193)" d="M1424.05 980.277 1351.08 953.73 1374.13 920.805 1424.05 980.277Z"/>
<path transform="matrix(.1,0,0,-.1,0,283.193)" stroke-width="5" stroke-linecap="round" stroke-linejoin="round" fill="none" stroke="#000000" d="M1424.05 980.277 1351.08 953.73 1374.13 920.805 1424.05 980.277Z"/>
<path transform="matrix(.1,0,0,-.1,0,283.193)" stroke-width="5" stroke-linecap="round" stroke-linejoin="round" fill="none" stroke="#000000" d="M124.07 2595.25V70.293"/>
<path transform="matrix(.1,0,0,-.1,0,283.193)" d="M124.07 2670.25 103.977 2595.25H144.168L124.07 2670.25Z"/>
<path transform="matrix(.1,0,0,-.1,0,283.193)" stroke-width="5" stroke-linecap="round" stroke-linejoin="round" fill="none" stroke="#000000" d="M124.07 2670.25 103.977 2595.25H144.168L124.07 2670.25Z"/>
<path transform="matrix(.1,0,0,-.1,0,283.193)" d="M2352.6 70.293 1238.34 850.281 124.07 2298.82 2352.6 70.293Z" fill="#e6e6e6" fill-opacity=".5"/>
<path transform="matrix(.1,0,0,-.1,0,283.193)" stroke-width="8" stroke-linecap="round" stroke-linejoin="round" fill="none" stroke="#000000" d="M2352.6 70.293 1238.34 850.281 124.07 2298.82 2352.6 70.293Z"/>
<path transform="matrix(.1,0,0,-.1,0,283.193)" stroke-width="30" stroke-linecap="round" stroke-linejoin="round" fill="none" stroke="#000000" d="M1238.34 1073.13V1073.13"/>
<path transform="matrix(.1,0,0,-.1,0,283.193)" stroke-width="30" stroke-linecap="round" stroke-linejoin="round" fill="none" stroke="#000000" d="M1981.18 330.289V330.289"/>
<path transform="matrix(.1,0,0,-.1,0,283.193)" stroke-width="10" stroke-linecap="round" stroke-linejoin="round" fill="none" stroke="#0000ff" d="M1875.11 436.355 1238.34 1073.13"/>
<path transform="matrix(.1,0,0,-.1,0,283.193)" d="M1981.18 330.289 1903.54 464.777 1846.7 407.934 1981.18 330.289Z" fill="#0000ff"/>
<path transform="matrix(.1,0,0,-.1,0,283.193)" stroke-width="10" stroke-linecap="round" stroke-linejoin="round" fill="none" stroke="#0000ff" d="M1981.18 330.289 1903.54 464.777 1846.7 407.934 1981.18 330.289Z"/>
<path transform="matrix(.1,0,0,-.1,0,283.193)" stroke-width="12" stroke-linecap="round" stroke-linejoin="round" fill="none" stroke="#ff0000" d="M2262.52 1994.9 1238.34 1073.13"/>
<path transform="matrix(.1,0,0,-.1,0,283.193)" d="M2396.32 2115.31 2230.26 2030.75 2294.79 1959.05 2396.32 2115.31Z" fill="#ff0000"/>
<path transform="matrix(.1,0,0,-.1,0,283.193)" stroke-width="12" stroke-linecap="round" stroke-linejoin="round" fill="none" stroke="#ff0000" d="M2396.32 2115.31 2230.26 2030.75 2294.79 1959.05 2396.32 2115.31Z"/>
<path transform="matrix(.1,0,0,-.1,0,283.193)" stroke-width="8" stroke-linecap="round" stroke-linejoin="round" fill="none" stroke="#000000" d="M1353.89 957.574 1475.37 1066.9 1359.81 1182.46"/>
</g>
<use data-text="x" xlink:href="#font_2_1" transform="matrix(11.9552,0,0,-11.9552,275.999,280.437)"/>
<use data-text="&#x8f74;" xlink:href="#font_3_17828" transform="matrix(11.9552,0,0,-11.9552,286.549,280.437)"/>
<use data-text="y" xlink:href="#font_2_2" transform="matrix(11.9552,0,0,-11.9552,144.948,180.297)"/>
<use data-text="&#x8f74;" xlink:href="#font_3_17828" transform="matrix(11.9552,0,0,-11.9552,154.982,180.297)"/>
<use data-text="z" xlink:href="#font_2_3" transform="matrix(11.9552,0,0,-11.9552,1.4950028,11.309998)"/>
<use data-text="&#x8f74;" xlink:href="#font_3_17828" transform="matrix(11.9552,0,0,-11.9552,11.363003,11.309998)"/>
<use data-text="M" xlink:href="#font_4_1" transform="matrix(10,0,0,-10,107.491,172.22299)"/>
<use data-text="0" xlink:href="#font_5_1" transform="matrix(7,0,0,-7,117.192,173.72299)"/>
<use data-text="M" xlink:href="#font_4_1" transform="matrix(10,0,0,-10,200.274,259.154)"/>
<use data-text="&#x6cd5;" xlink:href="#font_3_8965" transform="matrix(10,0,0,-10,203.113,66.667)"/>
<use data-text="&#x5411;" xlink:href="#font_3_2625" transform="matrix(10,0,0,-10,213.113,66.667)"/>
<use data-text="&#x91cf;" xlink:href="#font_3_18431" transform="matrix(10,0,0,-10,223.113,66.667)"/>
<use data-text="m" xlink:href="#font_4_6" transform="matrix(10,0,0,-10,236.44301,66.667)"/>
<use data-text="a" xlink:href="#font_4_2" transform="matrix(10,0,0,-10,245.223,66.667)"/>
<use data-text="t" xlink:href="#font_4_8" transform="matrix(10,0,0,-10,250.503,66.667)"/>
<use data-text="h" xlink:href="#font_4_5" transform="matrix(10,0,0,-10,254.113,66.667)"/>
<use data-text="b" xlink:href="#font_4_3" transform="matrix(10,0,0,-10,259.873,66.667)"/>
<use data-text="f" xlink:href="#font_4_4" transform="matrix(10,0,0,-10,264.163,66.667)"/>
<use data-text="n" xlink:href="#font_4_7" transform="matrix(10,0,0,-10,270.123,66.667)"/>
<use data-text="&#x5e73;" xlink:href="#font_3_5283" transform="matrix(10,0,0,-10,195.54599,199.511)"/>
<use data-text="&#x9762;" xlink:href="#font_3_19858" transform="matrix(10,0,0,-10,205.54599,199.511)"/>
</svg>
