<svg xmlns="http://www.w3.org/2000/svg" xmlns:xlink="http://www.w3.org/1999/xlink" xmlns:inkscape="http://www.inkscape.org/namespaces/inkscape" version="1.1" width="204.9" height="69.43" viewBox="0 0 204.9 69.43">
<style>
  @media (prefers-color-scheme: dark) {
    svg {
      filter: invert(1) hue-rotate(180deg) !important;
    }
  }
</style>

<defs>
<path id="font_1_14514" d="M.57421877 .14453125C.65494796 .13411458 .70442709 .12890625 .72265627 .12890625 .74088546 .12890625 .75 .13932292 .75 .16015625V.4296875H.4765625V.06640625C.4765625 .01953125 .4778646-.0234375 .48046876-.0625L.41796876-.09765625C.4205729-.037760419 .421875 .01953125 .421875 .07421875V.4296875H.25C.21614583 .4296875 .18489583 .42578126 .15625 .41796876L.12109375 .453125H.73828127L.78125 .49609376 .83984377 .44140626 .80859377 .4140625V.14453125C.80859377 .118489589 .80338546 .09765625 .79296877 .08203125 .78255209 .06640625 .7604167 .05078125 .7265625 .03515625 .7083333 .079427089 .65755209 .109375 .57421877 .125V.14453125M.62109377 .6484375C.62109377 .7057292 .6197917 .7578125 .6171875 .8046875L.7109375 .7578125 .67578127 .734375V.6484375H.796875L.8671875 .7109375 .94921877 .625H.67578127C.67578127 .5885417 .6770833 .55598959 .6796875 .52734377L.62109377 .5V.625H.3984375V.51953127L.33984376 .48828126C.3424479 .53515627 .34375 .5807292 .34375 .625H.16796875C.13411458 .625 .102864589 .62109377 .07421875 .61328127L.0390625 .6484375H.34375C.34375 .7083333 .3424479 .75911459 .33984376 .80078127L.4296875 .7578125 .3984375 .73046877V.6484375H.62109377Z"/>
<path id="font_1_9961" d="M.29296876 .453125V.23828125H.72265627V.453125H.29296876M.23046875 .14453125C.23307292 .19921875 .234375 .2578125 .234375 .3203125 .234375 .3828125 .23307292 .4453125 .23046875 .5078125L.29296876 .4765625H.4609375C.4609375 .6510417 .4596354 .76432296 .45703126 .81640627L.546875 .78125 .515625 .75V.65625H.76953127L.8203125 .70703127 .890625 .6328125H.515625V.4765625H.71484377L.75390627 .515625 .8125 .45703126 .77734377 .4296875C.77734377 .30729167 .7786458 .22395833 .78125 .1796875L.72265627 .15625V.21484375H.29296876V.16796875L.23046875 .14453125M.2109375 .125H.2265625C.2109375 .0234375 .19466146-.035807294 .17773438-.052734376 .1608073-.06966146 .14583333-.078125 .1328125-.078125 .125-.078125 .115885417-.07486979 .10546875-.068359378 .095052089-.061848958 .08984375-.0546875 .08984375-.046875 .08984375-.0390625 .096354167-.029947916 .109375-.01953125 .1328125-.0013020834 .15039063 .015625 .16210938 .03125 .17382813 .046875 .19010417 .078125 .2109375 .125M.34765626 .10546875 .35546876 .1171875C.41015626 .075520839 .44075523 .046223958 .44726563 .029296875 .45377604 .012369792 .45703126 0 .45703126-.0078125 .45703126-.026041666 .45117188-.041015626 .43945313-.052734376 .42773438-.064453128 .4205729-.0703125 .41796876-.0703125 .4075521-.0703125 .40104167-.057291669 .3984375-.03125 .39322917 .0078125 .3763021 .053385419 .34765626 .10546875M.5546875 .109375 .5625 .12109375C.6119792 .084635417 .6425781 .055989583 .6542969 .03515625 .6660156 .014322917 .671875 0 .671875-.0078125 .671875-.020833334 .6660156-.033854169 .6542969-.046875 .6425781-.059895833 .6354167-.06640625 .6328125-.06640625 .6223958-.06640625 .6145833-.05078125 .609375-.01953125 .6015625 .024739584 .5833333 .067708339 .5546875 .109375M.765625 .12109375 .7734375 .1328125C.8255208 .096354167 .8613281 .065104167 .8808594 .0390625 .9003906 .013020833 .91015627-.0065104167 .91015627-.01953125 .91015627-.032552083 .90494796-.045572919 .89453127-.05859375 .88411459-.071614589 .8776042-.078125 .875-.078125 .8645833-.078125 .85546877-.0625 .84765627-.03125 .83463546 .013020833 .8072917 .063802089 .765625 .12109375Z"/>
<path id="font_2_4" d="M.19198609 .6159363C.19198609 .64294436 .16899109 .6689453 .13899231 .6689453 .10499573 .6689453 .084991458 .6409302 .084991458 .6159363 .084991458 .5889435 .10798645 .5629425 .13798523 .5629425 .17199707 .5629425 .19198609 .5909424 .19198609 .6159363Z"/>
<path id="font_3_1" d="M.37399293 .6056366C.3829956 .6416168 .38598634 .6516113 .46499635 .6516113 .4889984 .6516113 .49699403 .6516113 .49699403 .6706085 .49699403 .6826172 .48599244 .6826172 .48199464 .6826172 .45298768 .6826172 .3789978 .6796112 .34999085 .6796112 .31999208 .6796112 .24699402 .6826172 .21699524 .6826172 .20999146 .6826172 .19699097 .6826172 .19699097 .6626129 .19699097 .6516113 .20599365 .6516113 .22499085 .6516113 .2669983 .6516113 .2939911 .6516113 .2939911 .63261416 .2939911 .6276245 .2939911 .6256256 .2919922 .6166229L.15699768 .07795715C.147995 .040985109 .14498902 .0309906 .06599426 .0309906 .042999269 .0309906 .033996583 .0309906 .033996583 .010986328 .033996583 0 .04598999 0 .04899597 0 .07798767 0 .15098572 .0029907227 .17999268 .0029907227 .20999146 .0029907227 .28399659 0 .31399537 0 .32199098 0 .33399964 0 .33399964 .018997193 .33399964 .0309906 .32598878 .0309906 .3039856 .0309906 .28599549 .0309906 .2809906 .0309906 .26098634 .032989503 .23999024 .034988405 .23599243 .038986207 .23599243 .049987794 .23599243 .05796814 .23799134 .065963748 .23999024 .07296753L.37399293 .6056366Z"/>
<path id="font_4_1" d="M.33499146 .63612368C.33499146 .6630554 .33299256 .6640625 .30499269 .6640625 .24099732 .6014404 .1499939 .6004486 .10899353 .6004486V.5644531C.1329956 .5644531 .19898987 .5644531 .2539978 .592453V.08203125C.2539978 .04899597 .2539978 .035995485 .1539917 .035995485H.115997318V0C.13398743 .0009918213 .25698854 .0039978029 .2939911 .0039978029 .32499696 .0039978029 .45098878 .0009918213 .47299195 0V.035995485H.43499757C.33499146 .035995485 .33499146 .04899597 .33499146 .08203125V.63612368Z"/>
<path id="font_4_2" d="M.5049896 .18203736H.47099305C.46798707 .16001892 .45799256 .100997928 .44499208 .09098816 .43699647 .084991458 .3600006 .084991458 .34599305 .084991458H.1619873C.2669983 .17803955 .3019867 .20603943 .3619995 .25306703 .43598939 .312088 .5049896 .374115 .5049896 .46914674 .5049896 .5900879 .39898683 .6640625 .2709961 .6640625 .14698792 .6640625 .06298828 .57710269 .06298828 .4851532 .06298828 .43414308 .10598755 .42915345 .115997318 .42915345 .13999939 .42915345 .16899109 .44615174 .16899109 .48214723 .16899109 .5001526 .1619873 .53515627 .10998535 .53515627 .14099121 .6060791 .20899964 .62805178 .2559967 .62805178 .35598756 .62805178 .4079895 .5501404 .4079895 .46914674 .4079895 .38212586 .34599305 .3130951 .31399537 .27708436L.07299805 .038986207C.06298828 .02999878 .06298828 .027999878 .06298828 0H.47499085L.5049896 .18203736Z"/>
<path id="font_4_3" d="M.272995 .33428956C.35099793 .33428956 .40699769 .2803192 .40699769 .1733551 .40699769 .04940796 .33499146 .012466431 .2769928 .012466431 .23699951 .012466431 .14898682 .0234375 .10699463 .082351688 .1539917 .084350589 .16499329 .11735535 .16499329 .13835144 .16499329 .17034912 .14099121 .19335938 .10998535 .19335938 .08198547 .19335938 .053985597 .17634583 .053985597 .13534546 .053985597 .041412355 .1579895-.01953125 .2789917-.01953125 .41799928-.01953125 .5139923 .07336426 .5139923 .1733551 .5139923 .2513275 .44999696 .32929994 .33999635 .35229493 .44499208 .39024354 .48298646 .4650879 .48298646 .5260773 .48298646 .60505679 .3919983 .6640625 .2809906 .6640625 .16999817 .6640625 .084991458 .61006167 .084991458 .5300751 .084991458 .49606324 .10699463 .47706605 .13699341 .47706605 .16799927 .47706605 .18798828 .5000763 .18798828 .5280762 .18798828 .5570679 .16799927 .57806399 .13699341 .5800781 .17199707 .62405398 .24099732 .63505557 .27799989 .63505557 .32299806 .63505557 .38598634 .6130676 .38598634 .5260773 .38598634 .48406983 .37199403 .43814088 .34599305 .4072113 .31298829 .36927796 .2849884 .3672943 .23498535 .36428834 .20999146 .3623047 .20799256 .3623047 .20298767 .3612976 .20098877 .3612976 .19299317 .3592987 .19299317 .34829713 .19299317 .33428956 .20199585 .33428956 .21899414 .33428956H.272995Z"/>
<path id="font_4_4" d="M.5289917 .1640625V.20005799H.41799928V.64582827C.41799928 .66682437 .41799928 .6738281 .3959961 .6738281 .38398744 .6738281 .37998963 .6738281 .36999513 .65982058L.038986207 .20005799V.1640625H.33299256V.08201599C.33299256 .04800415 .33299256 .035995485 .2519989 .035995485H.22499085V0C.2749939 .0019989014 .33898927 .0039978029 .375 .0039978029 .4119873 .0039978029 .47599793 .0019989014 .526001 0V.035995485H.49899293C.41799928 .035995485 .41799928 .04800415 .41799928 .08201599V.1640625H.5289917M.33999635 .5658722V.20005799H.07598877L.33999635 .5658722Z"/>
<path id="font_5_1" d="M.42099-.53401187 .06599426-.9730072C.057998659-.9830017 .056991579-.9850006 .056991579-.9890137 .056991579-1 .06599426-1 .083999637-1H.9129944L.9989929-.7510071H.973999C.94898989-.826004 .8819885-.88700869 .7969971-.91600039 .7809906-.92100527 .71199038-.9450073 .5649872-.9450073H.13999939L.4869995-.51600649C.49398805-.5070038 .49598695-.50401309 .49598695-.5 .49598695-.4960022 .49499513-.49501039 .4889984-.4860077L.1639862-.040008546H.55999758C.673996-.040008546 .9039917-.04701233 .973999-.23400879H.9989929L.9129944 0H.083999637C.056991579 0 .055999757-.0010070801 .055999757-.03201294L.42099-.53401187Z"/>
<path id="font_6_1" d="M.32398988 .6253052C.32398988 .64131167 .31199647 .66329959 .28399659 .66329959 .25698854 .66329959 .22799683 .6372986 .22799683 .6083069 .22799683 .5913086 .24099732 .5703125 .2679901 .5703125 .29699708 .5703125 .32398988 .5983124 .32398988 .6253052M.11999512 .117263797C.115997318 .104263309 .11099243 .09225464 .11099243 .07525635 .11099243 .02822876 .15098572-.009765625 .20599365-.009765625 .30599977-.009765625 .34999085 .12828064 .34999085 .14328003 .34999085 .15628052 .33699037 .15628052 .33399964 .15628052 .31999208 .15628052 .31900025 .15028382 .31498719 .13928223 .2919922 .059249879 .24798584 .018234253 .20899964 .018234253 .18899536 .018234253 .18399048 .031234742 .18399048 .053237916 .18399048 .07624817 .19099427 .09526062 .19999695 .117263797 .20999146 .14428711 .22099304 .17129517 .23199463 .1973114 .24099732 .22131348 .2769928 .3123474 .2809906 .32435609 .28399659 .33436585 .2869873 .3463745 .2869873 .35636903 .2869873 .4033966 .24699402 .44140626 .19198609 .44140626 .09298706 .44140626 .04699707 .3053589 .04699707 .28834535 .04699707 .27534486 .06098938 .27534486 .06399536 .27534486 .07798767 .27534486 .07899475 .28033448 .08198547 .29135133 .10798645 .37738038 .1519928 .4133911 .18899536 .4133911 .20498657 .4133911 .21398926 .4053955 .21398926 .37838746 .21398926 .3553772 .20799256 .34036256 .18299866 .27833558L.11999512 .117263797Z"/>
<path id="font_6_2" d="M.12199402 .06324768C.117996219 .050247194 .11199951 .025222779 .11199951 .022232056 .11199951 .00022888184 .12998963-.009765625 .1459961-.009765625 .1639862-.009765625 .17999268 .0032196046 .18499756 .01222229 .18998719 .021224976 .19799805 .053237916 .20298767 .07424927 .20799256 .09326172 .21899414 .13928223 .22499085 .16429138 .23098755 .18629456 .23699951 .20831299 .24198914 .23132324 .25299073 .27233888 .25498963 .28033448 .28399659 .32136537 .31199647 .3613739 .35899354 .4133911 .43399049 .4133911 .49198915 .4133911 .49299623 .36238099 .49299623 .34336854 .49299623 .28334046 .44999696 .17228699 .43399049 .13027954 .4229889 .102264408 .4189911 .09326172 .4189911 .07624817 .4189911 .023223877 .46299745-.009765625 .5139923-.009765625 .6139984-.009765625 .6579895 .12828064 .6579895 .14328003 .6579895 .15628052 .644989 .15628052 .6419983 .15628052 .6279907 .15628052 .6269989 .15028382 .6230011 .13928223 .59999087 .059249879 .5569916 .018234253 .5169983 .018234253 .49598695 .018234253 .49198915 .032226564 .49198915 .053237916 .49198915 .07624817 .49699403 .089263919 .5149994 .13427735 .5269928 .1652832 .56799319 .2713318 .56799319 .32736207 .56799319 .4243927 .4909973 .44140626 .43798829 .44140626 .35499574 .44140626 .29899598 .39038087 .2689972 .3503723 .2619934 .41940309 .20298767 .44140626 .1619873 .44140626 .11898804 .44140626 .09599304 .4104004 .08299255 .38739015 .06098938 .3503723 .04699707 .29335023 .04699707 .28834535 .04699707 .27534486 .06098938 .27534486 .06399536 .27534486 .07798767 .27534486 .07899475 .27833558 .085998538 .3053589 .100997928 .36437989 .11999512 .4133911 .15899658 .4133911 .18499756 .4133911 .19198609 .39138795 .19198609 .36437989 .19198609 .34536744 .18299866 .3083496 .17599488 .28134156 .16899109 .2543335 .15899658 .21331787 .1539917 .19129944L.12199402 .06324768Z"/>
<path id="font_2_3" d="M.68699648 .32714845C.70199587 .32714845 .72099307 .32714845 .72099307 .34713746 .72099307 .36714173 .70199587 .36714173 .6879883 .36714173H.08898926C.07499695 .36714173 .055999757 .36714173 .055999757 .34713746 .055999757 .32714845 .07499695 .32714845 .08999634 .32714845H.68699648M.6879883 .13284302C.70199587 .13284302 .72099307 .13284302 .72099307 .15284729 .72099307 .17285156 .70199587 .17285156 .68699648 .17285156H.08999634C.07499695 .17285156 .055999757 .17285156 .055999757 .15284729 .055999757 .13284302 .07499695 .13284302 .08898926 .13284302H.6879883Z"/>
<path id="font_6_3" d="M.5309906 .2663269C.5309906 .37738038 .44799806 .44140626 .34999085 .44140626 .20199585 .44140626 .06199646 .3023529 .06199646 .1652832 .06199646 .06524658 .1349945-.009765625 .24398804-.009765625 .3869934-.009765625 .5309906 .12226868 .5309906 .2663269M.24499512 .018234253C.19499207 .018234253 .14498902 .050247194 .14498902 .12927246 .14498902 .17028809 .1639862 .26834107 .20298767 .32536317 .24598694 .38739015 .3039856 .4133911 .34899903 .4133911 .40299989 .4133911 .44898988 .37638856 .44898988 .3023529 .44898988 .27833558 .43699647 .17929077 .3929901 .10926819 .35499574 .050247194 .29499818 .018234253 .24499512 .018234253Z"/>
<path id="font_6_5" d="M.4229889 .16229248C.41799928 .14228821 .40899659 .104263309 .40699769 .103256229 .3880005 .072250369 .34799195 .018234253 .28599549 .018234253 .21699524 .018234253 .21699524 .08325195 .21699524 .101257327 .21699524 .16029358 .24499512 .23132324 .272995 .3043518 .2809906 .32435609 .2869873 .33937074 .2869873 .3553772 .2869873 .4073944 .24299622 .44140626 .19198609 .44140626 .09199524 .44140626 .04699707 .3043518 .04699707 .28834535 .04699707 .27534486 .06098938 .27534486 .06399536 .27534486 .07798767 .27534486 .07899475 .28033448 .08198547 .29135133 .10598755 .37338258 .1499939 .4133911 .18899536 .4133911 .20599365 .4133911 .21398926 .40238954 .21398926 .37838746 .21398926 .3553772 .20599365 .33436585 .19599915 .3113556 .14199829 .17329407 .14199829 .14428711 .14199829 .117263797 .14199829 .1002655 .14199829 .054244996 .1789856 .022232056 .20799256-.0017700195 .24699402-.009765625 .28199769-.009765625 .34498597-.009765625 .3789978 .024230957 .4119873 .056243898 .43399049-.0077667238 .5009918-.009765625 .5130005-.009765625 .5469971-.009765625 .57299807 .010223389 .59199526 .04324341 .6139984 .08226013 .6279907 .14027405 .6279907 .14328003 .6279907 .15628052 .6139984 .15628052 .61099246 .15628052 .5970001 .15628052 .59599307 .15228272 .58898928 .12527466 .57699587 .07824707 .55799868 .018234253 .5159912 .018234253 .48999024 .018234253 .48298646 .041229249 .48298646 .06724548 .48298646 .08425903 .4909973 .120269779 .49798585 .14628601 .5049896 .17329407 .5149994 .21430969 .519989 .23632813L.54299929 .32536317C.548996 .3503723 .55999758 .39439393 .55999758 .3993988 .55999758 .41940309 .5439911 .43139649 .5269928 .43139649 .48999024 .43139649 .48298646 .40238954 .47499085 .3703766L.4229889 .16229248Z"/>
<path id="font_6_4" d="M.24598694 .39465333H.34799195C.36698915 .39465333 .37998963 .39465333 .37998963 .4166565 .37998963 .43066407 .36698915 .43066407 .34999085 .43066407H.25498963L.2919922 .57850649C.29299928 .58351138 .29499818 .588501 .29499818 .5924988 .29499818 .6104889 .2809906 .6244812 .26098634 .6244812 .23599243 .6244812 .22099304 .6074829 .21398926 .58151248 .20698548 .5565338 .21998596 .6044922 .17599488 .43066407H.07398987C.054992677 .43066407 .041992189 .43066407 .041992189 .4086609 .041992189 .39465333 .053985597 .39465333 .07199097 .39465333H.16699219L.10798645 .15901184C.101989749 .13404846 .09298706 .098098758 .09298706 .085128787 .09298706 .0262146 .14299011-.009765625 .19999695-.009765625 .31098939-.009765625 .37399293 .13005066 .37399293 .14303589 .37399293 .15602112 .36099244 .15602112 .35798646 .15602112 .34599305 .15602112 .34498597 .15402222 .33699037 .13703919 .30899049 .074142459 .2579956 .018234253 .20298767 .018234253 .18199158 .018234253 .16799927 .031204224 .16799927 .06715393 .16799927 .07713318 .17199707 .098098758 .17399597 .10809326L.24598694 .39465333Z"/>
<path id="font_2_1" d="M.40899659 .23046875H.6879883C.70199587 .23046875 .72099307 .23046875 .72099307 .25045777 .72099307 .27046205 .70199587 .27046205 .6879883 .27046205H.40899659V.5500183C.40899659 .56399539 .40899659 .5830078 .3889923 .5830078 .36898805 .5830078 .36898805 .56399539 .36898805 .5500183V.27046205H.08898926C.07499695 .27046205 .055999757 .27046205 .055999757 .25045777 .055999757 .23046875 .07499695 .23046875 .08898926 .23046875H.36898805V-.05000305C.36898805-.06401062 .36898805-.08300781 .3889923-.08300781 .40899659-.08300781 .40899659-.06401062 .40899659-.05000305V.23046875Z"/>
<path id="font_7_1" d="M.6589966 .23046875C.6759949 .23046875 .69400027 .23046875 .69400027 .25045777 .69400027 .27046205 .6759949 .27046205 .6589966 .27046205H.117996219C.100997928 .27046205 .08299255 .27046205 .08299255 .25045777 .08299255 .23046875 .100997928 .23046875 .117996219 .23046875H.6589966Z"/>
<path id="font_2_2" d="M.45999146 .31976319C.45999146 .39982606 .45498658 .47988893 .41999818 .5539398 .37399293 .65000918 .2919922 .6660156 .25 .6660156 .18998719 .6660156 .116989139 .64001467 .07598877 .54693606 .04399109 .47789 .038986207 .39982606 .038986207 .31976319 .038986207 .24472046 .042999269 .15464783 .083999637 .07859802 .1269989-.0024719239 .19999695-.022460938 .24899292-.022460938 .30299378-.022460938 .3789978-.0014648438 .4229889 .09359741 .45498658 .16265869 .45999146 .2407074 .45999146 .31976319M.24899292-.00047302247C.20999146-.00047302247 .15098572 .024551392 .1329956 .12062073 .12199402 .18066406 .12199402 .2727356 .12199402 .3317871 .12199402 .39582826 .12199402 .46188355 .12998963 .5159149 .14898682 .63500979 .22399903 .64401248 .24899292 .64401248 .28199769 .64401248 .34799195 .6259918 .36698915 .52693179 .3769989 .47088624 .3769989 .39482118 .3769989 .3317871 .3769989 .25672914 .3769989 .18867493 .3659973 .12461853 .35099793 .029556275 .2939911-.00047302247 .24899292-.00047302247Z"/>
</defs>
<path transform="matrix(1,0,0,-1,44.819,34.717)" d="M2.49069 0C2.49069 1.37558 1.37558 2.49069 0 2.49069-1.37558 2.49069-2.49069 1.37558-2.49069 0-2.49069-1.37558-1.37558-2.49069 0-2.49069 1.37558-2.49069 2.49069-1.37558 2.49069 0ZM0 0"/>
<path transform="matrix(1,0,0,-1,44.819,34.717)" stroke-width=".59776" stroke-linecap="butt" stroke-miterlimit="10" stroke-linejoin="miter" fill="none" stroke="#000000" d="M2.49069 0C2.49069 1.37558 1.37558 2.49069 0 2.49069-1.37558 2.49069-2.49069 1.37558-2.49069 0-2.49069-1.37558-1.37558-2.49069 0-2.49069 1.37558-2.49069 2.49069-1.37558 2.49069 0ZM0 0"/>
<use data-text="&#x8282;" xlink:href="#font_1_14514" transform="matrix(10.5,0,0,-10.5,34.319,29.893002)"/>
<use data-text="&#x70b9;" xlink:href="#font_1_9961" transform="matrix(10.5,0,0,-10.5,44.819,29.893002)"/>
<path transform="matrix(1,0,0,-1,44.819,34.717)" stroke-width=".59776" stroke-linecap="butt" stroke-miterlimit="10" stroke-linejoin="miter" fill="none" stroke="#000000" d="M-2.98457 1.98969-42.5202 28.3468"/>
<path transform="matrix(.83202,.55467,.55467,-.83202,40.094163,31.567139)" d="M4.82758 0 .96512 1.45822 2.24107 0 .96512-1.45822Z"/>
<path transform="matrix(.83202,.55467,.55467,-.83202,40.094163,31.567139)" stroke-width=".59776" stroke-linecap="butt" stroke-miterlimit="10" stroke-linejoin="miter" fill="none" stroke="#000000" d="M4.82758 0 .96512 1.45822 2.24107 0 .96512-1.45822Z"/>
<use data-text="&#x02d9;" xlink:href="#font_2_4" transform="matrix(10.5,0,0,-10.5,13.102999,12.515995)"/>
<use data-text="I" xlink:href="#font_3_1" transform="matrix(10.5,0,0,-10.5,10.674999,15.169994)"/>
<use data-text="1" xlink:href="#font_4_1" transform="matrix(6.9738,0,0,-6.9738,15.289999,16.744996)"/>
<path transform="matrix(1,0,0,-1,44.819,34.717)" stroke-width=".59776" stroke-linecap="butt" stroke-miterlimit="10" stroke-linejoin="miter" fill="none" stroke="#000000" d="M-2.98457-1.98969-42.5202-28.3468"/>
<path transform="matrix(.83202,-.55467,-.55467,-.83202,40.094163,37.86686)" d="M4.82758 0 .96512 1.45822 2.24107 0 .96512-1.45822Z"/>
<path transform="matrix(.83202,-.55467,-.55467,-.83202,40.094163,37.86686)" stroke-width=".59776" stroke-linecap="butt" stroke-miterlimit="10" stroke-linejoin="miter" fill="none" stroke="#000000" d="M4.82758 0 .96512 1.45822 2.24107 0 .96512-1.45822Z"/>
<use data-text="&#x02d9;" xlink:href="#font_2_4" transform="matrix(10.5,0,0,-10.5,13.102999,59.701997)"/>
<use data-text="I" xlink:href="#font_3_1" transform="matrix(10.5,0,0,-10.5,10.674999,62.355997)"/>
<use data-text="2" xlink:href="#font_4_2" transform="matrix(6.9738,0,0,-6.9738,15.289999,63.930997)"/>
<path transform="matrix(1,0,0,-1,44.819,34.717)" stroke-width=".59776" stroke-linecap="butt" stroke-miterlimit="10" stroke-linejoin="miter" fill="none" stroke="#000000" d="M0 0 39.53563 26.3571"/>
<path transform="matrix(.83202,-.55467,-.55467,-.83202,82.61435,9.520069)" d="M4.82758 0 .96512 1.45822 2.24107 0 .96512-1.45822Z"/>
<path transform="matrix(.83202,-.55467,-.55467,-.83202,82.61435,9.520069)" stroke-width=".59776" stroke-linecap="butt" stroke-miterlimit="10" stroke-linejoin="miter" fill="none" stroke="#000000" d="M4.82758 0 .96512 1.45822 2.24107 0 .96512-1.45822Z"/>
<use data-text="&#x02d9;" xlink:href="#font_2_4" transform="matrix(10.5,0,0,-10.5,72.306,12.515995)"/>
<use data-text="I" xlink:href="#font_3_1" transform="matrix(10.5,0,0,-10.5,69.878,15.169994)"/>
<use data-text="3" xlink:href="#font_4_3" transform="matrix(6.9738,0,0,-6.9738,74.493,16.744996)"/>
<path transform="matrix(1,0,0,-1,44.819,34.717)" stroke-width=".59776" stroke-linecap="butt" stroke-miterlimit="10" stroke-linejoin="miter" fill="none" stroke="#000000" d="M0 0 39.53563-26.3571"/>
<path transform="matrix(.83202,.55467,.55467,-.83202,82.61435,59.91393)" d="M4.82758 0 .96512 1.45822 2.24107 0 .96512-1.45822Z"/>
<path transform="matrix(.83202,.55467,.55467,-.83202,82.61435,59.91393)" stroke-width=".59776" stroke-linecap="butt" stroke-miterlimit="10" stroke-linejoin="miter" fill="none" stroke="#000000" d="M4.82758 0 .96512 1.45822 2.24107 0 .96512-1.45822Z"/>
<use data-text="&#x02d9;" xlink:href="#font_2_4" transform="matrix(10.5,0,0,-10.5,72.306,59.701997)"/>
<use data-text="I" xlink:href="#font_3_1" transform="matrix(10.5,0,0,-10.5,69.878,62.355997)"/>
<use data-text="4" xlink:href="#font_4_4" transform="matrix(6.9738,0,0,-6.9738,74.493,63.930997)"/>
<use data-text="&#x2211;" xlink:href="#font_5_1" transform="matrix(9.9626,0,0,-9.9626,105.311008,22.967)"/>
<use data-text="&#x02d9;" xlink:href="#font_2_4" transform="matrix(10.5,0,0,-10.5,120.005008,27.918999)"/>
<use data-text="I" xlink:href="#font_3_1" transform="matrix(10.5,0,0,-10.5,117.577,30.572999)"/>
<use data-text="i" xlink:href="#font_6_1" transform="matrix(6.9738,0,0,-6.9738,122.192,32.148)"/>
<use data-text="n" xlink:href="#font_6_2" transform="matrix(6.9738,0,0,-6.9738,125.00942,32.148)"/>
<use data-text="=" xlink:href="#font_2_3" transform="matrix(10.5,0,0,-10.5,133.35102,30.572999)"/>
<use data-text="&#x2211;" xlink:href="#font_5_1" transform="matrix(9.9626,0,0,-9.9626,144.434,22.967)"/>
<use data-text="&#x02d9;" xlink:href="#font_2_4" transform="matrix(10.5,0,0,-10.5,159.128,27.918999)"/>
<use data-text="I" xlink:href="#font_3_1" transform="matrix(10.5,0,0,-10.5,156.70001,30.572999)"/>
<use data-text="o" xlink:href="#font_6_3" transform="matrix(6.9738,0,0,-6.9738,161.31601,32.148)"/>
<use data-text="u" xlink:href="#font_6_5" transform="matrix(6.9738,0,0,-6.9738,165.24225,32.148)"/>
<use data-text="t" xlink:href="#font_6_4" transform="matrix(6.9738,0,0,-6.9738,169.94957,32.148)"/>
<use data-text="&#x02d9;" xlink:href="#font_2_4" transform="matrix(10.5,0,0,-10.5,107.739009,44.299)"/>
<use data-text="I" xlink:href="#font_3_1" transform="matrix(10.5,0,0,-10.5,105.311008,46.953)"/>
<use data-text="1" xlink:href="#font_4_1" transform="matrix(6.9738,0,0,-6.9738,109.92601,48.528)"/>
<use data-text="+" xlink:href="#font_2_1" transform="matrix(10.5,0,0,-10.5,116.729007,46.953)"/>
<use data-text="&#x02d9;" xlink:href="#font_2_4" transform="matrix(10.5,0,0,-10.5,129.65702,44.299)"/>
<use data-text="I" xlink:href="#font_3_1" transform="matrix(10.5,0,0,-10.5,127.229007,46.953)"/>
<use data-text="2" xlink:href="#font_4_2" transform="matrix(6.9738,0,0,-6.9738,131.84401,48.528)"/>
<use data-text="&#x2212;" xlink:href="#font_7_1" transform="matrix(10.5,0,0,-10.5,138.647,46.953)"/>
<use data-text="&#x02d9;" xlink:href="#font_2_4" transform="matrix(10.5,0,0,-10.5,151.57501,44.299)"/>
<use data-text="I" xlink:href="#font_3_1" transform="matrix(10.5,0,0,-10.5,149.147,46.953)"/>
<use data-text="3" xlink:href="#font_4_3" transform="matrix(6.9738,0,0,-6.9738,153.763,48.528)"/>
<use data-text="&#x2212;" xlink:href="#font_7_1" transform="matrix(10.5,0,0,-10.5,160.565,46.953)"/>
<use data-text="&#x02d9;" xlink:href="#font_2_4" transform="matrix(10.5,0,0,-10.5,173.49301,44.299)"/>
<use data-text="I" xlink:href="#font_3_1" transform="matrix(10.5,0,0,-10.5,171.065,46.953)"/>
<use data-text="4" xlink:href="#font_4_4" transform="matrix(6.9738,0,0,-6.9738,175.681,48.528)"/>
<use data-text="=" xlink:href="#font_2_3" transform="matrix(10.5,0,0,-10.5,183.06702,46.953)"/>
<use data-text="0" xlink:href="#font_2_2" transform="matrix(10.5,0,0,-10.5,194.134,46.953)"/>
</svg>
