<svg xmlns="http://www.w3.org/2000/svg" xmlns:xlink="http://www.w3.org/1999/xlink" xmlns:inkscape="http://www.inkscape.org/namespaces/inkscape" version="1.1" width="207.22" height="108.37" viewBox="0 0 207.22 108.37">
<style>
  @media (prefers-color-scheme: dark) {
    svg {
      filter: invert(1) hue-rotate(180deg) !important;
    }
  }
</style>

<defs>
<path id="font_1_2" d="M.30299378 .3157959H.47299195C.61499026 .3157959 .7539978 .41973878 .7539978 .53167727 .7539978 .6086273 .6879883 .6826172 .5569916 .6826172H.23298645C.21398926 .6826172 .20298767 .6826172 .20298767 .66360476 .20298767 .6516113 .21199036 .6516113 .23199463 .6516113 .24499512 .6516113 .2630005 .65060427 .2749939 .6496124 .29100038 .6476135 .29699708 .64460757 .29699708 .6336212 .29699708 .6296234 .29599 .62661746 .29299928 .614624L.15899658 .07795715C.14898682 .038986207 .14698792 .0309906 .067993167 .0309906 .050994874 .0309906 .039993287 .0309906 .039993287 .011993408 .039993287 0 .051986696 0 .054992677 0 .08299255 0 .1539917 .0029907227 .18199158 .0029907227 .20298767 .0029907227 .22499085 .0019989014 .24598694 .0019989014 .2679901 .0019989014 .2899933 0 .31098939 0 .31799317 0 .33099366 0 .33099366 .019989014 .33099366 .0309906 .32199098 .0309906 .30299378 .0309906 .2659912 .0309906 .23799134 .0309906 .23799134 .048980714 .23799134 .054977418 .23999024 .05996704 .24099732 .065963748L.30299378 .3157959M.375 .6136322C.38398744 .64860537 .38598634 .6516113 .42900086 .6516113H.5249939C.60798647 .6516113 .6609955 .62461856 .6609955 .55566409 .6609955 .5166931 .6409912 .43074037 .60198977 .39476014 .5519867 .34977723 .49198915 .34179688 .44799806 .34179688H.30699159L.375 .6136322Z"/>
<path id="font_2_85" d="M.33099366-.2400055C.33099366-.23701477 .33099366-.23500061 .31399537-.21800232 .18899536-.0920105 .15699768 .09700012 .15699768 .25 .15699768 .42399598 .19499207 .59799197 .31799317 .72299197 .33099366 .7350006 .33099366 .7369995 .33099366 .73999026 .33099366 .746994 .32699586 .75 .32099916 .75 .31098939 .75 .22099304 .6819916 .1619873 .5549927 .11099243 .44499208 .09899902 .33399964 .09899902 .25 .09899902 .17199707 .10998535 .050994874 .16499329-.06201172 .22499085-.18501282 .31098939-.25 .32099916-.25 .32699586-.25 .33099366-.24700928 .33099366-.2400055Z"/>
<path id="font_3_7481" d="M.34765626 .47265626V.3359375H.70703127V.47265626H.34765626M.34765626 .3125V.18359375H.70703127V.3125H.34765626M.5703125 0C.6145833-.0078125 .6484375-.01171875 .671875-.01171875 .6953125-.01171875 .70703127 0 .70703127 .0234375V.16015625H.34765626V-.0625L.2890625-.09765625C.29166667-.053385419 .29296876 .115885417 .29296876 .41015626 .22005208 .33203126 .140625 .2669271 .0546875 .21484375L.04296875 .2265625C.115885417 .28385417 .17903646 .34309898 .23242188 .40429688 .28580729 .46549479 .3372396 .54296877 .38671876 .63671877H.171875C.13802083 .63671877 .106770839 .6328125 .078125 .625L.04296875 .66015627H.39453126C.4231771 .72526046 .44140626 .7786458 .44921876 .8203125L.546875 .765625 .5078125 .75C.48958335 .7135417 .47395835 .68359377 .4609375 .66015627H.79296877L.859375 .7265625 .94921877 .63671877H.453125C.42447917 .58463546 .39453126 .53776046 .36328126 .49609376H.69921877L.73046877 .53515627 .796875 .484375 .76171877 .45703126V-.00390625C.76171877-.045572919 .73307296-.076822917 .67578127-.09765625 .67838546-.06640625 .6432292-.040364583 .5703125-.01953125V0Z"/>
<path id="font_3_2255" d="M.625 .54296877C.6276042 .66796877 .62630209 .7604167 .62109377 .8203125L.71484377 .77734377 .6796875 .74609377C.6796875 .66536459 .67838546 .59765627 .67578127 .54296877H.83984377L.875 .58203127 .93359377 .53125 .90234377 .5078125C.89192709 .30989585 .88411459 .1764323 .87890627 .107421878 .87369796 .038411458 .8613281-.009114583 .8417969-.03515625 .8222656-.061197919 .79296877-.080729167 .75390627-.09375 .75130209-.057291669 .70182296-.0234375 .60546877 .0078125L.609375 .02734375C.6979167 .01171875 .7532552 .00390625 .7753906 .00390625 .79752609 .00390625 .8125 .03125 .8203125 .0859375 .828125 .140625 .83723959 .28515626 .84765627 .51953127H.67578127C.66796877 .4127604 .6529948 .32421876 .6308594 .25390626 .60872396 .18359375 .57161459 .12044271 .51953127 .064453128 .4674479 .008463542 .3893229-.044270833 .28515626-.09375L.2734375-.08203125C.359375-.032552083 .42578126 .018880209 .47265626 .072265628 .51953127 .12565105 .5546875 .18554688 .578125 .25195313 .6015625 .31835938 .6171875 .4075521 .625 .51953127H.51953127L.47265626 .51171877 .44140626 .54296877H.625M.3046875 .19921875C.37760417 .21744792 .44140626 .23567708 .49609376 .25390626L.50390627 .23828125C.3893229 .19661458 .29752604 .16145833 .22851563 .1328125 .1595052 .104166667 .119791667 .08203125 .109375 .06640625L.0546875 .140625C.09375 .14583333 .16015625 .16145833 .25390626 .1875V.625H.1953125C.16145833 .625 .13020833 .62109377 .1015625 .61328127L.06640625 .6484375H.390625L.43359376 .69140627 .5 .625H.3046875V.19921875Z"/>
<path id="font_3_10679" d="M.13671875 .58203127 .14453125 .59375C.19140625 .578125 .22395833 .56380209 .2421875 .55078127 .26041667 .53776046 .26953126 .5234375 .26953126 .5078125 .26953126 .5 .26627604 .48828126 .25976563 .47265626 .25325523 .45703126 .24739583 .44921876 .2421875 .44921876 .23697917 .44921876 .23046875 .45833335 .22265625 .4765625 .20703125 .5052083 .17838542 .54036459 .13671875 .58203127M.0859375 .2890625C.119791667 .296875 .1953125 .3346354 .3125 .40234376L.3203125 .390625C.28125 .36197917 .24414063 .33268229 .20898438 .30273438 .17382813 .27278648 .14973958 .24609375 .13671875 .22265625L.0859375 .2890625M.8125 .5390625C.7708333 .5078125 .72265627 .47395835 .66796877 .4375L.66015627 .44921876C.71744796 .50390627 .7604167 .55859377 .7890625 .61328127L.8515625 .55078127 .8125 .5390625M.67578127 .390625 .6796875 .40234376C.7708333 .37890626 .82421877 .36002604 .83984377 .34570313 .85546877 .33138023 .86328127 .31510417 .86328127 .296875 .86328127 .28385417 .8613281 .27148438 .8574219 .25976563 .8535156 .24804688 .8489583 .2421875 .84375 .2421875 .8359375 .2421875 .8255208 .25520835 .8125 .28125 .7890625 .31770835 .74348959 .35416667 .67578127 .390625M.4921875 .609375C.42447917 .546875 .38020835 .5078125 .359375 .4921875 .41145835 .4921875 .46875 .4934896 .53125 .49609376 .5625 .52994796 .5859375 .56380209 .6015625 .59765627L.6640625 .5390625C.6432292 .5338542 .6015625 .50130209 .5390625 .44140626 .4765625 .3815104 .42578126 .3359375 .38671876 .3046875 .45703126 .30729167 .5286458 .30989585 .6015625 .3125 .5911458 .33072917 .5755208 .35416667 .5546875 .3828125L.5625 .390625C.609375 .36458335 .640625 .34375 .65625 .328125 .671875 .3125 .6796875 .29947917 .6796875 .2890625 .6796875 .28125 .6744792 .26953126 .6640625 .25390626 .6536458 .23828125 .6458333 .23046875 .640625 .23046875 .6380208 .23046875 .6354167 .234375 .6328125 .2421875 .6276042 .2578125 .6197917 .27604167 .609375 .296875 .5833333 .29427085 .54036459 .2890625 .48046876 .28125L.546875 .2421875 .51953127 .22265625V.15234375H.83203127L.8828125 .203125 .953125 .12890625H.51953127C.51953127 .014322917 .5208333-.055989583 .5234375-.08203125L.46484376-.1015625C.4674479-.033854169 .46875 .04296875 .46875 .12890625H.17578125C.14192708 .12890625 .110677089 .125 .08203125 .1171875L.046875 .15234375H.46875V.27734376C.41145835 .26953126 .36979167 .2565104 .34375 .23828125L.3046875 .3046875C.33854167 .3046875 .3763021 .32552085 .41796876 .3671875 .4596354 .40885417 .4934896 .4453125 .51953127 .4765625 .4231771 .46614585 .36197917 .4518229 .3359375 .43359376L.3046875 .49609376C.32552085 .4934896 .3528646 .51432296 .38671876 .55859377 .4205729 .60286459 .44270835 .63671877 .453125 .66015627H.2265625C.19270833 .66015627 .16145833 .65625 .1328125 .6484375L.09765625 .68359377H.484375C.47916667 .72786459 .45703126 .7708333 .41796876 .8125L.42578126 .8203125C.4778646 .7994792 .5097656 .78190109 .5214844 .7675781 .5332031 .7532552 .5390625 .7421875 .5390625 .734375 .5390625 .71875 .5286458 .70182296 .5078125 .68359377H.78515627L.8359375 .73046877 .90234377 .66015627H.4765625L.52734377 .6171875 .4921875 .609375Z"/>
<path id="font_2_102" d="M.44299317 .7299957C.44299317 .7409973 .43399049 .75 .4229889 .75 .40899659 .75 .40499879 .73999026 .4019928 .7299957L.06098938-.21200562C.055999757-.2250061 .055999757-.23001099 .055999757-.23001099 .055999757-.24101258 .06498718-.25 .07598877-.25 .08999634-.25 .09399414-.2400055 .09700012-.23001099L.43798829 .71199038C.44299317 .72499087 .44299317 .7299957 .44299317 .7299957Z"/>
<path id="font_2_113" d="M1.0089874 .6516113V.6826172C.97898867 .680603 .94799807 .6796112 .91799929 .6796112L.798996 .6826172V.6516113C.8659973 .65060427 .8860016 .6174164 .8860016 .5983734 .8860016 .59236147 .8829956 .58436587 .8809967 .57836917L.73098757 .116363529 .57099917 .606369C.56999209 .6103668 .56799319 .6164093 .56799319 .62142947 .56799319 .6516113 .6259918 .6516113 .6519928 .6516113V.6826172C.6159973 .6796112 .5479889 .6796112 .5099945 .6796112L.3880005 .6826172V.6516113C.44499208 .6516113 .46598817 .6516113 .47799684 .61595156L.5 .5459595 .36099244 .11695862 .19999695 .60894778C.19898987 .61195376 .19799805 .618927 .19799805 .62190249 .19799805 .6516113 .2559967 .6516113 .28199769 .6516113V.6826172C.24598694 .6796112 .17799378 .6796112 .13999939 .6796112L.017990113 .6826172V.6516113C.09298706 .6513672 .09700012 .6463623 .10899353 .609375L.30899049-.003479004C.31199647-.012466431 .31498719-.022460938 .32798768-.022460938 .34199525-.022460938 .34399415-.015472412 .34799195-.0024719239L.5130005 .50538638 .67900088-.003479004C.6819916-.012466431 .68499758-.022460938 .69799807-.022460938 .71199038-.022460938 .71398928-.015472412 .71798709-.0024719239L.9089966 .58496096C.9269867 .6417084 .9700012 .6516113 1.0089874 .6516113Z"/>
<path id="font_2_86" d="M.2889862 .25C.2889862 .32798768 .27799989 .44898988 .22299195 .56199648 .16299439 .68499758 .07699585 .75 .066986087 .75 .06098938 .75 .056991579 .74598696 .056991579 .73999026 .056991579 .7369995 .056991579 .7350006 .07598877 .71699526 .17399597 .6179962 .23098755 .45899964 .23098755 .25 .23098755 .07899475 .19400025-.09700012 .069992069-.2230072 .056991579-.23500061 .056991579-.23701477 .056991579-.2400055 .056991579-.2460022 .06098938-.25 .066986087-.25 .07699585-.25 .16699219-.18200684 .22599793-.055007936 .2769928 .054992677 .2889862 .16600037 .2889862 .25Z"/>
<path id="font_1_3" d="M.43798829 .0055236818C.59298709 .0644989 .73999026 .24256897 .73999026 .43579103 .73999026 .5969696 .6339874 .7050781 .4850006 .7050781 .2689972 .7050781 .04899597 .47784425 .04899597 .24456787 .04899597 .07847595 .16099549-.022460938 .30499269-.022460938 .32998658-.022460938 .3639984-.018463135 .40299989-.007461548 .39898683-.06939697 .39898683-.071380618 .39898683-.084365848 .39898683-.11634827 .39898683-.19433594 .48199464-.19433594 .6009979-.19433594 .6489868-.011474609 .6489868-.00047302247 .6489868 .0065307619 .6419983 .009521484 .6380005 .009521484 .6299896 .009521484 .6279907 .0045318605 .6259918-.0014648438 .60198977-.072387699 .5439911-.097335819 .5089874-.097335819 .46299745-.097335819 .44799806-.070388797 .43798829 .0055236818M.24899292 .013519287C.17098999 .044509889 .13699341 .12245178 .13699341 .21252442 .13699341 .2816162 .16299439 .4237671 .23899842 .5319061 .31199647 .63401797 .4059906 .68006899 .47898866 .68006899 .57899478 .68006899 .6519928 .6019745 .6519928 .4678192 .6519928 .3677063 .6009979 .13345337 .43299867 .039505006 .42799378 .07447815 .41799928 .14746094 .34498597 .14746094 .2919922 .14746094 .24299622 .097473148 .24299622 .04550171 .24299622 .025512696 .24899292 .014526367 .24899292 .013519287M.31098939 .002532959C.29699708 .002532959 .2649994 .002532959 .2649994 .04550171 .2649994 .08547974 .30299378 .12545777 .34498597 .12545777 .3869934 .12545777 .4059906 .10147095 .4059906 .040512086 .4059906 .025512696 .40499879 .024520874 .394989 .020523072 .36898805 .009521484 .33898927 .002532959 .31098939 .002532959Z"/>
<path id="font_3_7184" d="M.44140626 .453125C.44921876 .5494792 .4544271 .63671877 .45703126 .71484377H.24609375C.21223958 .71484377 .18098958 .7109375 .15234375 .703125L.1171875 .73828127H.74609377L.8046875 .796875 .88671877 .71484377H.515625C.5130208 .65755209 .5078125 .5703125 .5 .453125H.78125L.84765627 .51953127 .9375 .4296875H.5859375V.0390625C.5885417 .0052083337 .61067709-.010416667 .65234377-.0078125H.8125C.84375-.0052083337 .8619792 .009765625 .8671875 .037109376 .8723958 .064453128 .87630209 .114583339 .87890627 .1875H.8984375C.8958333 .0703125 .91536459 .01171875 .95703127 .01171875 .93619796-.037760419 .890625-.059895833 .8203125-.0546875H.61328127C.55859377-.0546875 .53125-.032552083 .53125 .01171875V.4296875H.49609376C.4778646 .29947917 .4375 .19335938 .375 .111328128 .3125 .029296875 .20442708-.040364583 .05078125-.09765625L.046875-.08203125C.17708333-.01953125 .27018229 .051432294 .32617188 .13085938 .38216148 .21028646 .41927085 .30989585 .4375 .4296875H.1796875C.14583333 .4296875 .114583339 .42578126 .0859375 .41796876L.05078125 .453125H.44140626Z"/>
<path id="font_2_111" d="M.7299957 .6516113V.6826172C.69898989 .680603 .6589966 .6796112 .6329956 .6796112L.5189972 .6826172V.6516113C.57099917 .6506195 .59199526 .6246033 .59199526 .6016083 .59199526 .5936127 .58898928 .5876007 .58699038 .581604L.4039917 .09954834 .21299744 .60461428C.20698548 .61860659 .20698548 .62260439 .20698548 .62260439 .20698548 .6516113 .2639923 .6516113 .2889862 .6516113V.6826172C.25299073 .6796112 .18399048 .6796112 .1459961 .6796112L.018997193 .6826172V.6516113C.083999637 .6516113 .102996829 .6516113 .116989139 .6136017L.34899903-.00047302247C.35598756-.019470215 .36099244-.022460938 .37399293-.022460938 .3909912-.022460938 .3929901-.017471314 .397995-.0034637452L.62098696 .58461C.6349945 .62161257 .6619873 .6506195 .7299957 .6516113Z"/>
<path id="font_2_28" d="M.48298646 .08912659V.14511109H.45799256V.08912659C.45799256 .03112793 .43299867 .025131226 .42199708 .025131226 .3889923 .025131226 .3849945 .070129398 .3849945 .07511902V.27508546C.3849945 .31707765 .3849945 .3560791 .34899903 .39312745 .30999757 .43223573 .2599945 .4482422 .21199036 .4482422 .12998963 .4482422 .06098938 .40115357 .06098938 .335083 .06098938 .30508424 .08099365 .28808595 .10699463 .28808595 .1349945 .28808595 .15299988 .30807496 .15299988 .33407594 .15299988 .3460846 .147995 .37908937 .101989749 .38008119 .1289978 .41519166 .17799378 .426239 .20999146 .426239 .25898744 .426239 .31599427 .38710023 .31599427 .29808045V.26107789C.2649994 .25808717 .19499207 .25508119 .13198853 .22509766 .056991579 .19110108 .03199768 .13911438 .03199768 .09512329 .03199768 .014251709 .1289978-.0107421879 .19198609-.0107421879 .2579956-.0107421879 .3039856 .029251099 .32299806 .07624817 .32699586 .036132814 .35398866-.005859375 .40098573-.005859375 .42199708-.005859375 .48298646 .008132935 .48298646 .08912659M.31599427 .14013672C.31599427 .04525757 .24398804 .011245728 .19898987 .011245728 .1499939 .011245728 .10899353 .04624939 .10899353 .09625244 .10899353 .15124512 .15098572 .23425293 .31599427 .24024964V.14013672Z"/>
<path id="font_2_96" d="M.3639984 .38137818C.3639984 .41337586 .33299256 .4423828 .2899933 .4423828 .21699524 .4423828 .18099976 .37538148 .16699219 .3323822V.4423828L.027999878 .43066407V.3996582C.09799194 .3996582 .10598755 .39266969 .10598755 .34370423V.07595825C.10598755 .0309906 .09498596 .0309906 .027999878 .0309906V0L.14199829 .0029907227C.18199158 .0029907227 .22898865 .0029907227 .2689972 0V.0309906H.24798584C.17399597 .0309906 .17199707 .04197693 .17199707 .07795715V.23181153C.17199707 .33137513 .21398926 .42037965 .2899933 .42037965 .29699708 .42037965 .29899598 .42037965 .30099488 .41937257 .2979889 .41838075 .27799989 .40637208 .27799989 .3803711 .27799989 .35237123 .29899598 .33737184 .32099916 .33737184 .33898927 .33737184 .3639984 .3493805 .3639984 .38137818Z"/>
<path id="font_1_4" d="M.644989 .69506838C.644989 .69807437 .6429901 .7050781 .6339874 .7050781 .6289978 .7050781 .6279907 .70407107 .6159973 .6900635L.56799319 .6330414C.5419922 .68006899 .48999024 .7050781 .4249878 .7050781 .2979889 .7050781 .17799378 .58999636 .17799378 .4689026 .17799378 .38783265 .23098755 .34179688 .28199769 .32678224L.3889923 .2987671C.42599488 .2897644 .48098756 .27474977 .48098756 .19267273 .48098756 .1026001 .39898683 .008529663 .30099488 .008529663 .23699951 .008529663 .12599182 .030548096 .12599182 .15464783 .12599182 .17866516 .1309967 .2026825 .13198853 .20869446 .1329956 .21269226 .13398743 .21369934 .13398743 .21569824 .13398743 .22570801 .1269989 .22669983 .12199402 .22669983 .116989139 .22669983 .114990238 .22570801 .11199951 .22270203 .10798645 .21870423 .051986696-.009475708 .051986696-.012466431 .051986696-.018463135 .056991579-.022460938 .06298828-.022460938 .067993167-.022460938 .068984989-.021469117 .08099365-.007461548L.12998963 .049560548C.17298889-.008468628 .24099732-.022460938 .29899598-.022460938 .43499757-.022460938 .5529938 .11061096 .5529938 .2347107 .5529938 .30377198 .5189972 .33779908 .5039978 .35180665 .48098756 .37483216 .46598817 .37882997 .3769989 .40185548 .35499574 .40785218 .31900025 .41786195 .30999757 .41986085 .2829895 .42886354 .24899292 .457901 .24899292 .51094058 .24899292 .59199526 .32899476 .677063 .42399598 .677063 .5069885 .677063 .56799319 .6340332 .56799319 .52194216 .56799319 .48991395 .56399539 .47190858 .56399539 .4658966 .56399539 .4649048 .56399539 .45588685 .57598879 .45588685 .58599856 .45588685 .58699038 .45889283 .59098818 .47590638L.644989 .69506838Z"/>
<path id="font_3_16374" d="M.84765627 .6953125C.84765627 .47135417 .8489583 .3372396 .8515625 .29296876L.796875 .26171876V.70703127H.515625V.28515626L.4609375 .25C.46354167 .29427085 .46484376 .37825523 .46484376 .5019531 .46484376 .62565109 .46354167 .7135417 .4609375 .765625L.51953127 .73046877H.7890625L.8203125 .76953127 .87890627 .71875 .84765627 .6953125M.62109377 .62890627 .71484377 .58203127 .6796875 .5546875C.6796875 .45833335 .6751302 .37695313 .6660156 .31054688 .65690109 .24414063 .63997396 .18684896 .6152344 .13867188 .5904948 .09049479 .5520833 .046223958 .5 .005859375 .44791667-.034505208 .38541667-.069010417 .3125-.09765625L.3046875-.0859375C.40885417-.028645834 .4830729 .029947916 .52734377 .08984375 .57161459 .14973958 .5996094 .22005208 .6113281 .30078126 .6230469 .3815104 .62630209 .4908854 .62109377 .62890627M.66796877-.01171875V.1796875C.66796877 .20833333 .6666667 .25260417 .6640625 .3125L.75390627 .265625 .71875 .23828125V.015625C.71875-.0078125 .73307296-.018229166 .76171877-.015625H.84765627C.87109377-.015625 .8854167 .00390625 .890625 .04296875 .8958333 .08203125 .8984375 .123697917 .8984375 .16796875H.91796877C.91796877 .115885417 .9199219 .076822917 .9238281 .05078125 .9277344 .024739584 .9401042 .0078125 .9609375 0 .9479167-.036458333 .91796877-.057291669 .87109377-.0625H.734375C.6901042-.0625 .66796877-.045572919 .66796877-.01171875M.21875-.09765625C.22135417-.048177083 .22265625 .104166667 .22265625 .359375 .17578125 .296875 .115885417 .24088542 .04296875 .19140625L.03515625 .203125C.108072917 .27083335 .16601563 .34114585 .20898438 .4140625 .25195313 .48697917 .28125 .54296877 .296875 .58203127H.13671875L.0859375 .57421877 .0546875 .60546877H.296875L.328125 .6484375 .39453126 .5859375 .35546876 .56640627C.3294271 .52213546 .30208335 .4752604 .2734375 .42578126V.390625C.33072917 .3671875 .3684896 .34700523 .38671876 .33007813 .4049479 .31315104 .4140625 .2955729 .4140625 .27734376 .4140625 .2669271 .41080729 .25390626 .40429688 .23828125 .39778648 .22265625 .39322917 .21484375 .390625 .21484375 .3828125 .21484375 .37239585 .22786458 .359375 .25390626 .34114585 .29296876 .3125 .33072917 .2734375 .3671875 .2734375 .111979167 .2747396-.03125 .27734376-.0625L.21875-.09765625M.15625 .796875 .1640625 .8046875C.21875 .7760417 .25195313 .7532552 .26367188 .7363281 .27539063 .71940109 .28125 .70442709 .28125 .69140627 .28125 .67578127 .27539063 .6614583 .26367188 .6484375 .25195313 .6354167 .24479167 .62890627 .2421875 .62890627 .23177083 .62890627 .22395833 .64192709 .21875 .66796877 .2109375 .70703127 .19010417 .75 .15625 .796875Z"/>
<path id="font_3_3416" d="M.20703125 .375C.20703125 .3828125 .20572917 .40234376 .203125 .43359376L.2421875 .41796876C.28645835 .47265626 .3294271 .54036459 .37109376 .62109377H.19921875C.16536458 .62109377 .13411458 .6171875 .10546875 .609375L.0703125 .64453127H.37890626C.4075521 .71484377 .42578126 .7734375 .43359376 .8203125L.5234375 .7734375 .484375 .75C.4765625 .7265625 .4609375 .69140627 .4375 .64453127H.78125L.83984377 .703125 .921875 .62109377H.4296875C.375 .51432296 .3203125 .43229167 .265625 .375V-.05859375L.20703125-.08984375C.20963542-.048177083 .2109375-.010416667 .2109375 .0234375V.3203125C.15104167 .265625 .095052089 .22265625 .04296875 .19140625L.03515625 .203125C.11328125 .27083335 .17057292 .328125 .20703125 .375M.5625 .4921875C.5625 .5104167 .56119796 .54296877 .55859377 .58984377L.6484375 .55078127 .6171875 .5234375V.36328126H.765625L.81640627 .4140625 .890625 .33984376H.6171875V.02734375H.8125L.8671875 .08203125 .9453125 .00390625H.4140625C.38020835 .00390625 .34895835 0 .3203125-.0078125L.28515626 .02734375H.5625V.33984376H.46484376C.4309896 .33984376 .3997396 .3359375 .37109376 .328125L.3359375 .36328126H.5625V.4921875Z"/>
<path id="font_2_27" d="M.71699526 0V.0309906H.69898989C.6389923 .0309906 .625 .037979127 .6139984 .07095337L.397995 .6958008C.3929901 .7088165 .3909912 .7158203 .375 .7158203 .35899354 .7158203 .35598756 .70980837 .35099793 .6958008L.14399719 .09791565C.12599182 .04698181 .085998538 .03199768 .03199768 .0309906V0L.13398743 .0029907227 .24899292 0V.0309906C.19898987 .0309906 .17399597 .05596924 .17399597 .0819397 .17399597 .08493042 .1749878 .09492493 .17599488 .09692383L.22200012 .2277832H.46899415L.5219879 .07495117C.522995 .07095337 .5249939 .064956668 .5249939 .060958864 .5249939 .0309906 .46899415 .0309906 .44198609 .0309906V0C.47799684 .0029907227 .5479889 .0029907227 .58599856 .0029907227L.71699526 0M.45799256 .25878907H.23298645L.34498597 .58380129 .45799256 .25878907Z"/>
<path id="font_1_1" d="M.16999817-.16976929C.1659851-.18278504 .16499329-.18478394 .16499329-.18977356 .16499329-.21177674 .18399048-.21777344 .19400025-.21777344 .19898987-.21777344 .22099304-.21478272 .23098755-.19178772 .23399353-.18377686 .23899842-.1507721 .2659912-.008743286 .2749939-.009750366 .28199769-.0107421879 .29899598-.0107421879 .46499635-.0107421879 .61898806 .14628601 .61898806 .3043518 .61898806 .38237 .5799866 .4423828 .5049896 .4423828 .3600006 .4423828 .2999878 .24832154 .23999024 .053253175 .13198853 .07325745 .07598877 .12928772 .07598877 .2013092 .07598877 .22932434 .09899902 .33935548 .15899658 .40837098 .16699219 .41737367 .16699219 .41937257 .16699219 .42137147 .16699219 .42536927 .16499329 .43138124 .15499878 .43138124 .1269989 .43138124 .049987794 .28634645 .049987794 .19030762 .049987794 .0962677 .115997318 .023254395 .22299195-.0017547608L.16999817-.16976929M.30799867 .04725647C.2999878 .04725647 .2979889 .04725647 .2899933 .04824829 .27799989 .04824829 .2769928 .04925537 .2769928 .052246095 .2769928 .054260255 .2939911 .14529419 .29699708 .16029358 .32798768 .28834535 .4059906 .3843689 .49499513 .3843689 .56399539 .3843689 .59098818 .33035279 .59098818 .28233338 .59098818 .16929627 .46199037 .04725647 .30799867 .04725647Z"/>
<path id="font_3_1955" d="M.2734375 .796875 .28125 .80859377C.33333335 .77994796 .37239585 .75390627 .3984375 .73046877 .42447917 .70703127 .4375 .6848958 .4375 .6640625 .4375 .6510417 .43294273 .63671877 .42382813 .62109377 .41471354 .60546877 .40885417 .59765627 .40625 .59765627 .39583335 .59765627 .3841146 .61588546 .37109376 .65234377 .3502604 .70442709 .31770835 .7526042 .2734375 .796875M.52734377 .546875C.52473959 .47916667 .5208333 .40885417 .515625 .3359375H.8125L.87109377 .39453126 .953125 .3125H.56640627C.58984377 .24479167 .63151046 .1796875 .69140627 .1171875 .75130209 .0546875 .8385417 .0078125 .953125-.0234375V-.03515625C.9114583-.037760419 .8828125-.0546875 .8671875-.0859375 .796875-.049479169 .7324219-.0006510417 .6738281 .060546876 .6152344 .12174479 .57161459 .20572917 .54296877 .3125H.51171877C.48828126 .21614583 .43815104 .13346355 .36132813 .064453128 .28450523-.0045572917 .18359375-.05859375 .05859375-.09765625L.0546875-.08203125C.1875-.024739584 .2825521 .038411458 .33984376 .107421878 .3971354 .1764323 .43489585 .24479167 .453125 .3125H.18359375C.14973958 .3125 .118489589 .30859376 .08984375 .30078126L.0546875 .3359375H.45703126C.4622396 .39322917 .46484376 .46354167 .46484376 .546875H.234375C.20052083 .546875 .16927083 .54296877 .140625 .53515627L.10546875 .5703125H.546875C.5677083 .6067708 .58723959 .64908859 .60546877 .6972656 .62369796 .7454427 .63671877 .78515627 .64453127 .81640627L.73828127 .75390627 .69140627 .734375C.64713546 .6666667 .60807296 .6119792 .57421877 .5703125H.77734377L.83203127 .625 .91015627 .546875H.52734377Z"/>
<path id="font_3_13099" d="M.77734377 .3046875 .5625 .2890625V.03125C.5677083-.03125 .53776046-.071614589 .47265626-.08984375 .47265626-.048177083 .43229167-.018229166 .3515625 0V.015625C.41927085 .0078125 .46289063 .00390625 .48242188 .00390625 .5019531 .00390625 .5104167 .022135416 .5078125 .05859375V.28125C.43489585 .27604167 .37565104 .26888023 .33007813 .25976563 .28450523 .25065104 .24869792 .24088542 .22265625 .23046875L.18359375 .3046875C.21223958 .30729167 .25716148 .32291667 .31835938 .3515625 .37955729 .38020835 .46484376 .4283854 .57421877 .49609376 .4700521 .4856771 .3971354 .47591148 .35546876 .46679688 .3138021 .45768229 .2799479 .4466146 .25390626 .43359376L.21484375 .51171877C.2513021 .51432296 .29622398 .5358073 .34960938 .5761719 .40299479 .61653646 .4466146 .6614583 .48046876 .7109375 .3268229 .7005208 .22005208 .6953125 .16015625 .6953125V.7109375C.31640626 .7239583 .4440104 .7389323 .54296877 .7558594 .64192709 .77278646 .72526046 .7942708 .79296877 .8203125L.8515625 .74609377C.8125 .74869796 .7597656 .74609377 .6933594 .73828127 .6269531 .73046877 .56119796 .72265627 .49609376 .71484377L.57421877 .67578127C.54036459 .67057296 .49479167 .64453127 .4375 .59765627 .37760417 .55078127 .33203126 .5208333 .30078126 .5078125L.609375 .51953127C.6588542 .55338546 .69661459 .58723959 .72265627 .62109377L.796875 .55859377C.7682292 .55598959 .73567709 .5442708 .69921877 .5234375 .66015627 .5 .59440109 .4622396 .5019531 .41015626 .40950523 .3580729 .34114585 .3216146 .296875 .30078126L.76171877 .32421876C.72265627 .36328126 .6901042 .3919271 .6640625 .41015626L.671875 .421875C.7421875 .39583335 .7936198 .37304688 .8261719 .35351563 .85872396 .33398438 .87565109 .31315104 .8769531 .29101563 .8782552 .26888023 .8730469 .24869792 .8613281 .23046875 .8496094 .21223958 .8378906 .21354167 .8261719 .234375 .8144531 .25520835 .79817709 .27864585 .77734377 .3046875M.625 .203125C.7473958 .15104167 .8235677 .114583339 .8535156 .09375 .88346359 .072916667 .89973959 .050130208 .90234377 .025390625 .90494796 .0006510417 .9016927-.018229166 .8925781-.03125 .88346359-.044270833 .8776042-.05078125 .875-.05078125 .8619792-.05078125 .84765627-.03515625 .83203127-.00390625 .80598959 .04296875 .734375 .108072917 .6171875 .19140625L.625 .203125M.3515625 .21875 .421875 .1484375C.40104167 .1484375 .3580729 .123697917 .29296876 .07421875 .22786458 .022135416 .15234375-.022135416 .06640625-.05859375L.05859375-.046875C.115885417-.013020833 .17122396 .026692709 .22460938 .072265628 .27799479 .11783854 .3203125 .16666667 .3515625 .21875Z"/>
<path id="font_3_1948" d="M.24609375 .02734375 .70703127 .03515625C.67838546 .087239589 .63671877 .14713542 .58203127 .21484375L.59375 .2265625C.6901042 .1484375 .74934896 .092447917 .7714844 .05859375 .7936198 .024739584 .8046875-.0013020834 .8046875-.01953125 .8046875-.03515625 .7988281-.050130208 .7871094-.064453128 .7753906-.07877604 .76692709-.0859375 .76171877-.0859375 .75651046-.0859375 .75-.076822917 .7421875-.05859375 .7317708-.02734375 .72265627-.0026041668 .71484377 .015625 .46484376-.0026041668 .32291667-.015625 .2890625-.0234375 .25520835-.03125 .22916667-.041666669 .2109375-.0546875L.16796875 .02734375C.18880208 .02734375 .21484375 .044270833 .24609375 .078125 .27734376 .111979167 .31966148 .16927083 .37304688 .25 .42643229 .33072917 .4622396 .40234376 .48046876 .46484376L.56640627 .3984375 .5234375 .37890626C.42708335 .23307292 .3346354 .115885417 .24609375 .02734375M.37109376 .78125 .4609375 .72265627 .41796876 .69921877C.33203126 .51692709 .22005208 .38020835 .08203125 .2890625L.0703125 .30078126C.16666667 .3919271 .2389323 .48111979 .28710938 .5683594 .33528648 .65559896 .36328126 .7265625 .37109376 .78125M.6328125 .78125 .59765627 .7578125C.62109377 .6770833 .6621094 .5983073 .7207031 .5214844 .7792969 .44466148 .85286459 .3919271 .94140627 .36328126V.3515625C.89973959 .3515625 .8697917 .3359375 .8515625 .3046875 .7786458 .36197917 .7154948 .43229167 .6621094 .515625 .60872396 .5989583 .5729167 .69661459 .5546875 .80859377L.6328125 .78125Z"/>
<path id="font_3_5439" d="M.34375 .08984375 .5703125 .140625 .57421877 .125C.4153646 .075520839 .30143229 .038411458 .23242188 .013671875 .16341146-.011067708 .123697917-.03125 .11328125-.046875L.05859375 .02734375C.14192708 .04296875 .21875 .05859375 .2890625 .07421875V.375H.22265625C.18880208 .375 .15755208 .37109376 .12890625 .36328126L.09375 .3984375H.41015626L.4609375 .44921876 .53515627 .375H.34375V.08984375M.69140627 .77734377C.74088546 .75911459 .7766927 .74283859 .7988281 .7285156 .82096359 .7141927 .8313802 .6979167 .8300781 .6796875 .82877609 .6614583 .82421877 .6484375 .81640627 .640625 .80859377 .6328125 .8020833 .62890627 .796875 .62890627 .7864583 .62890627 .77734377 .63932296 .76953127 .66015627 .75390627 .69140627 .72526046 .7265625 .68359377 .765625L.69140627 .77734377M.60546877 .74609377C.60546877 .68619796 .6067708 .63411459 .609375 .58984377H.7890625L.8515625 .65234377 .9375 .56640627H.609375C.6197917 .43359376 .6373698 .33138023 .6621094 .25976563 .68684896 .18815105 .7154948 .1328125 .7480469 .09375 .78059896 .0546875 .8229167 .024739584 .875 .00390625 .8828125 .055989583 .89192709 .118489589 .90234377 .19140625H.921875C.9192708 .08984375 .92122396 .022786459 .9277344-.009765625 .9342448-.042317708 .9427083-.06640625 .953125-.08203125 .9583333-.08984375 .9557292-.09375 .9453125-.09375 .9348958-.09375 .90559896-.08528646 .8574219-.068359378 .8092448-.051432294 .7630208-.018880209 .71875 .029296875 .6744792 .07747396 .6380208 .14453125 .609375 .23046875 .5807292 .31640626 .5625 .4283854 .5546875 .56640627H.2109375C.17708333 .56640627 .14583333 .5625 .1171875 .5546875L.08203125 .58984377H.55078127C.54817709 .66536459 .54557296 .74088546 .54296877 .81640627L.640625 .7734375 .60546877 .74609377Z"/>
<path id="font_3_726" d="M.2421875 .10546875C.2578125 .095052089 .26497398 .07747396 .26367188 .052734376 .26236979 .027994791 .25260417 .010416667 .234375 0 .21614583-.010416667 .203125-.015625 .1953125-.015625 .1875-.015625 .17447917-.010416667 .15625 0 .13802083 .010416667 .1282552 .028645834 .12695313 .0546875 .12565105 .080729167 .13346355 .09830729 .15039063 .107421878 .1673177 .11653646 .18229167 .12109375 .1953125 .12109375 .2109375 .12109375 .2265625 .115885417 .2421875 .10546875M.2421875 .34179688C.26041667 .33268229 .26953126 .31445313 .26953126 .28710938 .26953126 .25976563 .2591146 .24153646 .23828125 .23242188 .21744792 .2233073 .203125 .21875 .1953125 .21875 .18229167 .21875 .1673177 .22460938 .15039063 .23632813 .13346355 .24804688 .12565105 .26627604 .12695313 .29101563 .1282552 .31575523 .13802083 .33268229 .15625 .34179688 .17447917 .35091148 .18880208 .35546876 .19921875 .35546876 .20963542 .35546876 .22395833 .35091148 .2421875 .34179688Z"/>
<path id="font_4_2" d="M.68699648 .32714845C.70199587 .32714845 .72099307 .32714845 .72099307 .34713746 .72099307 .36714173 .70199587 .36714173 .6879883 .36714173H.08898926C.07499695 .36714173 .055999757 .36714173 .055999757 .34713746 .055999757 .32714845 .07499695 .32714845 .08999634 .32714845H.68699648M.6879883 .13284302C.70199587 .13284302 .72099307 .13284302 .72099307 .15284729 .72099307 .17285156 .70199587 .17285156 .68699648 .17285156H.08999634C.07499695 .17285156 .055999757 .17285156 .055999757 .15284729 .055999757 .13284302 .07499695 .13284302 .08898926 .13284302H.6879883Z"/>
<path id="font_5_1" d="M.3889923-.8549652 .21299744-.4659729C.20599365-.44996644 .20098877-.44996644 .19799805-.44996644 .19699097-.44996644 .19198609-.44996644 .18099976-.45796205L.085998538-.52996829C.07299805-.53996279 .07299805-.54296877 .07299805-.54597476 .07299805-.55096438 .07598877-.55696108 .08299255-.55696108 .08898926-.55696108 .10598755-.54296877 .116989139-.53497317 .12298584-.52996829 .13798523-.5189667 .14898682-.51097109L.34599305-.9439697C.35299684-.95996096 .35798646-.95996096 .36698915-.95996096 .38198854-.95996096 .3849945-.95396426 .3919983-.9399719L.84599307 .000030517579C.8529968 .014038086 .8529968 .018035889 .8529968 .02003479 .8529968 .030029297 .8450012 .040039064 .83299258 .040039064 .82499697 .040039064 .81799319 .03503418 .80999758 .01902771L.3889923-.8549652Z"/>
<path id="font_6_1" d="M.5049896 .18203736H.47099305C.46798707 .16001892 .45799256 .100997928 .44499208 .09098816 .43699647 .084991458 .3600006 .084991458 .34599305 .084991458H.1619873C.2669983 .17803955 .3019867 .20603943 .3619995 .25306703 .43598939 .312088 .5049896 .374115 .5049896 .46914674 .5049896 .5900879 .39898683 .6640625 .2709961 .6640625 .14698792 .6640625 .06298828 .57710269 .06298828 .4851532 .06298828 .43414308 .10598755 .42915345 .115997318 .42915345 .13999939 .42915345 .16899109 .44615174 .16899109 .48214723 .16899109 .5001526 .1619873 .53515627 .10998535 .53515627 .14099121 .6060791 .20899964 .62805178 .2559967 .62805178 .35598756 .62805178 .4079895 .5501404 .4079895 .46914674 .4079895 .38212586 .34599305 .3130951 .31399537 .27708436L.07299805 .038986207C.06298828 .02999878 .06298828 .027999878 .06298828 0H.47499085L.5049896 .18203736Z"/>
<path id="font_4_1" d="M.40899659 .23046875H.6879883C.70199587 .23046875 .72099307 .23046875 .72099307 .25045777 .72099307 .27046205 .70199587 .27046205 .6879883 .27046205H.40899659V.5500183C.40899659 .56399539 .40899659 .5830078 .3889923 .5830078 .36898805 .5830078 .36898805 .56399539 .36898805 .5500183V.27046205H.08898926C.07499695 .27046205 .055999757 .27046205 .055999757 .25045777 .055999757 .23046875 .07499695 .23046875 .08898926 .23046875H.36898805V-.05000305C.36898805-.06401062 .36898805-.08300781 .3889923-.08300781 .40899659-.08300781 .40899659-.06401062 .40899659-.05000305V.23046875Z"/>
<path id="font_2_43" d="M.4149933 .119140628C.4149933 .12911988 .40499879 .12911988 .4019928 .12911988 .3929901 .12911988 .3909912 .12512207 .3889923 .119140628 .3600006 .026229859 .29499818 .014251709 .2579956 .014251709 .20498657 .014251709 .116989139 .0572052 .116989139 .21801758 .116989139 .38093568 .19898987 .42323304 .2519989 .42323304 .26098634 .42323304 .32398988 .42222596 .35899354 .38594056 .31799317 .38293458 .31199647 .3529358 .31199647 .3399353 .31199647 .31393434 .32998658 .2939453 .35798646 .2939453 .38398744 .2939453 .4039917 .3109436 .4039917 .34094239 .4039917 .40911866 .32798768 .4482422 .25099183 .4482422 .12599182 .4482422 .033996583 .3399353 .033996583 .21601868 .033996583 .08816528 .1329956-.0107421879 .24899292-.0107421879 .3829956-.0107421879 .4149933 .10914612 .4149933 .119140628Z"/>
<path id="font_2_81" d="M.47099305 .21424866C.47099305 .34223939 .37098695 .4482422 .25 .4482422 .125 .4482422 .027999878 .3392334 .027999878 .21424866 .027999878 .085250858 .13198853-.0107421879 .24899292-.0107421879 .36999513-.0107421879 .47099305 .087249759 .47099305 .21424866M.3880005 .22224427C.3880005 .18624878 .3880005 .13224793 .3659973 .08824158 .34399415 .04324341 .2999878 .014251709 .25 .014251709 .20698548 .014251709 .16299439 .035247804 .13598633 .08125305 .11099243 .12524414 .11099243 .18624878 .11099243 .22224427 .11099243 .26124574 .11099243 .31523133 .1349945 .35923768 .1619873 .40522767 .20899964 .426239 .24899292 .426239 .29299928 .426239 .33599855 .40423585 .3619995 .36123658 .3880005 .3182373 .3880005 .26023866 .3880005 .22224427Z"/>
<path id="font_2_98" d="M.3600006 .12823487C.3600006 .18122864 .32998658 .21122742 .31799317 .22323609 .2849884 .25523377 .24598694 .26322938 .20399475 .27124024 .147995 .28224183 .08099365 .29522706 .08099365 .35324098 .08099365 .38822938 .10699463 .42922975 .19299317 .42922975 .30299378 .42922975 .30799867 .3392334 .30999757 .30822755 .31098939 .2992401 .32199098 .2992401 .32199098 .2992401 .33499146 .2992401 .33499146 .30422975 .33499146 .32322694V.4242401C.33499146 .4412384 .33499146 .4482422 .32398988 .4482422 .31900025 .4482422 .31698609 .4482422 .3039856 .43623353 .30099488 .43223573 .29100038 .42323304 .2869873 .42022706 .24899292 .4482422 .20799256 .4482422 .19299317 .4482422 .070999149 .4482422 .032989503 .38124085 .032989503 .3252411 .032989503 .29023744 .04899597 .26223756 .07598877 .24023438 .10798645 .2142334 .13598633 .2082367 .20799256 .19422913 .22999573 .19021607 .31199647 .17422486 .31199647 .10221863 .31199647 .051223756 .2769928 .011245728 .19898987 .011245728 .114990238 .011245728 .07899475 .068222049 .05999756 .1532135 .056991579 .16621399 .055999757 .17021179 .04598999 .17021179 .032989503 .17021179 .032989503 .16322327 .032989503 .1452179V.013214111C.032989503-.003753662 .032989503-.0107421879 .04399109-.0107421879 .04899597-.0107421879 .049987794-.009750366 .068984989 .009246826 .070999149 .011245728 .070999149 .013214111 .08898926 .032226564 .1329956-.009750366 .17799378-.0107421879 .19898987-.0107421879 .31399537-.0107421879 .3600006 .05621338 .3600006 .1282196V.12823487Z"/>
<path id="font_7_1" d="M.34098817 .30978395H.5219879C.69099429 .30978395 .83399966 .41773988 .83399966 .52667239 .83399966 .6106262 .7519989 .6826172 .61499026 .6826172H.2649994C.24499512 .6826172 .23298645 .6826172 .23298645 .660614 .23298645 .64660647 .24398804 .64660647 .2659912 .64660647 .28199769 .64660647 .28599549 .64660647 .3039856 .64460757 .32398988 .64260867 .32598878 .64060977 .32598878 .63061526 .32598878 .62861636 .32598878 .6236267 .32199098 .6086273L.18998719 .081954959C.17999268 .04298401 .1789856 .035995485 .100997928 .035995485 .08299255 .035995485 .070999149 .035995485 .070999149 .01399231 .070999149 .0129852299 .070999149 0 .08699036 0 .115997318 0 .18798828 .0039978029 .21699524 .0039978029 .23399353 .0039978029 .2689972 .0039978029 .28599549 .0029907227 .30599977 .0019989014 .33099366 0 .34999085 0 .35598756 0 .37098695 0 .37098695 .021987915 .37098695 .035995485 .35899354 .035995485 .33898927 .035995485 .33799745 .035995485 .31900025 .035995485 .30099488 .037994386 .27799989 .039993287 .27799989 .04298401 .27799989 .052978517 .27799989 .053985597 .27799989 .05996704 .28199769 .07496643L.34098817 .30978395M.41299439 .6126251C.42099 .6436157 .42199708 .64660647 .46398927 .64660647H.58099368C.673996 .64660647 .7319946 .6186218 .7319946 .54766848 .7319946 .51667788 .7200012 .43772889 .66999819 .39276124 .6339874 .3607788 .57699587 .34179688 .5049896 .34179688H.34498597L.41299439 .6126251Z"/>
<path id="font_7_3" d="M.70999148 .6901245C.70999148 .69511416 .70700076 .703125 .69699099 .703125 .69099429 .703125 .6899872 .7021179 .6769867 .68911746L.6279907 .6321411C.58999636 .6851196 .5269928 .703125 .46598817 .703125 .32499696 .703125 .19999695 .5891571 .19999695 .4742279 .19999695 .45922853 .20298767 .4192505 .23298645 .38227845 .2669983 .34228517 .3039856 .33329774 .37199403 .31730653 .3919983 .31230165 .44198609 .3013153 .45700074 .2973175 .4889984 .2893219 .5499878 .26733399 .5499878 .19236756 .5499878 .11140442 .46499635 .016464234 .35099793 .016464234 .2630005 .016464234 .15699768 .047439577 .15699768 .15838623 .15699768 .16838074 .15899658 .19036865 .16299439 .20835877 .1639862 .21235657 .1639862 .21336365 .1639862 .21435547 .1639862 .22735596 .1519928 .22735596 .147995 .22735596 .13398743 .22735596 .1329956 .22535706 .1289978 .20736695L.07798767 .007461548C.07699585 .0034637452 .07499695-.002532959 .07499695-.007537842 .07499695-.013534546 .07899475-.01953125 .08898926-.01953125 .09498596-.01953125 .09599304-.018539429 .10899353-.0055389406 .11999512 .006454468 .1459961 .03845215 .15699768 .050445558 .20999146-.007537842 .28799439-.01953125 .34799195-.01953125 .49899293-.01953125 .62098696 .1104126 .62098696 .22834778 .62098696 .2723236 .6029968 .31230165 .58099368 .33529664 .54599 .37127687 .5309906 .37527467 .4019928 .40525819 .3809967 .41026307 .34799195 .41825868 .33898927 .4212494 .31399537 .43025209 .27198792 .4552307 .27198792 .51220706 .27198792 .591156 .36099244 .67111209 .46499635 .67111209 .57299807 .67111209 .625 .6101532 .625 .51519778 .625 .5022125 .62098696 .47921754 .62098696 .4702301 .62098696 .4562378 .6329956 .4562378 .6380005 .4562378 .6529999 .4562378 .6539917 .46122743 .6579895 .4782257L.70999148 .6901245Z"/>
<path id="font_2_105" d="M.33198548 .12385559V.18066406H.30699159V.12585449C.30699159 .052108766 .2769928 .014251709 .23999024 .014251709 .17298889 .014251709 .17298889 .10491943 .17298889 .12187195V.3996582H.31599427V.43066407H.17298889V.6142578H.147995C.14698792 .5324249 .116989139 .42565919 .018997193 .42166139V.3996582H.10398865V.12408447C.10398865 .0012512207 .19699097-.0107421879 .23298645-.0107421879 .3039856-.0107421879 .33198548 .060180665 .33198548 .12408447V.12385559Z"/>
<path id="font_2_77" d="M.5349884 0V.0309906C.48298646 .0309906 .45799256 .0309906 .45700074 .061019899V.25221253C.45700074 .3383026 .45700074 .36932374 .42599488 .405365 .4119873 .42237855 .3789978 .4423828 .32099916 .4423828 .24798584 .4423828 .20098877 .39935304 .17298889 .33729554V.4423828L.03199768 .43066407V.3996582C.101989749 .3996582 .10998535 .39266969 .10998535 .34370423V.07595825C.10998535 .0309906 .09899902 .0309906 .03199768 .0309906V0L.14498902 .0029907227 .25698854 0V.0309906C.18998719 .0309906 .1789856 .0309906 .1789856 .07595825V.25978089C.1789856 .36431886 .25 .42037965 .31399537 .42037965 .3769989 .42037965 .3880005 .36631776 .3880005 .30926515V.076034549C.3880005 .0309906 .3769989 .0309906 .30999757 .0309906V0L.4229889 .0029907227 .5349884 0Z"/>
<path id="font_7_2" d="M.46499635-.060012819C.46499635-.12535095 .47799684-.19433594 .55999758-.19433594 .68099978-.19433594 .7389984-.021560669 .7389984 .00045776368 .7389984 .007461548 .73298647 .014465332 .72499087 .014465332 .71499636 .014465332 .71199038 .0054626467 .71099856 .0014648438 .68699648-.069107059 .62098696-.08934021 .58699038-.08934021 .5469971-.08934021 .526001-.072143558 .5079956 .008468628 .6859894 .07141113 .82899478 .24832154 .82899478 .42523194 .82899478 .5821686 .71598818 .703125 .5389862 .703125 .2999878 .703125 .068984989 .47920228 .068984989 .25431825 .068984989 .09338379 .18798828-.01953125 .3600006-.01953125 .3789978-.01953125 .41299439-.018539429 .46499635-.0055389406V-.060012819M.2919922 .02545166C.23999024 .043426515 .1659851 .09538269 .1659851 .22932434 .1659851 .29328919 .18699646 .426239 .27799989 .5391846 .34098817 .6161499 .43798829 .67111209 .5309906 .67111209 .6399994 .67111209 .7319946 .5981598 .7319946 .45222474 .7319946 .3522644 .68299868 .13735962 .5 .046432496 .48399354 .109375 .45799256 .15136719 .39898683 .15136719 .34298707 .15136719 .28799439 .10437012 .28799439 .05142212 .28799439 .033447267 .2889862 .032440187 .2919922 .02545166M.46499635 .030441285C.44299317 .022445679 .4059906 .012466431 .36698915 .012466431 .35099793 .012466431 .31599427 .012466431 .31599427 .05142212 .31599427 .08938599 .35699464 .12335205 .39898683 .12335205 .43499757 .12335205 .46199037 .1073761 .46499635 .030441285Z"/>
</defs>
<path transform="matrix(1,0,0,-1,16.472,87.335)" stroke-width=".59776" stroke-linecap="butt" stroke-miterlimit="10" stroke-linejoin="miter" fill="none" stroke="#bfbfbf" d="M-14.17339 0H109.80006"/>
<path transform="matrix(1,0,0,-1,124.18042,87.335)" d="M4.82758 0 .96512 1.45822 2.24107 0 .96512-1.45822Z" fill="#bfbfbf"/>
<path transform="matrix(1,0,0,-1,124.18042,87.335)" stroke-width=".59776" stroke-linecap="butt" stroke-miterlimit="10" stroke-linejoin="miter" fill="none" stroke="#bfbfbf" d="M4.82758 0 .96512 1.45822 2.24107 0 .96512-1.45822Z"/>
<path transform="matrix(1,0,0,-1,16.472,87.335)" stroke-width=".59776" stroke-linecap="butt" stroke-miterlimit="10" stroke-linejoin="miter" fill="none" stroke="#bfbfbf" d="M0-14.17339V81.45326"/>
<path transform="matrix(0,-1,-1,-0,16.472,7.973381)" d="M4.82758 0 .96512 1.45822 2.24107 0 .96512-1.45822Z" fill="#bfbfbf"/>
<path transform="matrix(0,-1,-1,-0,16.472,7.973381)" stroke-width=".59776" stroke-linecap="butt" stroke-miterlimit="10" stroke-linejoin="miter" fill="none" stroke="#bfbfbf" d="M4.82758 0 .96512 1.45822 2.24107 0 .96512-1.45822Z"/>
<path transform="matrix(1,0,0,-1,16.472,87.335)" stroke-width="1.59404" stroke-linecap="butt" stroke-miterlimit="10" stroke-linejoin="miter" fill="none" stroke="#0000ff" d="M0 0H85.04042"/>
<use data-text="P" xlink:href="#font_1_2" transform="matrix(10.5,0,0,-10.5,20.037003,100.244998)" fill="#0000ff"/>
<use data-text="(" xlink:href="#font_2_85" transform="matrix(10.5,0,0,-10.5,31.733002,100.244998)" fill="#0000ff"/>
<use data-text="&#x6709;" xlink:href="#font_3_7481" transform="matrix(10.5,0,0,-10.5,35.818,100.244998)" fill="#0000ff"/>
<use data-text="&#x529f;" xlink:href="#font_3_2255" transform="matrix(10.5,0,0,-10.5,46.318,100.244998)" fill="#0000ff"/>
<use data-text="&#x529f;" xlink:href="#font_3_2255" transform="matrix(10.5,0,0,-10.5,56.818,100.244998)" fill="#0000ff"/>
<use data-text="&#x7387;" xlink:href="#font_3_10679" transform="matrix(10.5,0,0,-10.5,67.318,100.244998)" fill="#0000ff"/>
<use data-text="/" xlink:href="#font_2_102" transform="matrix(10.5,0,0,-10.5,77.818,100.244998)" fill="#0000ff"/>
<use data-text="W" xlink:href="#font_2_113" transform="matrix(10.5,0,0,-10.5,83.068,100.244998)" fill="#0000ff"/>
<use data-text=")" xlink:href="#font_2_86" transform="matrix(10.5,0,0,-10.5,93.862,100.244998)" fill="#0000ff"/>
<path transform="matrix(1,0,0,-1,16.472,87.335)" stroke-width="1.59404" stroke-linecap="butt" stroke-miterlimit="10" stroke-linejoin="miter" fill="none" stroke="#ff0000" d="M85.04042 0V62.36288"/>
<use data-text="Q" xlink:href="#font_1_3" transform="matrix(10.5,0,0,-10.5,105.809009,59.148004)" fill="#ff0000"/>
<use data-text="(" xlink:href="#font_2_85" transform="matrix(10.5,0,0,-10.5,117.606,59.148004)" fill="#ff0000"/>
<use data-text="&#x65e0;" xlink:href="#font_3_7184" transform="matrix(10.5,0,0,-10.5,121.69101,59.148004)" fill="#ff0000"/>
<use data-text="&#x529f;" xlink:href="#font_3_2255" transform="matrix(10.5,0,0,-10.5,132.19101,59.148004)" fill="#ff0000"/>
<use data-text="&#x529f;" xlink:href="#font_3_2255" transform="matrix(10.5,0,0,-10.5,142.69101,59.148004)" fill="#ff0000"/>
<use data-text="&#x7387;" xlink:href="#font_3_10679" transform="matrix(10.5,0,0,-10.5,153.19101,59.148004)" fill="#ff0000"/>
<use data-text="/" xlink:href="#font_2_102" transform="matrix(10.5,0,0,-10.5,163.69101,59.148004)" fill="#ff0000"/>
<use data-text="V" xlink:href="#font_2_111" transform="matrix(10.5,0,0,-10.5,168.94101,59.148004)" fill="#ff0000"/>
<use data-text="a" xlink:href="#font_2_28" transform="matrix(10.5,0,0,-10.5,175.9445,59.148004)" fill="#ff0000"/>
<use data-text="r" xlink:href="#font_2_96" transform="matrix(10.5,0,0,-10.5,181.1945,59.148004)" fill="#ff0000"/>
<use data-text=")" xlink:href="#font_2_86" transform="matrix(10.5,0,0,-10.5,185.3105,59.148004)" fill="#ff0000"/>
<path transform="matrix(1,0,0,-1,16.472,87.335)" stroke-width="1.59404" stroke-linecap="butt" stroke-miterlimit="10" stroke-linejoin="miter" fill="none" stroke="#bf0040" d="M0 0 80.03835 58.69467"/>
<path transform="matrix(.80637,-.59134,-.59134,-.80637,93.3181,30.98132)" d="M7.89215 0 2.57367 2.02063 4.3573 0 2.57367-2.02063Z" fill="#bf0040"/>
<path transform="matrix(.80637,-.59134,-.59134,-.80637,93.3181,30.98132)" stroke-width="1.59404" stroke-linecap="butt" stroke-miterlimit="10" stroke-linejoin="miter" fill="none" stroke="#bf0040" d="M7.89215 0 2.57367 2.02063 4.3573 0 2.57367-2.02063Z"/>
<use data-text="S" xlink:href="#font_1_4" transform="matrix(10.5,0,0,-10.5,16.670998,18.05)" fill="#bf0040"/>
<use data-text="(" xlink:href="#font_2_85" transform="matrix(10.5,0,0,-10.5,27.210999,18.05)" fill="#bf0040"/>
<use data-text="&#x89c6;" xlink:href="#font_3_16374" transform="matrix(10.5,0,0,-10.5,31.295998,18.05)" fill="#bf0040"/>
<use data-text="&#x5728;" xlink:href="#font_3_3416" transform="matrix(10.5,0,0,-10.5,41.795999,18.05)" fill="#bf0040"/>
<use data-text="&#x529f;" xlink:href="#font_3_2255" transform="matrix(10.5,0,0,-10.5,52.295999,18.05)" fill="#bf0040"/>
<use data-text="&#x7387;" xlink:href="#font_3_10679" transform="matrix(10.5,0,0,-10.5,62.795999,18.05)" fill="#bf0040"/>
<use data-text="/" xlink:href="#font_2_102" transform="matrix(10.5,0,0,-10.5,73.296,18.05)" fill="#bf0040"/>
<use data-text="V" xlink:href="#font_2_111" transform="matrix(10.5,0,0,-10.5,78.546,18.05)" fill="#bf0040"/>
<use data-text="A" xlink:href="#font_2_27" transform="matrix(10.5,0,0,-10.5,85.2555,18.05)" fill="#bf0040"/>
<use data-text=")" xlink:href="#font_2_86" transform="matrix(10.5,0,0,-10.5,93.1305,18.05)" fill="#bf0040"/>
<path transform="matrix(1,0,0,-1,16.472,87.335)" stroke-width=".59776" stroke-linecap="butt" stroke-miterlimit="10" stroke-linejoin="miter" fill="none" stroke="#bf0040" d="M19.84267 0 19.83446 .52249 19.81412 1.04543 19.77908 1.56708 19.7315 2.08784 19.66922 2.60733 19.59439 3.12463 19.50443 3.64023 19.40234 4.15321 19.28555 4.66275 19.15623 5.16968 19.01306 5.67271 18.85735 6.1723 18.68779 6.6667 18.50569 7.1572 18.31018 7.6425 18.10257 8.12262 17.8824 8.59668 17.6497 9.06555 17.40402 9.5275 17.1471 9.98297 16.87805 10.4315 16.59691 10.87314 16.30493 11.30652 18.08441 8.8121"/>
<path transform="matrix(-.58072,-.81403,-.81403,.58072,35.771074,80.22555)" d="M4.82758 0 .96512 1.45822 2.24107 0 .96512-1.45822Z" fill="#bf0040"/>
<path transform="matrix(-.58072,-.81403,-.81403,.58072,35.771074,80.22555)" stroke-width=".59776" stroke-linecap="butt" stroke-miterlimit="10" stroke-linejoin="miter" fill="none" stroke="#bf0040" d="M4.82758 0 .96512 1.45822 2.24107 0 .96512-1.45822Z"/>
<use data-text="&#x03c6;" xlink:href="#font_1_1" transform="matrix(10.5,0,0,-10.5,38.550004,80.07)" fill="#bf0040"/>
<use data-text="&#x5173;" xlink:href="#font_3_1955" transform="matrix(10.5,0,0,-10.5,133.658,34.080007)"/>
<use data-text="&#x7cfb;" xlink:href="#font_3_13099" transform="matrix(10.5,0,0,-10.5,144.158,34.080007)"/>
<use data-text="&#x516c;" xlink:href="#font_3_1948" transform="matrix(10.5,0,0,-10.5,154.658,34.080007)"/>
<use data-text="&#x5f0f;" xlink:href="#font_3_5439" transform="matrix(10.5,0,0,-10.5,165.158,34.080007)"/>
<use data-text="&#xff1a;" xlink:href="#font_3_726" transform="matrix(10.5,0,0,-10.5,175.658,34.080007)"/>
<use data-text="S" xlink:href="#font_1_4" transform="matrix(10.5,0,0,-10.5,133.658,50.460008)"/>
<use data-text="=" xlink:href="#font_4_2" transform="matrix(10.5,0,0,-10.5,143.61801,50.460008)"/>
<use data-text="&#x221a;" xlink:href="#font_5_1" transform="matrix(10.5,0,0,-10.5,154.702,42.428007)"/>
<path transform="matrix(1,0,0,-1,189.186,67.882)" stroke-width=".42" stroke-linecap="butt" stroke-miterlimit="10" stroke-linejoin="miter" fill="none" stroke="#000000" d="M-25.734 25.664H12.538"/>
<use data-text="P" xlink:href="#font_1_2" transform="matrix(10.5,0,0,-10.5,163.45201,50.460004)"/>
<use data-text="2" xlink:href="#font_6_1" transform="matrix(6.9738,0,0,-6.9738,171.651,47.427003)"/>
<use data-text="+" xlink:href="#font_4_1" transform="matrix(10.5,0,0,-10.5,178.45401,50.460004)"/>
<use data-text="Q" xlink:href="#font_1_3" transform="matrix(10.5,0,0,-10.5,188.95401,50.460004)"/>
<use data-text="2" xlink:href="#font_6_1" transform="matrix(6.9738,0,0,-6.9738,197.255,47.427003)"/>
<use data-text="c" xlink:href="#font_2_43" transform="matrix(10.5,0,0,-10.5,133.658,66.840007)"/>
<use data-text="o" xlink:href="#font_2_81" transform="matrix(10.5,0,0,-10.5,138.32,66.840007)"/>
<use data-text="s" xlink:href="#font_2_98" transform="matrix(10.5,0,0,-10.5,143.57,66.840007)"/>
<use data-text="&#x03c6;" xlink:href="#font_1_1" transform="matrix(10.5,0,0,-10.5,149.457,66.840007)"/>
<use data-text="=" xlink:href="#font_4_2" transform="matrix(10.5,0,0,-10.5,159.242,66.840007)"/>
<use data-text="P" xlink:href="#font_7_1" transform="matrix(6.9738,0,0,-6.9738,171.521,62.706)"/>
<path transform="matrix(1,0,0,-1,189.186,67.882)" stroke-width=".3985" stroke-linecap="butt" stroke-miterlimit="10" stroke-linejoin="miter" fill="none" stroke="#000000" d="M-17.665 3.667H-11.52"/>
<use data-text="S" xlink:href="#font_7_3" transform="matrix(6.9738,0,0,-6.9738,171.957,70.461009)"/>
<use data-text="t" xlink:href="#font_2_105" transform="matrix(10.5,0,0,-10.5,133.658,83.22)"/>
<use data-text="a" xlink:href="#font_2_28" transform="matrix(10.5,0,0,-10.5,137.74251,83.22)"/>
<use data-text="n" xlink:href="#font_2_77" transform="matrix(10.5,0,0,-10.5,142.99251,83.22)"/>
<use data-text="&#x03c6;" xlink:href="#font_1_1" transform="matrix(10.5,0,0,-10.5,150.58101,83.22)"/>
<use data-text="=" xlink:href="#font_4_2" transform="matrix(10.5,0,0,-10.5,160.366,83.22)"/>
<use data-text="Q" xlink:href="#font_7_2" transform="matrix(6.9738,0,0,-6.9738,172.645,78.64101)"/>
<path transform="matrix(1,0,0,-1,189.186,67.882)" stroke-width=".3985" stroke-linecap="butt" stroke-miterlimit="10" stroke-linejoin="miter" fill="none" stroke="#000000" d="M-16.541-12.713H-10.267"/>
<use data-text="P" xlink:href="#font_7_1" transform="matrix(6.9738,0,0,-6.9738,172.71,86.841)"/>
</svg>
