<svg xmlns="http://www.w3.org/2000/svg" xmlns:xlink="http://www.w3.org/1999/xlink" xmlns:inkscape="http://www.inkscape.org/namespaces/inkscape" version="1.1" width="212.47" height="91.64" viewBox="0 0 212.47 91.64">
<style>
  @media (prefers-color-scheme: dark) {
    svg {
      filter: invert(1) hue-rotate(180deg) !important;
    }
  }
</style>

<defs>
<path id="font_1_5" d="M.34999085 .056259157C.36099244 .015258789 .3959961-.0107421879 .43899537-.0107421879 .47399903-.0107421879 .49699403 .012252808 .5130005 .044265748 .5299988 .08027649 .54299929 .14129639 .54299929 .14329529 .54299929 .1532898 .5339966 .1532898 .5309906 .1532898 .5209961 .1532898 .519989 .14929199 .5169983 .13528443 .5029907 .07926941 .48399354 .011245728 .44198609 .011245728 .42099 .011245728 .41099549 .024261475 .41099549 .057266237 .41099549 .07926941 .4229889 .12628174 .43099977 .16130066L.45899964 .2693329C.46199037 .28433229 .47200013 .32234193 .47599793 .3373413 .48098756 .36035157 .4909973 .3983612 .4909973 .40437318 .4909973 .42237855 .47698976 .43138124 .46199037 .43138124 .45700074 .43138124 .43099977 .43037416 .4229889 .3963623 .4039917 .323349 .3600006 .14828491 .34799195 .09527588 .34700013 .091278079 .30699159 .011245728 .23399353 .011245728 .18199158 .011245728 .17199707 .056259157 .17199707 .09327698 .17199707 .14929199 .19999695 .22831726 .22599793 .29733277 .23799134 .3273468 .24299622 .34135438 .24299622 .36035157 .24299622 .405365 .21099854 .4423828 .16099549 .4423828 .06599426 .4423828 .0289917 .29733277 .0289917 .28833009 .0289917 .27833558 .038986207 .27833558 .040985109 .27833558 .050994874 .27833558 .051986696 .28033448 .056991579 .29634095 .08198547 .38336183 .11999512 .42037965 .1579895 .42037965 .16699219 .42037965 .18299866 .41937257 .18299866 .38735963 .18299866 .36335755 .17199707 .3343506 .1659851 .31933595 .1289978 .2203064 .10798645 .15829468 .10798645 .10928345 .10798645 .014251709 .1769867-.0107421879 .23098755-.0107421879 .29699708-.0107421879 .33299256 .03425598 .34999085 .056259157Z"/>
<path id="font_1_3" d="M.375 .6136017C.3809967 .63760378 .38398744 .6476135 .40299989 .65060427 .4119873 .6516113 .44400025 .6516113 .46398927 .6516113 .5349884 .6516113 .6459961 .6516113 .6459961 .5525818 .6459961 .51856997 .6299896 .44955445 .59098818 .41055299 .5649872 .38453675 .5119934 .35253907 .42199708 .35253907H.30999757L.375 .6136017M.5189972 .33953858C.6199951 .3615265 .7389984 .43154908 .7389984 .5325775 .7389984 .61860659 .6489868 .6826172 .5179901 .6826172H.23298645C.21299744 .6826172 .20399475 .6826172 .20399475 .6626129 .20399475 .6516113 .21299744 .6516113 .23199463 .6516113 .23399353 .6516113 .25299073 .6516113 .269989 .6496124 .28799439 .6476135 .29699708 .64660647 .29699708 .63360598 .29699708 .62960818 .29599 .6266022 .29299928 .6145935L.15899658 .07752991C.14898682 .038528444 .14698792 .030532837 .067993167 .030532837 .049987794 .030532837 .040985109 .030532837 .040985109 .010528564 .040985109-.00047302247 .052993776-.00047302247 .054992677-.00047302247 .08299255-.00047302247 .15299988 .002532959 .18099976 .002532959 .20899964 .002532959 .27999879-.00047302247 .30799867-.00047302247 .31599427-.00047302247 .32798768-.00047302247 .32798768 .01953125 .32798768 .030532837 .31900025 .030532837 .2999878 .030532837 .2630005 .030532837 .23498535 .030532837 .23498535 .048538209 .23498535 .054534913 .23699951 .059524537 .23799134 .0655365L.3039856 .3305359H.4229889C.5139923 .3305359 .5319977 .27453614 .5319977 .23953247 .5319977 .22453308 .5239868 .19352722 .5179901 .17053223 .5109863 .14253235 .5019989 .105529788 .5019989 .08552551 .5019989-.022460938 .621994-.022460938 .6349945-.022460938 .7200012-.022460938 .7549896 .07853699 .7549896 .0925293 .7549896 .104537967 .74398806 .104537967 .7429962 .104537967 .73399356 .104537967 .7319946 .09753418 .7299957 .090530399 .7049866 .016525269 .6619873-.00047302247 .6389923-.00047302247 .60598757-.00047302247 .598999 .021530152 .598999 .060531618 .598999 .091537479 .6049957 .14253235 .60899356 .17453003 .61099246 .1885376 .61299136 .20753479 .61299136 .2215271 .61299136 .2985382 .54599 .3295288 .5189972 .33953858Z"/>
<path id="font_2_1" d="M.33499146 .63612368C.33499146 .6630554 .33299256 .6640625 .30499269 .6640625 .24099732 .6014404 .1499939 .6004486 .10899353 .6004486V.5644531C.1329956 .5644531 .19898987 .5644531 .2539978 .592453V.08203125C.2539978 .04899597 .2539978 .035995485 .1539917 .035995485H.115997318V0C.13398743 .0009918213 .25698854 .0039978029 .2939911 .0039978029 .32499696 .0039978029 .45098878 .0009918213 .47299195 0V.035995485H.43499757C.33499146 .035995485 .33499146 .04899597 .33499146 .08203125V.63612368Z"/>
<path id="font_1_4" d="M.28399659 .6252594C.28399659 .6452637 .269989 .6612549 .24699402 .6612549 .21998596 .6612549 .19299317 .6352539 .19299317 .6082611 .19299317 .5892639 .20698548 .5722656 .23098755 .5722656 .2539978 .5722656 .28399659 .5952606 .28399659 .6252594M.20799256 .24932862C.21998596 .27833558 .21998596 .28033448 .22999573 .30734254 .23799134 .3273468 .24299622 .34135438 .24299622 .36035157 .24299622 .405365 .21099854 .4423828 .16099549 .4423828 .066986087 .4423828 .0289917 .29733277 .0289917 .28833009 .0289917 .27833558 .038986207 .27833558 .040985109 .27833558 .050994874 .27833558 .051986696 .28033448 .056991579 .29634095 .083999637 .3903656 .12399292 .42037965 .1579895 .42037965 .1659851 .42037965 .18299866 .42037965 .18299866 .3883667 .18299866 .36735536 .17599488 .346344 .17199707 .3363495 .1639862 .31033326 .11898804 .19430542 .102996829 .1512909 .09298706 .12528992 .07998657 .0922699 .07998657 .0712738 .07998657 .024261475 .11399841-.0107421879 .1619873-.0107421879 .2559967-.0107421879 .29299928 .1342926 .29299928 .14329529 .29299928 .1532898 .28399659 .1532898 .2809906 .1532898 .2709961 .1532898 .2709961 .15029907 .2659912 .13528443 .24798584 .072265628 .21499634 .011245728 .1639862 .011245728 .14698792 .011245728 .13999939 .021255494 .13999939 .044265748 .13999939 .0692749 .1459961 .08326721 .16899109 .14428711L.20799256 .24932862Z"/>
<path id="font_1_2" d="M.37399293 .6046295C.3829956 .64060977 .38598634 .6516113 .47999574 .6516113 .5099945 .6516113 .5179901 .6516113 .5179901 .6706085 .5179901 .6826172 .5069885 .6826172 .5019989 .6826172 .46899415 .6826172 .3869934 .6796112 .35398866 .6796112 .32398988 .6796112 .25099183 .6826172 .22099304 .6826172 .21398926 .6826172 .20199585 .6826172 .20199585 .6626129 .20199585 .6516113 .21099854 .6516113 .22999573 .6516113 .23199463 .6516113 .25099183 .6516113 .2679901 .6496124 .28599549 .6476135 .29499818 .64660647 .29499818 .6336212 .29499818 .6296234 .2939911 .62661746 .29100038 .614624L.15699768 .07795715C.14698792 .038986207 .14498902 .0309906 .06599426 .0309906 .04899597 .0309906 .038986207 .0309906 .038986207 .010986328 .038986207 0 .04798889 0 .06599426 0H.5289917C.5529938 0 .55400088 0 .55999758 .016998291L.6389923 .23286438C.6429901 .24386597 .6429901 .24586487 .6429901 .24685669 .6429901 .2508545 .6399994 .25785829 .6309967 .25785829 .621994 .25785829 .62098696 .2528534 .6139984 .23686219 .5799866 .14492798 .5359955 .0309906 .36299134 .0309906H.2689972C.25498963 .0309906 .25299073 .0309906 .24699402 .03199768 .23699951 .032989503 .23399353 .033996583 .23399353 .041992189 .23399353 .04498291 .23399353 .04698181 .23899842 .064971927L.37399293 .6046295Z"/>
<path id="font_2_2" d="M.5049896 .18203736H.47099305C.46798707 .16001892 .45799256 .100997928 .44499208 .09098816 .43699647 .084991458 .3600006 .084991458 .34599305 .084991458H.1619873C.2669983 .17803955 .3019867 .20603943 .3619995 .25306703 .43598939 .312088 .5049896 .374115 .5049896 .46914674 .5049896 .5900879 .39898683 .6640625 .2709961 .6640625 .14698792 .6640625 .06298828 .57710269 .06298828 .4851532 .06298828 .43414308 .10598755 .42915345 .115997318 .42915345 .13999939 .42915345 .16899109 .44615174 .16899109 .48214723 .16899109 .5001526 .1619873 .53515627 .10998535 .53515627 .14099121 .6060791 .20899964 .62805178 .2559967 .62805178 .35598756 .62805178 .4079895 .5501404 .4079895 .46914674 .4079895 .38212586 .34599305 .3130951 .31399537 .27708436L.07299805 .038986207C.06298828 .02999878 .06298828 .027999878 .06298828 0H.47499085L.5049896 .18203736Z"/>
<path id="font_1_1" d="M.7599945 .69506838C.7599945 .69807437 .7579956 .7050781 .7489929 .7050781 .74598696 .7050781 .7449951 .70407107 .73399356 .69306948L.6639862 .61602786C.6549988 .6300354 .60899356 .7050781 .49798585 .7050781 .2749939 .7050781 .049987794 .48391725 .049987794 .25172425 .049987794 .08659363 .16799927-.022460938 .32099916-.022460938 .4079895-.022460938 .48399354 .017532349 .5369873 .063583377 .6299896 .14564514 .6469879 .2367096 .6469879 .23971558 .6469879 .24972534 .6369934 .24972534 .6349945 .24972534 .6289978 .24972534 .6239929 .24772644 .621994 .23971558 .61299136 .21069336 .58999636 .13963318 .5209961 .081588748 .45199586 .025543213 .3889923 .008529663 .33699037 .008529663 .24699402 .008529663 .14099121 .060577394 .14099121 .21670532 .14099121 .27374269 .1619873 .43588258 .2619934 .55296328 .32299806 .62402346 .4169922 .67407229 .5059967 .67407229 .60798647 .67407229 .6669922 .5970001 .6669922 .48091126 .6669922 .44088746 .6639862 .43988038 .6639862 .4298706 .6639862 .41986085 .6749878 .41986085 .67900088 .41986085 .69200137 .41986085 .69200137 .42185975 .69699099 .43988038L.7599945 .69506838Z"/>
<path id="font_2_3" d="M.272995 .33428956C.35099793 .33428956 .40699769 .2803192 .40699769 .1733551 .40699769 .04940796 .33499146 .012466431 .2769928 .012466431 .23699951 .012466431 .14898682 .0234375 .10699463 .082351688 .1539917 .084350589 .16499329 .11735535 .16499329 .13835144 .16499329 .17034912 .14099121 .19335938 .10998535 .19335938 .08198547 .19335938 .053985597 .17634583 .053985597 .13534546 .053985597 .041412355 .1579895-.01953125 .2789917-.01953125 .41799928-.01953125 .5139923 .07336426 .5139923 .1733551 .5139923 .2513275 .44999696 .32929994 .33999635 .35229493 .44499208 .39024354 .48298646 .4650879 .48298646 .5260773 .48298646 .60505679 .3919983 .6640625 .2809906 .6640625 .16999817 .6640625 .084991458 .61006167 .084991458 .5300751 .084991458 .49606324 .10699463 .47706605 .13699341 .47706605 .16799927 .47706605 .18798828 .5000763 .18798828 .5280762 .18798828 .5570679 .16799927 .57806399 .13699341 .5800781 .17199707 .62405398 .24099732 .63505557 .27799989 .63505557 .32299806 .63505557 .38598634 .6130676 .38598634 .5260773 .38598634 .48406983 .37199403 .43814088 .34599305 .4072113 .31298829 .36927796 .2849884 .3672943 .23498535 .36428834 .20999146 .3623047 .20799256 .3623047 .20298767 .3612976 .20098877 .3612976 .19299317 .3592987 .19299317 .34829713 .19299317 .33428956 .20199585 .33428956 .21899414 .33428956H.272995Z"/>
<path id="font_2_4" d="M.5289917 .1640625V.20005799H.41799928V.64582827C.41799928 .66682437 .41799928 .6738281 .3959961 .6738281 .38398744 .6738281 .37998963 .6738281 .36999513 .65982058L.038986207 .20005799V.1640625H.33299256V.08201599C.33299256 .04800415 .33299256 .035995485 .2519989 .035995485H.22499085V0C.2749939 .0019989014 .33898927 .0039978029 .375 .0039978029 .4119873 .0039978029 .47599793 .0019989014 .526001 0V.035995485H.49899293C.41799928 .035995485 .41799928 .04800415 .41799928 .08201599V.1640625H.5289917M.33999635 .5658722V.20005799H.07598877L.33999635 .5658722Z"/>
<path id="font_3_5286" d="M.40234376 .5546875V.3046875H.6171875V.5546875H.40234376M.2890625 .796875 .30078126 .80859377C.36328126 .76953127 .40169273 .7395833 .41601563 .71875 .43033854 .6979167 .43554688 .6777344 .43164063 .6582031 .42773438 .6386719 .421875 .62630209 .4140625 .62109377 .40625 .61588546 .40104167 .61328127 .3984375 .61328127 .38541667 .61328127 .375 .6302083 .3671875 .6640625 .35416667 .7057292 .328125 .75 .2890625 .796875M.34765626 .3046875V.5546875H.2578125C.22395833 .5546875 .19270833 .55078127 .1640625 .54296877L.12890625 .578125H.5625C.6223958 .6979167 .65494796 .7760417 .66015627 .8125L.73828127 .7578125 .703125 .7421875 .58203127 .578125H.7890625L.83984377 .62890627 .9140625 .5546875H.671875V.3046875H.80859377L.87109377 .3671875 .95703127 .28125H.671875C.671875 .109375 .67317709-.009114583 .67578127-.07421875L.61328127-.09765625C.61588546-.022135416 .6171875 .104166667 .6171875 .28125H.40234376C.38671876 .088541667 .27734376-.0390625 .07421875-.1015625L.06640625-.08984375C.24088542-.014322917 .3346354 .109375 .34765626 .28125H.19140625C.15755208 .28125 .12630208 .27734376 .09765625 .26953126L.0625 .3046875H.34765626Z"/>
<path id="font_3_13956" d="M.515625 .8046875C.5520833 .7734375 .57877609 .7480469 .5957031 .7285156 .6126302 .7089844 .6223958 .6901042 .625 .671875 .6276042 .6536458 .6223958 .6373698 .609375 .6230469 .5963542 .60872396 .58723959 .6015625 .58203127 .6015625 .57161459 .6015625 .56380209 .61848959 .55859377 .65234377 .55078127 .70182296 .53255209 .75 .50390627 .796875L.515625 .8046875M.83203127 .74609377C.78515627 .67578127 .7447917 .6145833 .7109375 .5625H.8046875L.85546877 .61328127 .92578127 .5390625H.6875V.3359375H.8359375L.890625 .38671876 .9609375 .3125H.703125C.7239583 .23177083 .75846359 .1608073 .8066406 .099609378 .8548177 .038411458 .90625-.0013020834 .9609375-.01953125V-.03515625C.9166667-.03515625 .8880208-.048177083 .875-.07421875 .8255208-.02734375 .7838542 .029947916 .75 .09765625 .7161458 .16536458 .6953125 .23828125 .6875 .31640626 .6822917 .22526042 .65494796 .1438802 .60546877 .072265628 .55598959 .0006510417 .48697917-.053385419 .3984375-.08984375L.390625-.078125C.46614585-.03125 .52473959 .026041666 .56640627 .09375 .60807296 .16145833 .6302083 .234375 .6328125 .3125H.515625C.48177085 .3125 .45052085 .30859376 .421875 .30078126L.38671876 .3359375H.6328125V.5390625H.55078127C.51692709 .5390625 .4856771 .53515627 .45703126 .52734377L.421875 .5625H.6875C.7265625 .640625 .7578125 .7265625 .78125 .8203125L.87109377 .76171877 .83203127 .74609377M.375 .18359375 .47265626 .2109375 .4765625 .1953125 .375 .16015625C.375 .079427089 .375 .029296875 .375 .009765625 .375-.009765625 .3763021-.032552083 .37890626-.05859375L.3203125-.08984375C.32291667-.022135416 .32421876 .0546875 .32421876 .140625 .18880208 .091145839 .110677089 .053385419 .08984375 .02734375L.05078125 .10546875C.08984375 .110677089 .1171875 .115885417 .1328125 .12109375V.69921877C.125 .69921877 .106770839 .6953125 .078125 .6875L.04296875 .72265627H.37890626L.42578126 .76953127 .4921875 .69921877H.375V.18359375M.18359375 .69921877V.5234375H.32421876V.69921877H.18359375M.18359375 .5V.3359375H.32421876V.5H.18359375M.18359375 .1328125 .32421876 .16796875V.3125H.18359375V.1328125Z"/>
<path id="font_3_16960" d="M.4921875 .26953126V.15234375H.80078127V.26953126H.4921875M.4921875 .12890625V0H.80078127V.12890625H.4921875M.65625 .71484377 .65234377 .80859377 .73828127 .76953127 .70703127 .7421875V.5859375C.73046877 .6015625 .75911459 .625 .79296877 .65625 .82682296 .6875 .85546877 .71875 .87890627 .75L.93359377 .68359377C.91015627 .68359377 .88151046 .671875 .84765627 .6484375 .81119796 .625 .76432296 .5963542 .70703127 .5625V.4765625C.70703127 .45052085 .72005209 .4375 .74609377 .4375H.8359375C.8619792 .4375 .87630209 .45117188 .87890627 .47851563 .88151046 .5058594 .88411459 .5390625 .88671877 .578125H.90234377C.90234377 .5520833 .9042969 .52473959 .9082031 .49609376 .9121094 .4674479 .9244792 .44921876 .9453125 .44140626 .9270833 .41015626 .8984375 .39583335 .859375 .3984375H.73046877C.68359377 .3984375 .6588542 .41927085 .65625 .4609375V.71484377M.44140626-.08984375C.4440104-.02734375 .4453125 .04296875 .4453125 .12109375 .4453125 .19921875 .4440104 .2669271 .44140626 .32421876L.4921875 .29296876H.55859377C.58203127 .35546876 .59505209 .40104167 .59765627 .4296875L.66796877 .39453126C.65234377 .38671876 .62369796 .3528646 .58203127 .29296876H.796875L.8203125 .33203126 .87890627 .28515626 .84765627 .2578125C.84765627 .088541667 .8489583-.016927084 .8515625-.05859375L.80078127-.08203125V-.0234375H.4921875V-.06640625L.44140626-.08984375M.12890625 .7734375 .140625 .78125C.1875 .7578125 .22005208 .7369792 .23828125 .71875 .2565104 .7005208 .26497398 .6829427 .26367188 .6660156 .26236979 .64908859 .2565104 .6354167 .24609375 .625 .23567708 .6145833 .22786458 .609375 .22265625 .609375 .21484375 .609375 .20963542 .6171875 .20703125 .6328125 .19921875 .65625 .18945313 .67903646 .17773438 .7011719 .16601563 .7233073 .14973958 .7473958 .12890625 .7734375M.2421875 .09375 .359375 .23046875 .37109376 .21875C.3346354 .16145833 .30533854 .111979167 .28320313 .0703125 .26106773 .028645834 .24609375-.0052083337 .23828125-.03125L.171875 .02734375C.18489583 .040364583 .19140625 .05859375 .19140625 .08203125V.4453125H.1484375C.13020833 .4453125 .106770839 .44140626 .078125 .43359376L.04296875 .46875H.18359375L.2109375 .5078125 .2734375 .4609375 .2421875 .4375V.09375M.45703126 .44140626 .62109377 .49609376 .62890627 .48046876C.60026046 .4674479 .56640627 .45052085 .52734377 .4296875 .48828126 .40885417 .45703126 .3841146 .43359376 .35546876L.38671876 .421875C.3997396 .43229167 .40625 .4466146 .40625 .46484376 .40625 .61588546 .4049479 .7291667 .40234376 .8046875L.48828126 .76171877 .45703126 .734375V.62109377H.52734377L.57421877 .66796877 .62890627 .59765627H.45703126V.44140626Z"/>
<path id="font_3_6495" d="M.0625 .015625C.119791667 .0078125 .15755208 .00390625 .17578125 .00390625 .19401042 .00390625 .203125 .01953125 .203125 .05078125V.3125C.17447917 .29947917 .140625 .28125 .1015625 .2578125L.08203125 .23046875 .03515625 .30078126C.08203125 .3138021 .13802083 .33203126 .203125 .35546876V.5546875H.109375L.07421875 .546875 .04296875 .578125H.203125C.203125 .6822917 .20182292 .7604167 .19921875 .8125L.29296876 .76953127 .2578125 .7421875V.578125H.30078126L.34375 .62109377 .41015626 .5546875H.2578125V.375L.38671876 .42578126 .390625 .4140625 .2578125 .33984376V.0234375C.26041667-.026041666 .23307292-.0625 .17578125-.0859375 .17578125-.052083333 .13802083-.0234375 .0625 0V.015625M.5859375 .0234375 .70703127 .0859375 .71484377 .07421875C.63151046 .01171875 .58203127-.037760419 .56640627-.07421875L.51953127-.01171875C.53255209 .0065104167 .53776046 .028645834 .53515627 .0546875V.3828125H.48046876C.4700521 .1640625 .4075521 .00390625 .29296876-.09765625L.28125-.08984375C.328125-.029947916 .36393229 .043619794 .38867188 .13085938 .41341148 .21809896 .42578126 .32747398 .42578126 .45898438 .42578126 .5904948 .42447917 .6927083 .421875 .765625L.48046876 .7265625H.78125L.8359375 .78125 .9140625 .703125H.48046876V.40625H.8046875L.859375 .4609375 .9375 .3828125H.66796877C.68359377 .3203125 .70442709 .2643229 .73046877 .21484375 .79557296 .26171876 .8411458 .30208335 .8671875 .3359375L.921875 .26953126C.8854167 .26953126 .8255208 .24479167 .7421875 .1953125 .7734375 .13541667 .8092448 .08984375 .8496094 .05859375 .88997396 .02734375 .92578127 .009114583 .95703127 .00390625V-.01171875C.91536459-.014322917 .8854167-.029947916 .8671875-.05859375 .7473958 .053385419 .6744792 .20052083 .6484375 .3828125H.5859375V.0234375M.515625 .56640627H.76953127L.81640627 .61328127 .88671877 .54296877H.6328125C.5989583 .54296877 .57161459 .5390625 .55078127 .53125L.515625 .56640627Z"/>
<path id="font_3_18200" d="M.62890627-.1015625V.5703125C.62890627 .6328125 .6276042 .6927083 .625 .75L.6796875 .70703127H.85546877L.890625 .7421875 .9453125 .6875 .91015627 .66015627 .79296877 .40625C.83984377 .36458335 .87369796 .32356773 .89453127 .28320313 .91536459 .24283855 .92578127 .20507813 .92578127 .16992188 .92578127 .13476563 .91536459 .10481771 .89453127 .080078128 .87369796 .055338544 .84505209 .037760419 .80859377 .02734375 .79557296 .063802089 .75911459 .08984375 .69921877 .10546875V.12109375C.75130209 .11328125 .78841146 .109375 .8105469 .109375 .8326823 .109375 .84765627 .118489589 .85546877 .13671875 .86328127 .15494792 .8671875 .171875 .8671875 .1875 .8671875 .20572917 .86328127 .23242188 .85546877 .26757813 .84765627 .30273438 .81901046 .34895835 .76953127 .40625L.859375 .68359377H.6796875V-.07421875L.62890627-.1015625M.2109375 .25390626V.05859375H.44140626V.25390626H.2109375M.08984375 .65234377H.3203125C.31510417 .68359377 .30859376 .70963546 .30078126 .73046877 .29296876 .75130209 .2799479 .7734375 .26171876 .796875L.26953126 .80859377C.3372396 .76953127 .37304688 .7389323 .37695313 .7167969 .38085938 .69466146 .36979167 .67317709 .34375 .65234377H.47265626L.515625 .69921877 .578125 .62890627H.19921875C.17838542 .62890627 .15364583 .625 .125 .6171875L.08984375 .65234377M.36328126 .40234376C.4049479 .4986979 .4283854 .5677083 .43359376 .609375L.515625 .55859377 .48046876 .5390625C.45703126 .5052083 .42708335 .4596354 .390625 .40234376H.51171877L.55859377 .44921876 .62109377 .37890626H.16015625C.13932292 .37890626 .114583339 .375 .0859375 .3671875L.05078125 .40234376H.36328126M.15625-.0703125C.15885417-.0052083337 .16015625 .05859375 .16015625 .12109375 .16015625 .18359375 .15885417 .24739583 .15625 .3125L.21484375 .27734376H.4375L.4765625 .31640626 .52734377 .265625 .4921875 .23828125C.4921875 .10546875 .4934896 .016927084 .49609376-.02734375L.44140626-.0546875V.03515625H.2109375V-.046875L.15625-.0703125M.1796875 .59375C.2265625 .5598958 .2565104 .5338542 .26953126 .515625 .2825521 .49739585 .28710938 .48046876 .28320313 .46484376 .27929688 .44921876 .27278648 .4375 .26367188 .4296875 .25455729 .421875 .24869792 .41796876 .24609375 .41796876 .23828125 .41796876 .23307292 .42708335 .23046875 .4453125 .22526042 .46875 .21875 .4908854 .2109375 .51171877 .203125 .53255209 .19010417 .55598959 .171875 .58203127L.1796875 .59375Z"/>
<path id="font_3_2102" d="M.3671875 .7890625 .4453125 .73046877 .41015626 .7109375C.3658854 .6276042 .31705729 .55338546 .26367188 .48828126 .21028646 .4231771 .14192708 .3658854 .05859375 .31640626L.05078125 .328125C.118489589 .3828125 .17838542 .44726563 .23046875 .5214844 .2825521 .5957031 .328125 .6848958 .3671875 .7890625M.640625 .77734377 .609375 .7578125C.6380208 .6536458 .6848958 .5729167 .75 .515625 .8151042 .45833335 .88411459 .4231771 .95703127 .41015626V.3984375C.91796877 .39322917 .890625 .3763021 .875 .34765626 .7890625 .39453126 .7207031 .45703126 .6699219 .53515627 .6191406 .61328127 .58463546 .70442709 .56640627 .80859377L.640625 .77734377M.21484375 .41015626H.66015627L.69921877 .44921876 .75390627 .39453126 .72265627 .37109376C.71744796 .16536458 .70442709 .041015626 .68359377-.001953125 .66276046-.044921876 .62630209-.075520839 .57421877-.09375 .56640627-.052083333 .52994796-.022135416 .46484376-.00390625V.01171875C.52994796 .0013020834 .5722656-.0032552083 .5917969-.001953125 .6113281-.0006510417 .62630209 .014322917 .63671877 .04296875 .64713546 .071614589 .65755209 .18619792 .66796877 .38671876H.46484376C.44921876 .2747396 .41796876 .18033855 .37109376 .103515628 .32421876 .026692709 .234375-.040364583 .1015625-.09765625L.09375-.08203125C.2109375-.022135416 .28971354 .048828126 .33007813 .13085938 .37044273 .21289063 .39453126 .2981771 .40234376 .38671876H.28125L.24609375 .37890626 .21484375 .41015626Z"/>
</defs>
<path transform="matrix(1,0,0,-1,24.501,89.340999)" stroke-width=".59776" stroke-linecap="butt" stroke-miterlimit="10" stroke-linejoin="miter" fill="none" stroke="#000000" d="M0 0V30.61449M0 54.42592V85.04042H170.08086M56.69362 85.04042V79.6545M56.69362 47.90611V42.5202 33.16582M56.69362 9.35439V0M141.73404 85.04042 141.73403 86.74121M141.73403 54.99281 141.73404 56.69362M141.73404 56.69362H119.0565V39.40196M119.0565 31.46501V14.17339H141.73404M141.73404 56.69362H164.41156L164.41155 47.33922M164.41155 23.52777 164.41156 14.17339H141.73404M141.73404 14.17339V0M0 0H170.08086"/>
<path transform="matrix(1,0,0,-1,24.501,89.340999)" stroke-width="1.19554" stroke-linecap="butt" stroke-miterlimit="10" stroke-linejoin="miter" fill="none" stroke="#000000" d="M-11.90572 42.5202C-11.90572 35.94478-6.57541 30.61449 0 30.61449 6.57541 30.61449 11.90572 35.94478 11.90572 42.5202 11.90572 49.09561 6.57541 54.42592 0 54.42592-6.57541 54.42592-11.90572 49.09561-11.90572 42.5202ZM0 42.5202"/>
<path transform="matrix(1,0,0,-1,24.501,89.340999)" stroke-width="1.19554" stroke-linecap="butt" stroke-miterlimit="10" stroke-linejoin="miter" fill="none" stroke="#000000" d="M5.95285 42.5202C4.98253 40.99629 4.0539 39.54378 2.97643 39.54378 1.89896 39.54378 .97032 40.99628 0 42.5202-.9703 44.04411-1.89894 45.49663-2.97643 45.49663-4.05388 45.49663-4.98251 44.04413-5.95285 42.5202"/>
<use data-text="u" xlink:href="#font_1_5" transform="matrix(10.5,0,0,-10.5,3.6969987,49.084)"/>
<path transform="matrix(1,0,0,-1,24.501,89.340999)" stroke-width="1.19554" stroke-linecap="butt" stroke-miterlimit="10" stroke-linejoin="miter" fill="none" stroke="#000000" d="M50.74075 47.90611V79.6545H62.64647V47.90611ZM62.64647 79.6545"/>
<use data-text="R" xlink:href="#font_1_3" transform="matrix(10.5,0,0,-10.5,89.439998,27.822997)"/>
<use data-text="1" xlink:href="#font_2_1" transform="matrix(6.9738,0,0,-6.9738,97.412998,29.397997)"/>
<path transform="matrix(1,0,0,-1,24.501,89.340999)" d="M56.69362 46.94937H54.70937L56.69362 42.73283 58.67787 46.94937Z"/>
<path transform="matrix(1,0,0,-1,24.501,89.340999)" stroke-width=".59776" stroke-linecap="butt" stroke-miterlimit="10" stroke-linejoin="miter" fill="none" stroke="#000000" d="M56.69362 46.94937H54.70937L56.69362 42.73283 58.67787 46.94937Z"/>
<use data-text="i" xlink:href="#font_1_4" transform="matrix(10.5,0,0,-10.5,84.993007,46.803)"/>
<use data-text="1" xlink:href="#font_2_1" transform="matrix(6.9738,0,0,-6.9738,88.61,48.378)"/>
<path transform="matrix(1,0,0,-1,24.501,89.340999)" stroke-width="1.19554" stroke-linecap="butt" stroke-linejoin="bevel" fill="none" stroke="#000000" d="M56.45451 33.76358C59.74222 33.76358 62.40736 32.111 62.40736 30.07237 62.40736 28.03377 59.74222 26.38116 56.45451 26.38116 54.81076 26.38116 53.47824 27.04742 53.47824 27.86931 53.47824 28.6912 54.81076 29.35745 56.45451 29.35745 59.74222 29.35745 62.40736 27.70485 62.40736 25.66624 62.40736 23.62762 59.74222 21.97504 56.45451 21.97504 54.81076 21.97504 53.47824 22.64128 53.47824 23.46317 53.47824 24.28505 54.81076 24.95131 56.45451 24.95131 59.74222 24.95131 62.40736 23.2987 62.40736 21.2601 62.40736 19.22148 59.74222 17.5689 56.45451 17.5689 54.81076 17.5689 53.47824 18.23514 53.47824 19.05702 53.47824 19.8789 54.81076 20.54517 56.45451 20.54517 59.74222 20.54517 62.40736 18.89256 62.40736 16.85396 62.40736 14.81534 59.74222 13.16275 56.45451 13.16275 54.81076 13.16275 53.47824 13.82901 53.47824 14.65088 53.47824 15.47276 54.81076 16.13902 56.45451 16.13902 59.74222 16.13902 62.40736 14.48643 62.40736 12.44781 62.40736 10.4092 59.74222 8.7566 56.45451 8.7566"/>
<use data-text="L" xlink:href="#font_1_2" transform="matrix(10.5,0,0,-10.5,89.439998,70.343997)"/>
<use data-text="1" xlink:href="#font_2_1" transform="matrix(6.9738,0,0,-6.9738,96.586,71.919)"/>
<path transform="matrix(1,0,0,-1,24.501,89.340999)" stroke-width="1.19554" stroke-linecap="butt" stroke-miterlimit="10" stroke-linejoin="miter" fill="none" stroke="#000000" d="M135.78118 54.99281V86.74121H147.68688V54.99281ZM147.68688 86.74121"/>
<use data-text="R" xlink:href="#font_1_3" transform="matrix(10.5,0,0,-10.5,174.48001,20.737002)"/>
<use data-text="2" xlink:href="#font_2_2" transform="matrix(6.9738,0,0,-6.9738,182.453,22.312003)"/>
<path transform="matrix(1,0,0,-1,24.501,89.340999)" d="M141.73403 57.57944H139.74977L141.73403 53.36288 143.71828 57.57944Z"/>
<path transform="matrix(1,0,0,-1,24.501,89.340999)" stroke-width=".59776" stroke-linecap="butt" stroke-miterlimit="10" stroke-linejoin="miter" fill="none" stroke="#000000" d="M141.73403 57.57944H139.74977L141.73403 53.36288 143.71828 57.57944Z"/>
<use data-text="i" xlink:href="#font_1_4" transform="matrix(10.5,0,0,-10.5,170.034,36.172998)"/>
<use data-text="2" xlink:href="#font_2_2" transform="matrix(6.9738,0,0,-6.9738,173.651,37.748)"/>
<path transform="matrix(1,0,0,-1,24.501,89.340999)" stroke-width="1.19554" stroke-linecap="butt" stroke-miterlimit="10" stroke-linejoin="miter" fill="none" stroke="#000000" d="M130.96222 39.40196H107.15079M130.96222 31.46501H107.15079"/>
<use data-text="C" xlink:href="#font_1_1" transform="matrix(10.5,0,0,-10.5,158.35102,56.17)"/>
<path transform="matrix(1,0,0,-1,24.501,89.340999)" d="M119.0565 24.55542H117.07225L119.0565 20.33887 121.04076 24.55542Z"/>
<path transform="matrix(1,0,0,-1,24.501,89.340999)" stroke-width=".59776" stroke-linecap="butt" stroke-miterlimit="10" stroke-linejoin="miter" fill="none" stroke="#000000" d="M119.0565 24.55542H117.07225L119.0565 20.33887 121.04076 24.55542Z"/>
<use data-text="i" xlink:href="#font_1_4" transform="matrix(10.5,0,0,-10.5,147.35602,69.197)"/>
<use data-text="3" xlink:href="#font_2_3" transform="matrix(6.9738,0,0,-6.9738,150.973,70.772)"/>
<path transform="matrix(1,0,0,-1,24.501,89.340999)" stroke-width="1.19554" stroke-linecap="butt" stroke-linejoin="bevel" fill="none" stroke="#000000" d="M164.17246 47.93698C167.46016 47.93698 170.1253 46.2844 170.1253 44.24577 170.1253 42.20715 167.46016 40.55457 164.17246 40.55457 162.52869 40.55457 161.19618 41.22083 161.19618 42.04271 161.19618 42.86458 162.52869 43.53084 164.17246 43.53084 167.46016 43.53084 170.1253 41.87825 170.1253 39.83963 170.1253 37.80103 167.46016 36.14842 164.17246 36.14842 162.52869 36.14842 161.19618 36.81468 161.19618 37.63657 161.19618 38.45845 162.52869 39.1247 164.17246 39.1247 167.46016 39.1247 170.1253 37.4721 170.1253 35.43349 170.1253 33.39488 167.46016 31.74228 164.17246 31.74228 162.52869 31.74228 161.19618 32.40854 161.19618 33.23042 161.19618 34.0523 162.52869 34.71857 164.17246 34.71857 167.46016 34.71857 170.1253 33.06596 170.1253 31.02736 170.1253 28.98874 167.46016 27.33615 164.17246 27.33615 162.52869 27.33615 161.19618 28.0024 161.19618 28.82428 161.19618 29.64616 162.52869 30.31242 164.17246 30.31242 167.46016 30.31242 170.1253 28.65982 170.1253 26.62122 170.1253 24.5826 167.46016 22.93001 164.17246 22.93001"/>
<use data-text="L" xlink:href="#font_1_2" transform="matrix(10.5,0,0,-10.5,197.15799,56.17)"/>
<use data-text="2" xlink:href="#font_2_2" transform="matrix(6.9738,0,0,-6.9738,204.304,57.744997)"/>
<path transform="matrix(1,0,0,-1,24.501,89.340999)" d="M164.41155 20.58679H162.42729L164.41155 16.37024 166.3958 20.58679Z"/>
<path transform="matrix(1,0,0,-1,24.501,89.340999)" stroke-width=".59776" stroke-linecap="butt" stroke-miterlimit="10" stroke-linejoin="miter" fill="none" stroke="#000000" d="M164.41155 20.58679H162.42729L164.41155 16.37024 166.3958 20.58679Z"/>
<use data-text="i" xlink:href="#font_1_4" transform="matrix(10.5,0,0,-10.5,192.711,73.16499)"/>
<use data-text="4" xlink:href="#font_2_4" transform="matrix(6.9738,0,0,-6.9738,196.328,74.74)"/>
<path transform="matrix(1,0,0,-1,24.501,89.340999)" stroke-width=".59776" stroke-linecap="butt" stroke-dasharray="2.98883,2.98883" stroke-miterlimit="10" stroke-linejoin="miter" fill="none" stroke="#ff0000" d="M100.63126 4.25185H182.8368V66.61513H100.63126Z"/>
<use data-text="&#x5e76;" xlink:href="#font_3_5286" transform="matrix(6.5,0,0,-6.5,77.767,56.242998)" fill="#ff0000"/>
<use data-text="&#x8054;" xlink:href="#font_3_13956" transform="matrix(6.5,0,0,-6.5,84.55299,56.242998)" fill="#ff0000"/>
<use data-text="&#x8c10;" xlink:href="#font_3_16960" transform="matrix(6.5,0,0,-6.5,91.339,56.242998)" fill="#ff0000"/>
<use data-text="&#x632f;" xlink:href="#font_3_6495" transform="matrix(6.5,0,0,-6.5,98.125,56.242998)" fill="#ff0000"/>
<use data-text="&#x90e8;" xlink:href="#font_3_18200" transform="matrix(6.5,0,0,-6.5,104.910999,56.242998)" fill="#ff0000"/>
<use data-text="&#x5206;" xlink:href="#font_3_2102" transform="matrix(6.5,0,0,-6.5,111.697,56.242998)" fill="#ff0000"/>
</svg>
